<?xml version="1.0" standalone="no"?>
<!DOCTYPE svg PUBLIC "-//W3C//DTD SVG 1.1//EN" "http://www.w3.org/Graphics/SVG/1.1/DTD/svg11.dtd" >
<svg xmlns="http://www.w3.org/2000/svg" xmlns:xlink="http://www.w3.org/1999/xlink" version="1.1">
<metadata>
Created by FontForge 20161116 at Sun Mar 25 08:51:38 2012
 By Jimmy Wärting
Copyright (c) 2011 by EdgarTolentino, PabloImpallari, IginoMarini. All rights reserved.
</metadata>
<defs>
<font id="Dosis-ExtraLight" horiz-adv-x="455" >
  <font-face 
    font-family="Dosis"
    font-weight="250"
    font-stretch="normal"
    units-per-em="1000"
    panose-1="2 1 2 3 2 2 2 6 0 3"
    ascent="800"
    descent="-200"
    x-height="472"
    cap-height="731"
    bbox="-143 -237 994 1027"
    underline-thickness="26"
    underline-position="-51"
    unicode-range="U+000D-FB02"
  />
<missing-glyph horiz-adv-x="317" 
d="M239 378q7 0 12.5 -5t5.5 -13q0 -5 -3 -9l-74 -115l73 -114q3 -5 3 -10q0 -7 -5 -12t-13 -5q-9 0 -14 8l-65 100l-66 -100q-6 -8 -15 -8q-8 0 -13 5t-5 12q0 5 3 10l74 114l-74 115q-3 4 -3 9q0 8 5 13t13 5q9 0 15 -8l66 -102l66 102q5 8 14 8z" />
    <glyph glyph-name="fi" unicode="fi" horiz-adv-x="477" 
d="M262 733q-47 0 -77.5 -15.5t-48.5 -37.5t-25 -46.5t-7 -43.5v-118h139q8 0 13 -5t5 -12q0 -8 -5 -13t-13 -5h-139v-420q0 -8 -5.5 -12.5t-13.5 -4.5q-16 0 -16 17v573q0 31 12 63t36 57.5t59.5 41.5t82.5 16q26 0 52 -5t46.5 -13t33.5 -18.5t13 -21.5q0 -8 -5.5 -13
t-10.5 -5q-6 0 -14.5 6.5t-23 14t-36 14t-52.5 6.5zM392 472q8 0 13 -4.5t5 -12.5v-437q0 -7 -5 -12.5t-13 -5.5q-7 0 -12 5.5t-5 12.5v437q0 8 5 12.5t12 4.5z" />
    <glyph glyph-name="fl" unicode="fl" horiz-adv-x="487" 
d="M375 693q-23 24 -53 35.5t-60 11.5t-58.5 -10.5t-50.5 -30t-35.5 -47.5t-13.5 -62v-118h139q8 0 13 -5t5 -12q0 -18 -18 -18h-139v-420q0 -17 -19 -17q-16 0 -16 17v573q0 41 16.5 74t43.5 56t62 35.5t71 12.5q42 0 80.5 -17t67.5 -53v-680q0 -7 -5 -12.5t-13 -5.5
q-7 0 -12 5.5t-5 12.5v675z" />
    <glyph glyph-name=".notdef" horiz-adv-x="317" 
d="M239 378q7 0 12.5 -5t5.5 -13q0 -5 -3 -9l-74 -115l73 -114q3 -5 3 -10q0 -7 -5 -12t-13 -5q-9 0 -14 8l-65 100l-66 -100q-6 -8 -15 -8q-8 0 -13 5t-5 12q0 5 3 10l74 114l-74 115q-3 4 -3 9q0 8 5 13t13 5q9 0 15 -8l66 -102l66 102q5 8 14 8z" />
    <glyph glyph-name="A" unicode="A" horiz-adv-x="521" 
d="M43 0q-7 0 -12.5 4t-5.5 12q0 4 1 6l217 701q4 14 18 14t19 -14l215 -701q0 -2 0.5 -2.5t0.5 -2.5q0 -7 -6 -12t-14 -5q-12 0 -16 13l-51 164h-298l-50 -164q-4 -13 -18 -13zM398 213l-137 448l-139 -448h276z" />
    <glyph glyph-name="AE" unicode="&#xc6;" horiz-adv-x="680" 
d="M398 384h160q8 0 12.5 -5.5t4.5 -13.5q0 -6 -4 -11.5t-13 -5.5h-160v-312h237q8 0 12.5 -5.5t4.5 -13.5q0 -6 -4 -11.5t-13 -5.5h-255q-7 0 -12.5 4.5t-5.5 13.5v330h-247v-325q0 -10 -3 -16.5t-15 -6.5q-10 0 -14 6.5t-4 16.5v502q0 56 15 95.5t41.5 64t62.5 35.5t77 11
h360q9 0 13 -5.5t4 -11.5q0 -8 -4.5 -13.5t-12.5 -5.5h-237v-311zM115 384h247v311h-87q-75 0 -117.5 -41t-42.5 -129v-141z" />
    <glyph glyph-name="AEacute" unicode="&#x1fc;" horiz-adv-x="680" 
d="M398 384h160q8 0 12.5 -5.5t4.5 -13.5q0 -6 -4 -11.5t-13 -5.5h-160v-312h237q8 0 12.5 -5.5t4.5 -13.5q0 -6 -4 -11.5t-13 -5.5h-255q-7 0 -12.5 4.5t-5.5 13.5v330h-247v-325q0 -10 -3 -16.5t-15 -6.5q-10 0 -14 6.5t-4 16.5v502q0 56 15 95.5t41.5 64t62.5 35.5t77 11
h360q9 0 13 -5.5t4 -11.5q0 -8 -4.5 -13.5t-12.5 -5.5h-237v-311zM115 384h247v311h-87q-75 0 -117.5 -41t-42.5 -129v-141zM303 863q-5 -3 -9 -3q-8 0 -13.5 5t-5.5 13q0 9 8 13l102 60q4 2 7 2q8 0 12 -5.5t4 -12.5q0 -12 -10 -18z" />
    <glyph glyph-name="Aacute" unicode="&#xc1;" horiz-adv-x="521" 
d="M43 0q-7 0 -12.5 4t-5.5 12q0 4 1 6l217 701q4 14 18 14t19 -14l215 -701q0 -2 0.5 -2.5t0.5 -2.5q0 -7 -6 -12t-14 -5q-12 0 -16 13l-51 164h-298l-50 -164q-4 -13 -18 -13zM398 213l-137 448l-139 -448h276zM222 863q-5 -3 -9 -3q-8 0 -13.5 5t-5.5 13q0 9 8 13l102 60
q4 2 7 2q8 0 12 -5.5t4 -12.5q0 -12 -10 -18z" />
    <glyph glyph-name="Abreve" unicode="&#x102;" horiz-adv-x="521" 
d="M43 0q-7 0 -12.5 4t-5.5 12q0 4 1 6l217 701q4 14 18 14t19 -14l215 -701q0 -2 0.5 -2.5t0.5 -2.5q0 -7 -6 -12t-14 -5q-12 0 -16 13l-51 164h-298l-50 -164q-4 -13 -18 -13zM398 213l-137 448l-139 -448h276zM369 969q0 -22 -9 -42t-24 -35t-35 -23.5t-41 -8.5
q-22 0 -41.5 8.5t-34.5 23.5t-24 35t-9 42h32q0 -35 22.5 -59t54.5 -24q31 0 53.5 24t22.5 59h33z" />
    <glyph glyph-name="Acircumflex" unicode="&#xc2;" horiz-adv-x="521" 
d="M43 0q-7 0 -12.5 4t-5.5 12q0 4 1 6l217 701q4 14 18 14t19 -14l215 -701q0 -2 0.5 -2.5t0.5 -2.5q0 -7 -6 -12t-14 -5q-12 0 -16 13l-51 164h-298l-50 -164q-4 -13 -18 -13zM398 213l-137 448l-139 -448h276zM156 862l-4 -2t-4 -1q-7 0 -12.5 5.5t-5.5 13.5q0 9 9 14
l104 56q8 5 17 5t17 -5l104 -55q9 -5 9 -17q0 -7 -5 -11.5t-12 -4.5q-2 0 -4.5 1t-4.5 2l-104 55z" />
    <glyph glyph-name="Adieresis" unicode="&#xc4;" horiz-adv-x="521" 
d="M43 0q-7 0 -12.5 4t-5.5 12q0 4 1 6l217 701q4 14 18 14t19 -14l215 -701q0 -2 0.5 -2.5t0.5 -2.5q0 -7 -6 -12t-14 -5q-12 0 -16 13l-51 164h-298l-50 -164q-4 -13 -18 -13zM398 213l-137 448l-139 -448h276zM205 918q13 0 21 -8t8 -21t-8 -21.5t-21 -8.5q-14 0 -22 8.5
t-8 21.5t8 21t22 8zM316 918q13 0 21 -8t8 -21t-8 -21.5t-21 -8.5q-14 0 -22 8.5t-8 21.5t8 21t22 8z" />
    <glyph glyph-name="Agrave" unicode="&#xc0;" horiz-adv-x="521" 
d="M43 0q-7 0 -12.5 4t-5.5 12q0 4 1 6l217 701q4 14 18 14t19 -14l215 -701q0 -2 0.5 -2.5t0.5 -2.5q0 -7 -6 -12t-14 -5q-12 0 -16 13l-51 164h-298l-50 -164q-4 -13 -18 -13zM398 213l-137 448l-139 -448h276zM204 917q-10 6 -10 18q0 7 4 12.5t12 5.5q3 0 7 -2l102 -60
q8 -4 8 -13q0 -8 -5.5 -13t-13.5 -5q-5 0 -9 3z" />
    <glyph glyph-name="Amacron" unicode="&#x100;" horiz-adv-x="521" 
d="M43 0q-7 0 -12.5 4t-5.5 12q0 4 1 6l217 701q4 14 18 14t19 -14l215 -701q0 -2 0.5 -2.5t0.5 -2.5q0 -7 -6 -12t-14 -5q-12 0 -16 13l-51 164h-298l-50 -164q-4 -13 -18 -13zM398 213l-137 448l-139 -448h276zM133 923q0 8 4.5 13t12.5 5h220q7 0 12.5 -5t5.5 -13
t-5.5 -12.5t-12.5 -4.5h-220q-17 0 -17 17z" />
    <glyph glyph-name="Aogonek" unicode="&#x104;" horiz-adv-x="521" 
d="M476 -169q8 0 13 -2.5t5 -10.5q0 -13 -23 -13q-14 0 -29 3t-28 10.5t-21.5 20.5t-8.5 33q0 44 21 79t53 66l-49 160h-298l-50 -164q-4 -13 -18 -13q-7 0 -12.5 4t-5.5 12q0 4 1 6l217 701q4 14 18 14t19 -14l215 -701q0 -2 0.5 -2.5t0.5 -2.5q0 -10 -11 -15
q-30 -29 -51 -59t-21 -69q0 -25 17 -34t46 -9zM398 213l-137 448l-139 -448h276z" />
    <glyph glyph-name="Aring" unicode="&#xc5;" horiz-adv-x="521" 
d="M43 0q-7 0 -12.5 4t-5.5 12q0 4 1 6l217 701q4 14 18 14t19 -14l215 -701q0 -2 0.5 -2.5t0.5 -2.5q0 -7 -6 -12t-14 -5q-12 0 -16 13l-51 164h-298l-50 -164q-4 -13 -18 -13zM398 213l-137 448l-139 -448h276zM260 1027q18 0 34 -7.5t28.5 -20t20 -29t7.5 -34.5t-7.5 -35
t-20 -30t-28.5 -20.5t-34 -7.5q-19 0 -35.5 7.5t-28.5 20.5t-19 30t-7 35t7 34t19 29t28.5 20.5t35.5 7.5zM325 936q0 12 -5 23.5t-14 20.5t-21 15t-25 6q-14 0 -26 -6t-21 -15t-14 -20.5t-5 -23.5q0 -13 5 -25.5t14 -22.5t21 -16t26 -6q13 0 25 6t21 16t14 22.5t5 25.5z
" />
    <glyph glyph-name="Atilde" unicode="&#xc3;" horiz-adv-x="521" 
d="M43 0q-7 0 -12.5 4t-5.5 12q0 4 1 6l217 701q4 14 18 14t19 -14l215 -701q0 -2 0.5 -2.5t0.5 -2.5q0 -7 -6 -12t-14 -5q-12 0 -16 13l-51 164h-298l-50 -164q-4 -13 -18 -13zM398 213l-137 448l-139 -448h276zM329 912q17 0 27 5t16.5 11t11 11t10.5 5q5 0 9.5 -4
t4.5 -11q0 -12 -8.5 -21t-21.5 -16t-27.5 -10.5t-26.5 -3.5q-18 0 -32.5 6t-29 12.5t-30.5 12.5t-37 6q-16 0 -27 -5.5t-18.5 -12t-13 -12t-10.5 -5.5q-13 0 -13 17q0 10 9 19t22 16.5t28.5 12t29.5 4.5q18 0 33 -6t29.5 -12.5t30 -12.5t34.5 -6z" />
    <glyph glyph-name="B" unicode="B" horiz-adv-x="527" 
d="M83 713q0 9 5.5 13.5t12.5 4.5h150q43 0 80.5 -6.5t65.5 -24.5t43.5 -51t15.5 -85q0 -65 -23.5 -108t-61.5 -60q23 -10 42 -24t32.5 -35t21 -49.5t7.5 -67.5v-17q0 -56 -15 -95t-41.5 -63t-62.5 -34.5t-77 -10.5h-177q-8 0 -13 5t-5 12v696zM278 36q75 0 117.5 39.5
t42.5 127.5v17q0 87 -42.5 122.5t-117.5 35.5h-159v-342h159zM119 414h139q41 0 71.5 7t50.5 24.5t30 46t10 72.5q0 42 -12.5 67.5t-34.5 39.5t-53 19t-67 5h-134v-281z" />
    <glyph glyph-name="C" unicode="C" horiz-adv-x="512" 
d="M112 200q0 -88 42 -129t124 -41q49 0 78 13t45 33t21.5 42.5t8.5 42.5q1 7 4 12.5t14 5.5q9 0 13.5 -6t4.5 -23q0 -29 -12.5 -57t-37 -50t-61 -35.5t-84.5 -13.5q-40 0 -75.5 11t-62.5 35.5t-42.5 64t-15.5 95.5v325q0 56 16 95.5t43 64t63 35.5t77 11q48 0 84 -13.5
t60 -35.5t36 -50.5t12 -57.5q0 -17 -4.5 -22.5t-13.5 -5.5q-13 0 -15.5 6.5t-2.5 11.5q-1 18 -7.5 40.5t-23.5 43t-47 34t-79 13.5q-79 0 -120.5 -41t-41.5 -129v-325z" />
    <glyph glyph-name="nonmarkingreturn" unicode="&#xd;" horiz-adv-x="0" 
 />
    <glyph glyph-name="Cacute" unicode="&#x106;" horiz-adv-x="512" 
d="M112 200q0 -88 42 -129t124 -41q49 0 78 13t45 33t21.5 42.5t8.5 42.5q1 7 4 12.5t14 5.5q9 0 13.5 -6t4.5 -23q0 -29 -12.5 -57t-37 -50t-61 -35.5t-84.5 -13.5q-40 0 -75.5 11t-62.5 35.5t-42.5 64t-15.5 95.5v325q0 56 16 95.5t43 64t63 35.5t77 11q48 0 84 -13.5
t60 -35.5t36 -50.5t12 -57.5q0 -17 -4.5 -22.5t-13.5 -5.5q-13 0 -15.5 6.5t-2.5 11.5q-1 18 -7.5 40.5t-23.5 43t-47 34t-79 13.5q-79 0 -120.5 -41t-41.5 -129v-325zM233 863q-5 -3 -9 -3q-8 0 -13.5 5t-5.5 13q0 9 8 13l102 60q4 2 7 2q8 0 12 -5.5t4 -12.5
q0 -12 -10 -18z" />
    <glyph glyph-name="Ccaron" unicode="&#x10c;" horiz-adv-x="512" 
d="M112 200q0 -88 42 -129t124 -41q49 0 78 13t45 33t21.5 42.5t8.5 42.5q1 7 4 12.5t14 5.5q9 0 13.5 -6t4.5 -23q0 -29 -12.5 -57t-37 -50t-61 -35.5t-84.5 -13.5q-40 0 -75.5 11t-62.5 35.5t-42.5 64t-15.5 95.5v325q0 56 16 95.5t43 64t63 35.5t77 11q48 0 84 -13.5
t60 -35.5t36 -50.5t12 -57.5q0 -17 -4.5 -22.5t-13.5 -5.5q-13 0 -15.5 6.5t-2.5 11.5q-1 18 -7.5 40.5t-23.5 43t-47 34t-79 13.5q-79 0 -120.5 -41t-41.5 -129v-325zM291 858q-11 -11 -21 -11q-12 0 -21 11l-100 101q-8 10 -8 16q0 5 4 10t11 5q9 0 16 -8l98 -103l98 103
q7 8 16 8q7 0 11 -5t4 -10q0 -6 -8 -16z" />
    <glyph glyph-name="Ccedilla" unicode="&#xc7;" horiz-adv-x="512" 
d="M112 200q0 -88 42 -129t124 -41q49 0 78 13t45 33t21.5 42.5t8.5 42.5q1 7 4 12.5t14 5.5q9 0 13.5 -6t4.5 -23q0 -26 -10 -51.5t-30.5 -46.5t-50 -35.5t-68.5 -19.5l-15 -62q51 -2 72.5 -23t21.5 -47q0 -28 -21.5 -50t-60.5 -22q-9 0 -21.5 1.5t-24 4.5t-20 7.5
t-8.5 10.5q0 5 3.5 11.5t8.5 6.5t18 -6.5t38 -6.5q32 0 43.5 12.5t11.5 28.5q0 23 -19 33t-51 12l-29 2l21 84h-4q-40 0 -75.5 11t-62.5 35.5t-42.5 64t-15.5 95.5v325q0 56 16 95.5t43 64t63 35.5t77 11q48 0 84 -13.5t60 -35.5t36 -50.5t12 -57.5q0 -17 -4.5 -22.5
t-13.5 -5.5q-13 0 -15.5 6.5t-2.5 11.5q-1 18 -7.5 40.5t-23.5 43t-47 34t-79 13.5q-79 0 -120.5 -41t-41.5 -129v-325z" />
    <glyph glyph-name="Ccircumflex" unicode="&#x108;" horiz-adv-x="512" 
d="M112 200q0 -88 42 -129t124 -41q49 0 78 13t45 33t21.5 42.5t8.5 42.5q1 7 4 12.5t14 5.5q9 0 13.5 -6t4.5 -23q0 -29 -12.5 -57t-37 -50t-61 -35.5t-84.5 -13.5q-40 0 -75.5 11t-62.5 35.5t-42.5 64t-15.5 95.5v325q0 56 16 95.5t43 64t63 35.5t77 11q48 0 84 -13.5
t60 -35.5t36 -50.5t12 -57.5q0 -17 -4.5 -22.5t-13.5 -5.5q-13 0 -15.5 6.5t-2.5 11.5q-1 18 -7.5 40.5t-23.5 43t-47 34t-79 13.5q-79 0 -120.5 -41t-41.5 -129v-325zM167 862l-4 -2t-4 -1q-7 0 -12.5 5.5t-5.5 13.5q0 9 9 14l104 56q8 5 17 5t17 -5l104 -55q9 -5 9 -17
q0 -7 -5 -11.5t-12 -4.5q-2 0 -4.5 1t-4.5 2l-104 55z" />
    <glyph glyph-name="Cdotaccent" unicode="&#x10a;" horiz-adv-x="512" 
d="M112 200q0 -88 42 -129t124 -41q49 0 78 13t45 33t21.5 42.5t8.5 42.5q1 7 4 12.5t14 5.5q9 0 13.5 -6t4.5 -23q0 -29 -12.5 -57t-37 -50t-61 -35.5t-84.5 -13.5q-40 0 -75.5 11t-62.5 35.5t-42.5 64t-15.5 95.5v325q0 56 16 95.5t43 64t63 35.5t77 11q48 0 84 -13.5
t60 -35.5t36 -50.5t12 -57.5q0 -17 -4.5 -22.5t-13.5 -5.5q-13 0 -15.5 6.5t-2.5 11.5q-1 18 -7.5 40.5t-23.5 43t-47 34t-79 13.5q-79 0 -120.5 -41t-41.5 -129v-325zM272 918q13 0 21 -8t8 -21t-8 -21.5t-21 -8.5q-14 0 -22 8.5t-8 21.5t8 21t22 8z" />
    <glyph glyph-name="D" unicode="D" horiz-adv-x="550" 
d="M278 731q41 0 77 -11t62.5 -35.5t41.5 -64t15 -95.5v-319q0 -56 -15 -95.5t-41.5 -64t-62.5 -35.5t-77 -11h-177q-8 0 -13 5t-5 12v697q0 7 5 12t13 5h177zM119 695v-659h159q75 0 117.5 41t42.5 129v319q0 88 -42.5 129t-117.5 41h-159z" />
    <glyph glyph-name="Dcaron" unicode="&#x10e;" horiz-adv-x="550" 
d="M278 731q41 0 77 -11t62.5 -35.5t41.5 -64t15 -95.5v-319q0 -56 -15 -95.5t-41.5 -64t-62.5 -35.5t-77 -11h-177q-8 0 -13 5t-5 12v697q0 7 5 12t13 5h177zM119 695v-659h159q75 0 117.5 41t42.5 129v319q0 88 -42.5 129t-117.5 41h-159zM298 858q-11 -11 -21 -11
q-12 0 -21 11l-100 101q-8 10 -8 16q0 5 4 10t11 5q9 0 16 -8l98 -103l98 103q7 8 16 8q7 0 11 -5t4 -10q0 -6 -8 -16z" />
    <glyph glyph-name="Dcroat" unicode="&#x110;" horiz-adv-x="560" 
d="M288 731q41 0 77 -11t62.5 -35.5t41.5 -64t15 -95.5v-319q0 -56 -15 -95.5t-41.5 -64t-62.5 -35.5t-77 -11h-177q-8 0 -13 5t-5 12v350h-73q-17 0 -17 17q0 8 4.5 13t12.5 5h73v312q0 7 5 12t13 5h177zM129 695v-293h131q7 0 12.5 -5t5.5 -13t-5.5 -12.5t-12.5 -4.5h-131
v-331h159q75 0 117.5 41t42.5 129v319q0 88 -42.5 129t-117.5 41h-159z" />
    <glyph glyph-name="Delta" unicode="&#x2206;" horiz-adv-x="481" 
d="M456 16q0 -8 -5 -12t-12 -4h-397q-7 0 -12 4t-5 12q0 3 1 6l197 701q4 14 18 14t19 -14l195 -701q1 -3 1 -6zM67 36h346l-172 625z" />
    <glyph glyph-name="E" unicode="E" horiz-adv-x="498" 
d="M119 384h160q8 0 12.5 -5.5t4.5 -13.5q0 -6 -4 -11.5t-13 -5.5h-160v-312h338q8 0 12.5 -5.5t4.5 -13.5q0 -6 -4 -11.5t-13 -5.5h-356q-7 0 -12.5 4.5t-5.5 13.5v695q0 9 5.5 13.5t12.5 4.5h356q9 0 13 -5.5t4 -11.5q0 -8 -4.5 -13.5t-12.5 -5.5h-338v-311z" />
    <glyph glyph-name="Eacute" unicode="&#xc9;" horiz-adv-x="498" 
d="M119 384h160q8 0 12.5 -5.5t4.5 -13.5q0 -6 -4 -11.5t-13 -5.5h-160v-312h338q8 0 12.5 -5.5t4.5 -13.5q0 -6 -4 -11.5t-13 -5.5h-356q-7 0 -12.5 4.5t-5.5 13.5v695q0 9 5.5 13.5t12.5 4.5h356q9 0 13 -5.5t4 -11.5q0 -8 -4.5 -13.5t-12.5 -5.5h-338v-311zM240 863
q-5 -3 -9 -3q-8 0 -13.5 5t-5.5 13q0 9 8 13l102 60q4 2 7 2q8 0 12 -5.5t4 -12.5q0 -12 -10 -18z" />
    <glyph glyph-name="Ebreve" unicode="&#x114;" horiz-adv-x="498" 
d="M119 384h160q8 0 12.5 -5.5t4.5 -13.5q0 -6 -4 -11.5t-13 -5.5h-160v-312h338q8 0 12.5 -5.5t4.5 -13.5q0 -6 -4 -11.5t-13 -5.5h-356q-7 0 -12.5 4.5t-5.5 13.5v695q0 9 5.5 13.5t12.5 4.5h356q9 0 13 -5.5t4 -11.5q0 -8 -4.5 -13.5t-12.5 -5.5h-338v-311zM387 969
q0 -22 -9 -42t-24 -35t-35 -23.5t-41 -8.5q-22 0 -41.5 8.5t-34.5 23.5t-24 35t-9 42h32q0 -35 22.5 -59t54.5 -24q31 0 53.5 24t22.5 59h33z" />
    <glyph glyph-name="Ecaron" unicode="&#x11a;" horiz-adv-x="498" 
d="M119 384h160q8 0 12.5 -5.5t4.5 -13.5q0 -6 -4 -11.5t-13 -5.5h-160v-312h338q8 0 12.5 -5.5t4.5 -13.5q0 -6 -4 -11.5t-13 -5.5h-356q-7 0 -12.5 4.5t-5.5 13.5v695q0 9 5.5 13.5t12.5 4.5h356q9 0 13 -5.5t4 -11.5q0 -8 -4.5 -13.5t-12.5 -5.5h-338v-311zM298 858
q-11 -11 -21 -11q-12 0 -21 11l-100 101q-8 10 -8 16q0 5 4 10t11 5q9 0 16 -8l98 -103l98 103q7 8 16 8q7 0 11 -5t4 -10q0 -6 -8 -16z" />
    <glyph glyph-name="Ecircumflex" unicode="&#xca;" horiz-adv-x="498" 
d="M119 384h160q8 0 12.5 -5.5t4.5 -13.5q0 -6 -4 -11.5t-13 -5.5h-160v-312h338q8 0 12.5 -5.5t4.5 -13.5q0 -6 -4 -11.5t-13 -5.5h-356q-7 0 -12.5 4.5t-5.5 13.5v695q0 9 5.5 13.5t12.5 4.5h356q9 0 13 -5.5t4 -11.5q0 -8 -4.5 -13.5t-12.5 -5.5h-338v-311zM174 862
l-4 -2t-4 -1q-7 0 -12.5 5.5t-5.5 13.5q0 9 9 14l104 56q8 5 17 5t17 -5l104 -55q9 -5 9 -17q0 -7 -5 -11.5t-12 -4.5q-2 0 -4.5 1t-4.5 2l-104 55z" />
    <glyph glyph-name="Edieresis" unicode="&#xcb;" horiz-adv-x="498" 
d="M119 384h160q8 0 12.5 -5.5t4.5 -13.5q0 -6 -4 -11.5t-13 -5.5h-160v-312h338q8 0 12.5 -5.5t4.5 -13.5q0 -6 -4 -11.5t-13 -5.5h-356q-7 0 -12.5 4.5t-5.5 13.5v695q0 9 5.5 13.5t12.5 4.5h356q9 0 13 -5.5t4 -11.5q0 -8 -4.5 -13.5t-12.5 -5.5h-338v-311zM223 918
q13 0 21 -8t8 -21t-8 -21.5t-21 -8.5q-14 0 -22 8.5t-8 21.5t8 21t22 8zM334 918q13 0 21 -8t8 -21t-8 -21.5t-21 -8.5q-14 0 -22 8.5t-8 21.5t8 21t22 8z" />
    <glyph glyph-name="Edotaccent" unicode="&#x116;" horiz-adv-x="498" 
d="M119 384h160q8 0 12.5 -5.5t4.5 -13.5q0 -6 -4 -11.5t-13 -5.5h-160v-312h338q8 0 12.5 -5.5t4.5 -13.5q0 -6 -4 -11.5t-13 -5.5h-356q-7 0 -12.5 4.5t-5.5 13.5v695q0 9 5.5 13.5t12.5 4.5h356q9 0 13 -5.5t4 -11.5q0 -8 -4.5 -13.5t-12.5 -5.5h-338v-311zM279 918
q13 0 21 -8t8 -21t-8 -21.5t-21 -8.5q-14 0 -22 8.5t-8 21.5t8 21t22 8z" />
    <glyph glyph-name="Egrave" unicode="&#xc8;" horiz-adv-x="498" 
d="M119 384h160q8 0 12.5 -5.5t4.5 -13.5q0 -6 -4 -11.5t-13 -5.5h-160v-312h338q8 0 12.5 -5.5t4.5 -13.5q0 -6 -4 -11.5t-13 -5.5h-356q-7 0 -12.5 4.5t-5.5 13.5v695q0 9 5.5 13.5t12.5 4.5h356q9 0 13 -5.5t4 -11.5q0 -8 -4.5 -13.5t-12.5 -5.5h-338v-311zM222 917
q-10 6 -10 18q0 7 4 12.5t12 5.5q3 0 7 -2l102 -60q8 -4 8 -13q0 -8 -5.5 -13t-13.5 -5q-5 0 -9 3z" />
    <glyph glyph-name="Emacron" unicode="&#x112;" horiz-adv-x="498" 
d="M119 384h160q8 0 12.5 -5.5t4.5 -13.5q0 -6 -4 -11.5t-13 -5.5h-160v-312h338q8 0 12.5 -5.5t4.5 -13.5q0 -6 -4 -11.5t-13 -5.5h-356q-7 0 -12.5 4.5t-5.5 13.5v695q0 9 5.5 13.5t12.5 4.5h356q9 0 13 -5.5t4 -11.5q0 -8 -4.5 -13.5t-12.5 -5.5h-338v-311zM151 923
q0 8 4.5 13t12.5 5h220q7 0 12.5 -5t5.5 -13t-5.5 -12.5t-12.5 -4.5h-220q-17 0 -17 17z" />
    <glyph glyph-name="Eng" unicode="&#x14a;" horiz-adv-x="557" 
d="M438 89v625q0 9 5.5 13t12.5 4t12.5 -4t5.5 -13v-762q0 -42 -6 -76.5t-20.5 -59.5t-38 -39t-57.5 -14q-8 0 -13 5.5t-5 12.5q0 8 5 12.5t13 4.5q29 0 46 11.5t26 32t12 49t3 61.5v48q0 5 -2.5 13.5t-9.5 22.5l-308 607v-625q0 -9 -5.5 -13.5t-12.5 -4.5t-12.5 4.5
t-5.5 13.5v696q0 10 5 13.5t13 3.5q5 0 9.5 -4.5t9 -10.5t7.5 -12t5 -9z" />
    <glyph glyph-name="Eogonek" unicode="&#x118;" horiz-adv-x="498" 
d="M456 -169q8 0 13 -2.5t5 -10.5q0 -13 -23 -13q-14 0 -29 3t-28 10.5t-21.5 20.5t-8.5 33q0 38 15.5 69t41.5 59h-320q-7 0 -12.5 4.5t-5.5 13.5v695q0 9 5.5 13.5t12.5 4.5h356q9 0 13 -5.5t4 -11.5q0 -8 -4.5 -13.5t-12.5 -5.5h-338v-311h160q8 0 12.5 -5.5t4.5 -13.5
q0 -6 -4 -11.5t-13 -5.5h-160v-312h338q8 0 12.5 -5.5t4.5 -13.5q0 -5 -2.5 -9.5t-7.5 -6.5q-30 -29 -50.5 -58.5t-20.5 -68.5q0 -25 17 -34t46 -9z" />
    <glyph glyph-name="Eth" unicode="&#xd0;" horiz-adv-x="560" 
d="M288 731q41 0 77 -11t62.5 -35.5t41.5 -64t15 -95.5v-319q0 -56 -15 -95.5t-41.5 -64t-62.5 -35.5t-77 -11h-177q-8 0 -13 5t-5 12v350h-73q-17 0 -17 17q0 8 4.5 13t12.5 5h73v312q0 7 5 12t13 5h177zM129 695v-293h131q7 0 12.5 -5t5.5 -13t-5.5 -12.5t-12.5 -4.5h-131
v-331h159q75 0 117.5 41t42.5 129v319q0 88 -42.5 129t-117.5 41h-159z" />
    <glyph glyph-name="Euro" unicode="&#x20ac;" horiz-adv-x="567" 
d="M37 424q0 8 4.5 13t12.5 5h70v83q0 56 15 95.5t41 64t62 35.5t77 11q46 0 82.5 -13t61.5 -35t38.5 -52.5t13.5 -64.5q0 -11 -5.5 -15.5t-12.5 -4.5t-12.5 4.5t-5.5 13.5q0 34 -12.5 58.5t-34.5 40.5t-51 24t-62 8q-75 0 -117 -41t-42 -129v-83h204q7 0 12.5 -5t5.5 -13
t-5.5 -12.5t-12.5 -4.5h-204v-108h204q7 0 12.5 -5t5.5 -13t-5.5 -12.5t-12.5 -4.5h-204v-64q0 -88 42 -129t117 -41q33 0 62 8t51 24t34.5 40.5t12.5 58.5q0 9 5.5 13.5t12.5 4.5t12.5 -4.5t5.5 -15.5q0 -35 -13.5 -65t-38.5 -52t-61.5 -35t-82.5 -13q-41 0 -77 11
t-62 35.5t-41 64t-15 95.5v64h-70q-17 0 -17 17q0 8 4.5 13t12.5 5h70v108h-70q-17 0 -17 17z" />
    <glyph glyph-name="F" unicode="F" horiz-adv-x="489" 
d="M457 731q9 0 13 -5.5t4 -11.5q0 -8 -4.5 -13.5t-12.5 -5.5h-338v-311h160q8 0 12.5 -5.5t4.5 -13.5q0 -6 -4 -11.5t-13 -5.5h-160v-331q0 -9 -5.5 -13t-12.5 -4t-12.5 4t-5.5 13v696q0 9 5.5 13.5t12.5 4.5h356z" />
    <glyph glyph-name="G" unicode="G" horiz-adv-x="531" 
d="M272 348q-8 0 -12.5 5.5t-4.5 12.5t4.5 12.5t12.5 5.5h178q8 0 12.5 -5.5t4.5 -13.5v-165q0 -56 -15 -95.5t-41.5 -64t-62.5 -35.5t-77 -11t-77 11t-62 35.5t-41 64t-15 95.5v325q0 56 15 95.5t41 64t62 35.5t77 11q46 0 82.5 -13t61.5 -35t38.5 -52.5t13.5 -64.5
q0 -11 -5.5 -15.5t-12.5 -4.5t-12 4.5t-6 13.5q-9 68 -51.5 99.5t-108.5 31.5q-75 0 -117 -41t-42 -129v-325q0 -88 42 -129t117 -41t117.5 41t42.5 129v148h-159z" />
    <glyph glyph-name="Gbreve" unicode="&#x11e;" horiz-adv-x="531" 
d="M272 348q-8 0 -12.5 5.5t-4.5 12.5t4.5 12.5t12.5 5.5h178q8 0 12.5 -5.5t4.5 -13.5v-165q0 -56 -15 -95.5t-41.5 -64t-62.5 -35.5t-77 -11t-77 11t-62 35.5t-41 64t-15 95.5v325q0 56 15 95.5t41 64t62 35.5t77 11q46 0 82.5 -13t61.5 -35t38.5 -52.5t13.5 -64.5
q0 -11 -5.5 -15.5t-12.5 -4.5t-12 4.5t-6 13.5q-9 68 -51.5 99.5t-108.5 31.5q-75 0 -117 -41t-42 -129v-325q0 -88 42 -129t117 -41t117.5 41t42.5 129v148h-159zM380 969q0 -22 -9 -42t-24 -35t-35 -23.5t-41 -8.5q-22 0 -41.5 8.5t-34.5 23.5t-24 35t-9 42h32
q0 -35 22.5 -59t54.5 -24q31 0 53.5 24t22.5 59h33z" />
    <glyph glyph-name="Gcircumflex" unicode="&#x11c;" horiz-adv-x="531" 
d="M272 348q-8 0 -12.5 5.5t-4.5 12.5t4.5 12.5t12.5 5.5h178q8 0 12.5 -5.5t4.5 -13.5v-165q0 -56 -15 -95.5t-41.5 -64t-62.5 -35.5t-77 -11t-77 11t-62 35.5t-41 64t-15 95.5v325q0 56 15 95.5t41 64t62 35.5t77 11q46 0 82.5 -13t61.5 -35t38.5 -52.5t13.5 -64.5
q0 -11 -5.5 -15.5t-12.5 -4.5t-12 4.5t-6 13.5q-9 68 -51.5 99.5t-108.5 31.5q-75 0 -117 -41t-42 -129v-325q0 -88 42 -129t117 -41t117.5 41t42.5 129v148h-159zM167 862l-4 -2t-4 -1q-7 0 -12.5 5.5t-5.5 13.5q0 9 9 14l104 56q8 5 17 5t17 -5l104 -55q9 -5 9 -17
q0 -7 -5 -11.5t-12 -4.5q-2 0 -4.5 1t-4.5 2l-104 55z" />
    <glyph glyph-name="Gcommaaccent" unicode="&#x122;" horiz-adv-x="531" 
d="M272 348q-8 0 -12.5 5.5t-4.5 12.5t4.5 12.5t12.5 5.5h178q8 0 12.5 -5.5t4.5 -13.5v-165q0 -56 -15 -95.5t-41.5 -64t-62.5 -35.5t-77 -11t-77 11t-62 35.5t-41 64t-15 95.5v325q0 56 15 95.5t41 64t62 35.5t77 11q46 0 82.5 -13t61.5 -35t38.5 -52.5t13.5 -64.5
q0 -11 -5.5 -15.5t-12.5 -4.5t-12 4.5t-6 13.5q-9 68 -51.5 99.5t-108.5 31.5q-75 0 -117 -41t-42 -129v-325q0 -88 42 -129t117 -41t117.5 41t42.5 129v148h-159zM230 -138q-5 -3 -9 -3q-8 0 -13.5 5t-5.5 13q0 9 8 13l102 60q4 2 7 2q8 0 12 -5.5t4 -12.5q0 -12 -10 -18z
" />
    <glyph glyph-name="Gdotaccent" unicode="&#x120;" horiz-adv-x="531" 
d="M272 348q-8 0 -12.5 5.5t-4.5 12.5t4.5 12.5t12.5 5.5h178q8 0 12.5 -5.5t4.5 -13.5v-165q0 -56 -15 -95.5t-41.5 -64t-62.5 -35.5t-77 -11t-77 11t-62 35.5t-41 64t-15 95.5v325q0 56 15 95.5t41 64t62 35.5t77 11q46 0 82.5 -13t61.5 -35t38.5 -52.5t13.5 -64.5
q0 -11 -5.5 -15.5t-12.5 -4.5t-12 4.5t-6 13.5q-9 68 -51.5 99.5t-108.5 31.5q-75 0 -117 -41t-42 -129v-325q0 -88 42 -129t117 -41t117.5 41t42.5 129v148h-159zM272 918q13 0 21 -8t8 -21t-8 -21.5t-21 -8.5q-14 0 -22 8.5t-8 21.5t8 21t22 8z" />
    <glyph glyph-name="H" unicode="H" horiz-adv-x="557" 
d="M438 361h-319v-343q0 -9 -5.5 -13.5t-12.5 -4.5t-12.5 4.5t-5.5 13.5v696q0 9 5.5 13t12.5 4t12.5 -4t5.5 -13v-317h319v317q0 9 5.5 13t12.5 4t12.5 -4t5.5 -13v-696q0 -9 -5.5 -13.5t-12.5 -4.5t-12.5 4.5t-5.5 13.5v343z" />
    <glyph glyph-name="Hbar" unicode="&#x126;" horiz-adv-x="557" 
d="M438 361h-319v-343q0 -9 -5.5 -13.5t-12.5 -4.5t-12.5 4.5t-5.5 13.5v525h-45q-17 0 -17 17q0 8 4.5 13t12.5 5h45v136q0 9 5.5 13t12.5 4t12.5 -4t5.5 -13v-136h319v136q0 9 5.5 13t12.5 4t12.5 -4t5.5 -13v-136h44q7 0 12.5 -5t5.5 -13t-5.5 -12.5t-12.5 -4.5h-44v-525
q0 -9 -5.5 -13.5t-12.5 -4.5t-12.5 4.5t-5.5 13.5v343zM438 397v146h-319v-146h319z" />
    <glyph glyph-name="Hcircumflex" unicode="&#x124;" horiz-adv-x="557" 
d="M438 361h-319v-343q0 -9 -5.5 -13.5t-12.5 -4.5t-12.5 4.5t-5.5 13.5v696q0 9 5.5 13t12.5 4t12.5 -4t5.5 -13v-317h319v317q0 9 5.5 13t12.5 4t12.5 -4t5.5 -13v-696q0 -9 -5.5 -13.5t-12.5 -4.5t-12.5 4.5t-5.5 13.5v343zM175 862l-4 -2t-4 -1q-7 0 -12.5 5.5
t-5.5 13.5q0 9 9 14l104 56q8 5 17 5t17 -5l104 -55q9 -5 9 -17q0 -7 -5 -11.5t-12 -4.5q-2 0 -4.5 1t-4.5 2l-104 55z" />
    <glyph glyph-name="I" unicode="I" horiz-adv-x="202" 
d="M83 714q0 9 5.5 13t12.5 4t12.5 -4t5.5 -13v-696q0 -9 -5.5 -13.5t-12.5 -4.5t-12.5 4.5t-5.5 13.5v696z" />
    <glyph glyph-name="IJ" unicode="&#x132;" horiz-adv-x="696" 
d="M83 714q0 9 5.5 13t12.5 4t12.5 -4t5.5 -13v-696q0 -9 -5.5 -13.5t-12.5 -4.5t-12.5 4.5t-5.5 13.5v696zM599 731q7 0 12.5 -4.5t5.5 -13.5v-513q0 -56 -15 -95.5t-41.5 -64t-62 -35.5t-76.5 -11q-46 0 -82.5 13t-61.5 35t-38.5 52t-13.5 65q0 11 5 15.5t12 4.5t13 -4.5
t6 -13.5q0 -33 12.5 -58t34.5 -41t51 -24t62 -8q75 0 117 41t42 129v495h-159q-8 0 -12.5 5.5t-4.5 13.5q0 6 4 11.5t13 5.5h177z" />
    <glyph glyph-name="Iacute" unicode="&#xcd;" horiz-adv-x="202" 
d="M83 714q0 9 5.5 13t12.5 4t12.5 -4t5.5 -13v-696q0 -9 -5.5 -13.5t-12.5 -4.5t-12.5 4.5t-5.5 13.5v696zM62 863q-5 -3 -9 -3q-8 0 -13.5 5t-5.5 13q0 9 8 13l102 60q4 2 7 2q8 0 12 -5.5t4 -12.5q0 -12 -10 -18z" />
    <glyph glyph-name="Ibreve" unicode="&#x12c;" horiz-adv-x="202" 
d="M83 714q0 9 5.5 13t12.5 4t12.5 -4t5.5 -13v-696q0 -9 -5.5 -13.5t-12.5 -4.5t-12.5 4.5t-5.5 13.5v696zM210 969q0 -22 -9 -42t-24 -35t-35 -23.5t-41 -8.5q-22 0 -41.5 8.5t-34.5 23.5t-24 35t-9 42h32q0 -35 22.5 -59t54.5 -24q31 0 53.5 24t22.5 59h33z" />
    <glyph glyph-name="Icircumflex" unicode="&#xce;" horiz-adv-x="202" 
d="M83 714q0 9 5.5 13t12.5 4t12.5 -4t5.5 -13v-696q0 -9 -5.5 -13.5t-12.5 -4.5t-12.5 4.5t-5.5 13.5v696zM-3 862l-4 -2t-4 -1q-7 0 -12.5 5.5t-5.5 13.5q0 9 9 14l104 56q8 5 17 5t17 -5l104 -55q9 -5 9 -17q0 -7 -5 -11.5t-12 -4.5q-2 0 -4.5 1t-4.5 2l-104 55z" />
    <glyph glyph-name="Idieresis" unicode="&#xcf;" horiz-adv-x="202" 
d="M83 714q0 9 5.5 13t12.5 4t12.5 -4t5.5 -13v-696q0 -9 -5.5 -13.5t-12.5 -4.5t-12.5 4.5t-5.5 13.5v696zM46 918q13 0 21 -8t8 -21t-8 -21.5t-21 -8.5q-14 0 -22 8.5t-8 21.5t8 21t22 8zM157 918q13 0 21 -8t8 -21t-8 -21.5t-21 -8.5q-14 0 -22 8.5t-8 21.5t8 21t22 8z
" />
    <glyph glyph-name="Idotaccent" unicode="&#x130;" horiz-adv-x="202" 
d="M83 714q0 9 5.5 13t12.5 4t12.5 -4t5.5 -13v-696q0 -9 -5.5 -13.5t-12.5 -4.5t-12.5 4.5t-5.5 13.5v696zM101 918q13 0 21 -8t8 -21t-8 -21.5t-21 -8.5q-14 0 -22 8.5t-8 21.5t8 21t22 8z" />
    <glyph glyph-name="Igrave" unicode="&#xcc;" horiz-adv-x="202" 
d="M83 714q0 9 5.5 13t12.5 4t12.5 -4t5.5 -13v-696q0 -9 -5.5 -13.5t-12.5 -4.5t-12.5 4.5t-5.5 13.5v696zM44 917q-10 6 -10 18q0 7 4 12.5t12 5.5q3 0 7 -2l102 -60q8 -4 8 -13q0 -8 -5.5 -13t-13.5 -5q-5 0 -9 3z" />
    <glyph glyph-name="Imacron" unicode="&#x12a;" horiz-adv-x="202" 
d="M83 714q0 9 5.5 13t12.5 4t12.5 -4t5.5 -13v-696q0 -9 -5.5 -13.5t-12.5 -4.5t-12.5 4.5t-5.5 13.5v696zM-26 923q0 8 4.5 13t12.5 5h220q7 0 12.5 -5t5.5 -13t-5.5 -12.5t-12.5 -4.5h-220q-17 0 -17 17z" />
    <glyph glyph-name="Iogonek" unicode="&#x12e;" horiz-adv-x="203" 
d="M107 -164q8 0 13 -2.5t5 -10.5q0 -13 -23 -13q-14 0 -29 3t-28 10.5t-21.5 20.5t-8.5 33q0 42 19 76t50 64v697q0 9 5.5 13t12.5 4t12.5 -4t5.5 -13v-696q0 -11 -9 -16q-29 -28 -48 -56.5t-19 -66.5q0 -25 17 -34t46 -9z" />
    <glyph glyph-name="Itilde" unicode="&#x128;" horiz-adv-x="202" 
d="M83 714q0 9 5.5 13t12.5 4t12.5 -4t5.5 -13v-696q0 -9 -5.5 -13.5t-12.5 -4.5t-12.5 4.5t-5.5 13.5v696zM170 912q17 0 27 5t16.5 11t11 11t10.5 5q5 0 9.5 -4t4.5 -11q0 -12 -8.5 -21t-21.5 -16t-27.5 -10.5t-26.5 -3.5q-18 0 -32.5 6t-29 12.5t-30.5 12.5t-37 6
q-16 0 -27 -5.5t-18.5 -12t-13 -12t-10.5 -5.5q-13 0 -13 17q0 10 9 19t22 16.5t28.5 12t29.5 4.5q18 0 33 -6t29.5 -12.5t30 -12.5t34.5 -6z" />
    <glyph glyph-name="J" unicode="J" horiz-adv-x="496" 
d="M399 731q7 0 12.5 -4.5t5.5 -13.5v-513q0 -56 -15 -95.5t-41.5 -64t-62 -35.5t-76.5 -11q-46 0 -82.5 13t-61.5 35t-38.5 52t-13.5 65q0 11 5 15.5t12 4.5t13 -4.5t6 -13.5q0 -33 12.5 -58t34.5 -41t51 -24t62 -8q75 0 117 41t42 129v495h-159q-8 0 -12.5 5.5t-4.5 13.5
q0 6 4 11.5t13 5.5h177z" />
    <glyph glyph-name="Jcircumflex" unicode="&#x134;" horiz-adv-x="496" 
d="M399 731q7 0 12.5 -4.5t5.5 -13.5v-513q0 -56 -15 -95.5t-41.5 -64t-62 -35.5t-76.5 -11q-46 0 -82.5 13t-61.5 35t-38.5 52t-13.5 65q0 11 5 15.5t12 4.5t13 -4.5t6 -13.5q0 -33 12.5 -58t34.5 -41t51 -24t62 -8q75 0 117 41t42 129v495h-159q-8 0 -12.5 5.5t-4.5 13.5
q0 6 4 11.5t13 5.5h177zM144 862l-4 -2t-4 -1q-7 0 -12.5 5.5t-5.5 13.5q0 9 9 14l104 56q8 5 17 5t17 -5l104 -55q9 -5 9 -17q0 -7 -5 -11.5t-12 -4.5q-2 0 -4.5 1t-4.5 2l-104 55z" />
    <glyph glyph-name="K" unicode="K" horiz-adv-x="508" 
d="M215 385l-96 -120v-247q0 -9 -5.5 -13.5t-12.5 -4.5t-12.5 4.5t-5.5 13.5v696q0 9 5.5 13t12.5 4t12.5 -4t5.5 -13v-392l323 403q4 6 14 6q7 0 12.5 -5.5t5.5 -13.5q0 -6 -4 -10l-231 -287l258 -388q3 -5 3 -9q0 -8 -5.5 -13t-13.5 -5q-9 0 -15 9z" />
    <glyph glyph-name="Kcommaaccent" unicode="&#x136;" horiz-adv-x="508" 
d="M215 385l-96 -120v-247q0 -9 -5.5 -13.5t-12.5 -4.5t-12.5 4.5t-5.5 13.5v696q0 9 5.5 13t12.5 4t12.5 -4t5.5 -13v-392l323 403q4 6 14 6q7 0 12.5 -5.5t5.5 -13.5q0 -6 -4 -10l-231 -287l258 -388q3 -5 3 -9q0 -8 -5.5 -13t-13.5 -5q-9 0 -15 9zM215 -138q-5 -3 -9 -3
q-8 0 -13.5 5t-5.5 13q0 9 8 13l102 60q4 2 7 2q8 0 12 -5.5t4 -12.5q0 -12 -10 -18z" />
    <glyph glyph-name="L" unicode="L" horiz-adv-x="452" 
d="M101 0q-7 0 -12.5 4.5t-5.5 13.5v696q0 9 5.5 13t12.5 4t12.5 -4t5.5 -13v-678h304q8 0 11.5 -5.5t3.5 -12.5t-3.5 -12.5t-11.5 -5.5h-322z" />
    <glyph glyph-name="Lacute" unicode="&#x139;" horiz-adv-x="452" 
d="M101 0q-7 0 -12.5 4.5t-5.5 13.5v696q0 9 5.5 13t12.5 4t12.5 -4t5.5 -13v-678h304q8 0 11.5 -5.5t3.5 -12.5t-3.5 -12.5t-11.5 -5.5h-322zM222 863q-5 -3 -9 -3q-8 0 -13.5 5t-5.5 13q0 9 8 13l102 60q4 2 7 2q8 0 12 -5.5t4 -12.5q0 -12 -10 -18z" />
    <glyph glyph-name="Lcaron" unicode="&#x13d;" horiz-adv-x="453" 
d="M101 0q-7 0 -12.5 4.5t-5.5 13.5v696q0 9 5.5 13t12.5 4t12.5 -4t5.5 -13v-678h304q8 0 11.5 -5.5t3.5 -12.5t-3.5 -12.5t-11.5 -5.5h-322zM324 741q14 0 24.5 -10.5t10.5 -25.5q0 -6 -3 -17.5t-7.5 -25t-10.5 -28t-12 -26.5q-5 -10 -14 -10q-6 0 -11 4t-5 11q0 4 1 6
l18 51q-12 3 -19.5 13t-7.5 22q0 15 10 25.5t26 10.5z" />
    <glyph glyph-name="Lcommaaccent" unicode="&#x13b;" horiz-adv-x="452" 
d="M101 0q-7 0 -12.5 4.5t-5.5 13.5v696q0 9 5.5 13t12.5 4t12.5 -4t5.5 -13v-678h304q8 0 11.5 -5.5t3.5 -12.5t-3.5 -12.5t-11.5 -5.5h-322zM214 -138q-5 -3 -9 -3q-8 0 -13.5 5t-5.5 13q0 9 8 13l102 60q4 2 7 2q8 0 12 -5.5t4 -12.5q0 -12 -10 -18z" />
    <glyph glyph-name="Ldot" unicode="&#x13f;" horiz-adv-x="453" 
d="M101 0q-7 0 -12.5 4.5t-5.5 13.5v696q0 9 5.5 13t12.5 4t12.5 -4t5.5 -13v-678h304q8 0 11.5 -5.5t3.5 -12.5t-3.5 -12.5t-11.5 -5.5h-322zM322 457q14 0 24.5 -10.5t10.5 -25.5q0 -14 -10.5 -25t-24.5 -11q-16 0 -26 11t-10 25q0 15 10 25.5t26 10.5z" />
    <glyph glyph-name="Lslash" unicode="&#x141;" horiz-adv-x="458" 
d="M107 0q-7 0 -12.5 4.5t-5.5 13.5v285l-57 -33q-5 -3 -9 -3q-6 0 -11.5 5.5t-5.5 13.5q0 9 9 14l74 43v371q0 9 5.5 13t12.5 4t12.5 -4t5.5 -13v-351l115 67q3 2 9 2q7 0 12 -4.5t5 -11.5q0 -11 -9 -16l-132 -76v-288h304q8 0 11.5 -5.5t3.5 -12.5t-3.5 -12.5t-11.5 -5.5
h-322z" />
    <glyph glyph-name="M" unicode="M" horiz-adv-x="653" 
d="M345 279q-10 -19 -19 -19q-10 0 -19 19l-188 364v-625q0 -9 -5.5 -13.5t-12.5 -4.5t-12.5 4.5t-5.5 13.5v696q0 10 5 13.5t13 3.5q5 0 9.5 -4.5t9 -10.5t7.5 -12t5 -9l194 -382l195 382q2 3 5 9t7.5 12t9 10.5t9.5 4.5q8 0 13 -3.5t5 -13.5v-696q0 -9 -5.5 -13.5
t-12.5 -4.5t-12.5 4.5t-5.5 13.5v625z" />
    <glyph glyph-name="N" unicode="N" horiz-adv-x="557" 
d="M438 89v625q0 9 5.5 13t12.5 4t12.5 -4t5.5 -13v-696q0 -9 -5.5 -13.5t-12.5 -4.5q-10 0 -17 12.5t-12 23.5l-308 607v-625q0 -9 -5.5 -13.5t-12.5 -4.5t-12.5 4.5t-5.5 13.5v696q0 10 5 13.5t13 3.5q5 0 9.5 -4.5t9 -10.5t7.5 -12t5 -9z" />
    <glyph glyph-name="Nacute" unicode="&#x143;" horiz-adv-x="557" 
d="M438 89v625q0 9 5.5 13t12.5 4t12.5 -4t5.5 -13v-696q0 -9 -5.5 -13.5t-12.5 -4.5q-10 0 -17 12.5t-12 23.5l-308 607v-625q0 -9 -5.5 -13.5t-12.5 -4.5t-12.5 4.5t-5.5 13.5v696q0 10 5 13.5t13 3.5q5 0 9.5 -4.5t9 -10.5t7.5 -12t5 -9zM240 863q-5 -3 -9 -3
q-8 0 -13.5 5t-5.5 13q0 9 8 13l102 60q4 2 7 2q8 0 12 -5.5t4 -12.5q0 -12 -10 -18z" />
    <glyph glyph-name="Ncaron" unicode="&#x147;" horiz-adv-x="557" 
d="M438 89v625q0 9 5.5 13t12.5 4t12.5 -4t5.5 -13v-696q0 -9 -5.5 -13.5t-12.5 -4.5q-10 0 -17 12.5t-12 23.5l-308 607v-625q0 -9 -5.5 -13.5t-12.5 -4.5t-12.5 4.5t-5.5 13.5v696q0 10 5 13.5t13 3.5q5 0 9.5 -4.5t9 -10.5t7.5 -12t5 -9zM298 858q-11 -11 -21 -11
q-12 0 -21 11l-100 101q-8 10 -8 16q0 5 4 10t11 5q9 0 16 -8l98 -103l98 103q7 8 16 8q7 0 11 -5t4 -10q0 -6 -8 -16z" />
    <glyph glyph-name="Ncommaaccent" unicode="&#x145;" horiz-adv-x="557" 
d="M438 89v625q0 9 5.5 13t12.5 4t12.5 -4t5.5 -13v-696q0 -9 -5.5 -13.5t-12.5 -4.5q-10 0 -17 12.5t-12 23.5l-308 607v-625q0 -9 -5.5 -13.5t-12.5 -4.5t-12.5 4.5t-5.5 13.5v696q0 10 5 13.5t13 3.5q5 0 9.5 -4.5t9 -10.5t7.5 -12t5 -9zM237 -138q-5 -3 -9 -3
q-8 0 -13.5 5t-5.5 13q0 9 8 13l102 60q4 2 7 2q8 0 12 -5.5t4 -12.5q0 -12 -10 -18z" />
    <glyph glyph-name="Ntilde" unicode="&#xd1;" horiz-adv-x="557" 
d="M438 89v625q0 9 5.5 13t12.5 4t12.5 -4t5.5 -13v-696q0 -9 -5.5 -13.5t-12.5 -4.5q-10 0 -17 12.5t-12 23.5l-308 607v-625q0 -9 -5.5 -13.5t-12.5 -4.5t-12.5 4.5t-5.5 13.5v696q0 10 5 13.5t13 3.5q5 0 9.5 -4.5t9 -10.5t7.5 -12t5 -9zM347 912q17 0 27 5t16.5 11
t11 11t10.5 5q5 0 9.5 -4t4.5 -11q0 -12 -8.5 -21t-21.5 -16t-27.5 -10.5t-26.5 -3.5q-18 0 -32.5 6t-29 12.5t-30.5 12.5t-37 6q-16 0 -27 -5.5t-18.5 -12t-13 -12t-10.5 -5.5q-13 0 -13 17q0 10 9 19t22 16.5t28.5 12t29.5 4.5q18 0 33 -6t29.5 -12.5t30 -12.5t34.5 -6z
" />
    <glyph glyph-name="O" unicode="O" horiz-adv-x="543" 
d="M271 -6q-41 0 -77 11t-62 35.5t-41 64t-15 95.5v325q0 56 15 95.5t41 64t62 35.5t77 11t77 -11t62.5 -35.5t41.5 -64t15 -95.5v-325q0 -56 -15 -95.5t-41.5 -64t-62.5 -35.5t-77 -11zM431 525q0 88 -42.5 129t-117.5 41t-117 -41t-42 -129v-325q0 -88 42 -129t117 -41
t117.5 41t42.5 129v325z" />
    <glyph glyph-name="OE" unicode="&#x152;" horiz-adv-x="845" 
d="M466 384h160q8 0 12.5 -5.5t4.5 -13.5q0 -6 -4 -11.5t-13 -5.5h-160v-312h338q8 0 12.5 -5.5t4.5 -13.5q0 -6 -4 -11.5t-13 -5.5h-354q-7 0 -12.5 4.5t-5.5 13.5v48q-26 -38 -68 -55t-93 -17q-41 0 -77 11t-62 35.5t-41 64t-15 95.5v325q0 56 15 95.5t41 64t62 35.5
t77 11q51 0 93 -17t68 -55v54q0 9 5.5 13.5t12.5 4.5h354q9 0 13 -5.5t4 -11.5q0 -8 -4.5 -13.5t-12.5 -5.5h-338v-311zM431 525q0 88 -42.5 129t-117.5 41t-117 -41t-42 -129v-325q0 -88 42 -129t117 -41t117.5 41t42.5 129v325z" />
    <glyph glyph-name="Oacute" unicode="&#xd3;" horiz-adv-x="543" 
d="M271 -6q-41 0 -77 11t-62 35.5t-41 64t-15 95.5v325q0 56 15 95.5t41 64t62 35.5t77 11t77 -11t62.5 -35.5t41.5 -64t15 -95.5v-325q0 -56 -15 -95.5t-41.5 -64t-62.5 -35.5t-77 -11zM431 525q0 88 -42.5 129t-117.5 41t-117 -41t-42 -129v-325q0 -88 42 -129t117 -41
t117.5 41t42.5 129v325zM233 863q-5 -3 -9 -3q-8 0 -13.5 5t-5.5 13q0 9 8 13l102 60q4 2 7 2q8 0 12 -5.5t4 -12.5q0 -12 -10 -18z" />
    <glyph glyph-name="Obreve" unicode="&#x14e;" horiz-adv-x="543" 
d="M271 -6q-41 0 -77 11t-62 35.5t-41 64t-15 95.5v325q0 56 15 95.5t41 64t62 35.5t77 11t77 -11t62.5 -35.5t41.5 -64t15 -95.5v-325q0 -56 -15 -95.5t-41.5 -64t-62.5 -35.5t-77 -11zM431 525q0 88 -42.5 129t-117.5 41t-117 -41t-42 -129v-325q0 -88 42 -129t117 -41
t117.5 41t42.5 129v325zM380 969q0 -22 -9 -42t-24 -35t-35 -23.5t-41 -8.5q-22 0 -41.5 8.5t-34.5 23.5t-24 35t-9 42h32q0 -35 22.5 -59t54.5 -24q31 0 53.5 24t22.5 59h33z" />
    <glyph glyph-name="Ocircumflex" unicode="&#xd4;" horiz-adv-x="543" 
d="M271 -6q-41 0 -77 11t-62 35.5t-41 64t-15 95.5v325q0 56 15 95.5t41 64t62 35.5t77 11t77 -11t62.5 -35.5t41.5 -64t15 -95.5v-325q0 -56 -15 -95.5t-41.5 -64t-62.5 -35.5t-77 -11zM431 525q0 88 -42.5 129t-117.5 41t-117 -41t-42 -129v-325q0 -88 42 -129t117 -41
t117.5 41t42.5 129v325zM167 862l-4 -2t-4 -1q-7 0 -12.5 5.5t-5.5 13.5q0 9 9 14l104 56q8 5 17 5t17 -5l104 -55q9 -5 9 -17q0 -7 -5 -11.5t-12 -4.5q-2 0 -4.5 1t-4.5 2l-104 55z" />
    <glyph glyph-name="Odieresis" unicode="&#xd6;" horiz-adv-x="543" 
d="M271 -6q-41 0 -77 11t-62 35.5t-41 64t-15 95.5v325q0 56 15 95.5t41 64t62 35.5t77 11t77 -11t62.5 -35.5t41.5 -64t15 -95.5v-325q0 -56 -15 -95.5t-41.5 -64t-62.5 -35.5t-77 -11zM431 525q0 88 -42.5 129t-117.5 41t-117 -41t-42 -129v-325q0 -88 42 -129t117 -41
t117.5 41t42.5 129v325zM216 918q13 0 21 -8t8 -21t-8 -21.5t-21 -8.5q-14 0 -22 8.5t-8 21.5t8 21t22 8zM327 918q13 0 21 -8t8 -21t-8 -21.5t-21 -8.5q-14 0 -22 8.5t-8 21.5t8 21t22 8z" />
    <glyph glyph-name="Ograve" unicode="&#xd2;" horiz-adv-x="543" 
d="M271 -6q-41 0 -77 11t-62 35.5t-41 64t-15 95.5v325q0 56 15 95.5t41 64t62 35.5t77 11t77 -11t62.5 -35.5t41.5 -64t15 -95.5v-325q0 -56 -15 -95.5t-41.5 -64t-62.5 -35.5t-77 -11zM431 525q0 88 -42.5 129t-117.5 41t-117 -41t-42 -129v-325q0 -88 42 -129t117 -41
t117.5 41t42.5 129v325zM215 917q-10 6 -10 18q0 7 4 12.5t12 5.5q3 0 7 -2l102 -60q8 -4 8 -13q0 -8 -5.5 -13t-13.5 -5q-5 0 -9 3z" />
    <glyph glyph-name="Ohungarumlaut" unicode="&#x150;" horiz-adv-x="543" 
d="M271 -6q-41 0 -77 11t-62 35.5t-41 64t-15 95.5v325q0 56 15 95.5t41 64t62 35.5t77 11t77 -11t62.5 -35.5t41.5 -64t15 -95.5v-325q0 -56 -15 -95.5t-41.5 -64t-62.5 -35.5t-77 -11zM431 525q0 88 -42.5 129t-117.5 41t-117 -41t-42 -129v-325q0 -88 42 -129t117 -41
t117.5 41t42.5 129v325zM199 863q-5 -3 -9 -3q-8 0 -13.5 5t-5.5 13q0 9 8 13l102 60q4 2 7 2q8 0 12 -5.5t4 -12.5q0 -12 -10 -18zM346 863q-5 -3 -9 -3q-8 0 -13.5 5t-5.5 13q0 9 8 13l102 60q4 2 7 2q8 0 12 -5.5t4 -12.5q0 -12 -10 -18z" />
    <glyph glyph-name="Omacron" unicode="&#x14c;" horiz-adv-x="543" 
d="M271 -6q-41 0 -77 11t-62 35.5t-41 64t-15 95.5v325q0 56 15 95.5t41 64t62 35.5t77 11t77 -11t62.5 -35.5t41.5 -64t15 -95.5v-325q0 -56 -15 -95.5t-41.5 -64t-62.5 -35.5t-77 -11zM431 525q0 88 -42.5 129t-117.5 41t-117 -41t-42 -129v-325q0 -88 42 -129t117 -41
t117.5 41t42.5 129v325zM144 923q0 8 4.5 13t12.5 5h220q7 0 12.5 -5t5.5 -13t-5.5 -12.5t-12.5 -4.5h-220q-17 0 -17 17z" />
    <glyph glyph-name="Omega" unicode="&#x2126;" horiz-adv-x="534" 
d="M315 103q54 12 82.5 52.5t28.5 112.5v257q0 88 -42 129t-117 41t-117 -41t-42 -129v-257q0 -72 28.5 -112.5t82.5 -52.5v-103h-142q-8 0 -12.5 5t-4.5 13t5 12.5t12 4.5h107v40q-51 18 -81.5 64.5t-30.5 128.5v257q0 56 15 95.5t41 64t62 35.5t77 11t76.5 -11t62 -35.5
t41.5 -64t15 -95.5v-257q0 -82 -31 -128.5t-81 -64.5v-40h107q7 0 12 -4.5t5 -12.5t-4.5 -13t-12.5 -5h-142v103z" />
    <glyph glyph-name="Oslash" unicode="&#xd8;" horiz-adv-x="543" 
d="M436 653q14 -24 22.5 -55.5t8.5 -72.5v-325q0 -56 -15 -95.5t-41.5 -64t-62.5 -35.5t-77 -11q-45 0 -83.5 13t-64.5 43l-31 -59q-6 -11 -17 -11q-6 0 -11 4t-5 11q0 6 2 9l40 77q-25 48 -25 119v325q0 56 15 95.5t41 64t62 35.5t77 11q42 0 78 -11.5t63 -37.5l40 78
q4 8 13 8q6 0 12 -5.5t6 -13.5q0 -5 -3 -11zM431 525q0 53 -16 88l-274 -527q20 -29 53 -42.5t77 -13.5q75 0 117.5 41t42.5 129v325zM112 200q0 -43 11 -76l271 523q-42 48 -123 48q-75 0 -117 -41t-42 -129v-325z" />
    <glyph glyph-name="Oslashacute" unicode="&#x1fe;" horiz-adv-x="543" 
d="M436 653q14 -24 22.5 -55.5t8.5 -72.5v-325q0 -56 -15 -95.5t-41.5 -64t-62.5 -35.5t-77 -11q-45 0 -83.5 13t-64.5 43l-31 -59q-6 -11 -17 -11q-6 0 -11 4t-5 11q0 6 2 9l40 77q-25 48 -25 119v325q0 56 15 95.5t41 64t62 35.5t77 11q42 0 78 -11.5t63 -37.5l40 78
q4 8 13 8q6 0 12 -5.5t6 -13.5q0 -5 -3 -11zM431 525q0 53 -16 88l-274 -527q20 -29 53 -42.5t77 -13.5q75 0 117.5 41t42.5 129v325zM112 200q0 -43 11 -76l271 523q-42 48 -123 48q-75 0 -117 -41t-42 -129v-325zM233 863q-5 -3 -9 -3q-8 0 -13.5 5t-5.5 13q0 9 8 13
l102 60q4 2 7 2q8 0 12 -5.5t4 -12.5q0 -12 -10 -18z" />
    <glyph glyph-name="Otilde" unicode="&#xd5;" horiz-adv-x="543" 
d="M271 -6q-41 0 -77 11t-62 35.5t-41 64t-15 95.5v325q0 56 15 95.5t41 64t62 35.5t77 11t77 -11t62.5 -35.5t41.5 -64t15 -95.5v-325q0 -56 -15 -95.5t-41.5 -64t-62.5 -35.5t-77 -11zM431 525q0 88 -42.5 129t-117.5 41t-117 -41t-42 -129v-325q0 -88 42 -129t117 -41
t117.5 41t42.5 129v325zM340 912q17 0 27 5t16.5 11t11 11t10.5 5q5 0 9.5 -4t4.5 -11q0 -12 -8.5 -21t-21.5 -16t-27.5 -10.5t-26.5 -3.5q-18 0 -32.5 6t-29 12.5t-30.5 12.5t-37 6q-16 0 -27 -5.5t-18.5 -12t-13 -12t-10.5 -5.5q-13 0 -13 17q0 10 9 19t22 16.5t28.5 12
t29.5 4.5q18 0 33 -6t29.5 -12.5t30 -12.5t34.5 -6z" />
    <glyph glyph-name="P" unicode="P" horiz-adv-x="513" 
d="M83 714q0 15 18 17h177q41 0 77 -11t62.5 -35.5t41.5 -64t15 -95.5v-12q0 -56 -15 -95.5t-41.5 -64.5t-62.5 -36t-77 -11h-159v-288q0 -9 -5.5 -13.5t-12.5 -4.5t-12.5 4.5t-5.5 13.5v696zM119 695v-353h159q75 0 117.5 41.5t42.5 129.5v12q0 88 -42.5 129t-117.5 41
h-159z" />
    <glyph glyph-name="Q" unicode="Q" horiz-adv-x="543" 
d="M254 -5q-38 2 -70.5 14t-56.5 36.5t-37.5 62.5t-13.5 92v325q0 56 15 95.5t41 64t62 35.5t77 11t77 -11t62.5 -35.5t41.5 -64t15 -95.5v-325q0 -53 -13.5 -91t-37 -63t-56 -37t-70.5 -14v-86q0 -9 -5.5 -13.5t-12.5 -4.5t-12.5 4.5t-5.5 13.5v86zM431 525q0 88 -42.5 129
t-117.5 41t-117 -41t-42 -129v-325q0 -83 37 -124t105 -46v84q0 9 5.5 13t12.5 4t12.5 -4t5.5 -13v-83q66 5 103.5 46t37.5 123v325z" />
    <glyph glyph-name="R" unicode="R" horiz-adv-x="509" 
d="M83 714q0 15 18 17h167q41 0 78.5 -9.5t66 -31.5t45 -59t16.5 -91q0 -48 -13 -82t-36 -56.5t-53.5 -35t-65.5 -16.5l165 -321q3 -6 3 -11q0 -8 -5 -13t-13 -5q-11 0 -17.5 12.5t-11.5 23.5l-160 312h-148v-330q0 -9 -5.5 -13.5t-12.5 -4.5t-12.5 4.5t-5.5 13.5v696z
M119 695v-311h149q37 0 68.5 9t54 27.5t35 48t12.5 71.5t-12.5 71t-35 48t-54 27.5t-68.5 8.5h-149z" />
    <glyph glyph-name="Racute" unicode="&#x154;" horiz-adv-x="509" 
d="M83 714q0 15 18 17h167q41 0 78.5 -9.5t66 -31.5t45 -59t16.5 -91q0 -48 -13 -82t-36 -56.5t-53.5 -35t-65.5 -16.5l165 -321q3 -6 3 -11q0 -8 -5 -13t-13 -5q-11 0 -17.5 12.5t-11.5 23.5l-160 312h-148v-330q0 -9 -5.5 -13.5t-12.5 -4.5t-12.5 4.5t-5.5 13.5v696z
M119 695v-311h149q37 0 68.5 9t54 27.5t35 48t12.5 71.5t-12.5 71t-35 48t-54 27.5t-68.5 8.5h-149zM240 863q-5 -3 -9 -3q-8 0 -13.5 5t-5.5 13q0 9 8 13l102 60q4 2 7 2q8 0 12 -5.5t4 -12.5q0 -12 -10 -18z" />
    <glyph glyph-name="Rcaron" unicode="&#x158;" horiz-adv-x="509" 
d="M83 714q0 15 18 17h167q41 0 78.5 -9.5t66 -31.5t45 -59t16.5 -91q0 -48 -13 -82t-36 -56.5t-53.5 -35t-65.5 -16.5l165 -321q3 -6 3 -11q0 -8 -5 -13t-13 -5q-11 0 -17.5 12.5t-11.5 23.5l-160 312h-148v-330q0 -9 -5.5 -13.5t-12.5 -4.5t-12.5 4.5t-5.5 13.5v696z
M119 695v-311h149q37 0 68.5 9t54 27.5t35 48t12.5 71.5t-12.5 71t-35 48t-54 27.5t-68.5 8.5h-149zM298 858q-11 -11 -21 -11q-12 0 -21 11l-100 101q-8 10 -8 16q0 5 4 10t11 5q9 0 16 -8l98 -103l98 103q7 8 16 8q7 0 11 -5t4 -10q0 -6 -8 -16z" />
    <glyph glyph-name="Rcommaaccent" unicode="&#x156;" horiz-adv-x="509" 
d="M83 714q0 15 18 17h167q41 0 78.5 -9.5t66 -31.5t45 -59t16.5 -91q0 -48 -13 -82t-36 -56.5t-53.5 -35t-65.5 -16.5l165 -321q3 -6 3 -11q0 -8 -5 -13t-13 -5q-11 0 -17.5 12.5t-11.5 23.5l-160 312h-148v-330q0 -9 -5.5 -13.5t-12.5 -4.5t-12.5 4.5t-5.5 13.5v696z
M119 695v-311h149q37 0 68.5 9t54 27.5t35 48t12.5 71.5t-12.5 71t-35 48t-54 27.5t-68.5 8.5h-149zM202 -138q-5 -3 -9 -3q-8 0 -13.5 5t-5.5 13q0 9 8 13l102 60q4 2 7 2q8 0 12 -5.5t4 -12.5q0 -12 -10 -18z" />
    <glyph glyph-name="S" unicode="S" horiz-adv-x="481" 
d="M230 30q82 0 124.5 41t42.5 121q0 64 -25 98.5t-62.5 54.5t-81 32.5t-81 32t-62.5 53t-25 95.5q0 54 19 88t48.5 53t64 25.5t65.5 6.5t59.5 -5t50.5 -12.5t35 -16.5t13 -18q0 -6 -5.5 -14t-12.5 -8q-5 0 -15 6t-27 13t-41 13t-58 6q-28 0 -56.5 -6t-51.5 -21t-37.5 -41
t-14.5 -66t14.5 -65.5t38 -42t54 -27.5t62 -22t62 -25t54 -37t38 -58.5t14.5 -88.5t-15 -91t-41 -62.5t-62.5 -36t-79.5 -11.5q-48 0 -84 12t-60.5 28.5t-36.5 33.5t-12 27q0 8 6 14.5t11 6.5q7 0 15.5 -13.5t26.5 -29.5t48 -29.5t81 -13.5z" />
    <glyph glyph-name="Sacute" unicode="&#x15a;" horiz-adv-x="481" 
d="M230 30q82 0 124.5 41t42.5 121q0 64 -25 98.5t-62.5 54.5t-81 32.5t-81 32t-62.5 53t-25 95.5q0 54 19 88t48.5 53t64 25.5t65.5 6.5t59.5 -5t50.5 -12.5t35 -16.5t13 -18q0 -6 -5.5 -14t-12.5 -8q-5 0 -15 6t-27 13t-41 13t-58 6q-28 0 -56.5 -6t-51.5 -21t-37.5 -41
t-14.5 -66t14.5 -65.5t38 -42t54 -27.5t62 -22t62 -25t54 -37t38 -58.5t14.5 -88.5t-15 -91t-41 -62.5t-62.5 -36t-79.5 -11.5q-48 0 -84 12t-60.5 28.5t-36.5 33.5t-12 27q0 8 6 14.5t11 6.5q7 0 15.5 -13.5t26.5 -29.5t48 -29.5t81 -13.5zM199 863q-5 -3 -9 -3
q-8 0 -13.5 5t-5.5 13q0 9 8 13l102 60q4 2 7 2q8 0 12 -5.5t4 -12.5q0 -12 -10 -18z" />
    <glyph glyph-name="Scaron" unicode="&#x160;" horiz-adv-x="481" 
d="M230 30q82 0 124.5 41t42.5 121q0 64 -25 98.5t-62.5 54.5t-81 32.5t-81 32t-62.5 53t-25 95.5q0 54 19 88t48.5 53t64 25.5t65.5 6.5t59.5 -5t50.5 -12.5t35 -16.5t13 -18q0 -6 -5.5 -14t-12.5 -8q-5 0 -15 6t-27 13t-41 13t-58 6q-28 0 -56.5 -6t-51.5 -21t-37.5 -41
t-14.5 -66t14.5 -65.5t38 -42t54 -27.5t62 -22t62 -25t54 -37t38 -58.5t14.5 -88.5t-15 -91t-41 -62.5t-62.5 -36t-79.5 -11.5q-48 0 -84 12t-60.5 28.5t-36.5 33.5t-12 27q0 8 6 14.5t11 6.5q7 0 15.5 -13.5t26.5 -29.5t48 -29.5t81 -13.5zM257 858q-11 -11 -21 -11
q-12 0 -21 11l-100 101q-8 10 -8 16q0 5 4 10t11 5q9 0 16 -8l98 -103l98 103q7 8 16 8q7 0 11 -5t4 -10q0 -6 -8 -16z" />
    <glyph glyph-name="Scedilla" unicode="&#x15e;" horiz-adv-x="481" 
d="M230 30q82 0 124.5 41t42.5 121q0 64 -25 98.5t-62.5 54.5t-81 32.5t-81 32t-62.5 53t-25 95.5q0 54 19 88t48.5 53t64 25.5t65.5 6.5t59.5 -5t50.5 -12.5t35 -16.5t13 -18q0 -6 -5.5 -14t-12.5 -8q-5 0 -15 6t-27 13t-41 13t-58 6q-28 0 -56.5 -6t-51.5 -21t-37.5 -41
t-14.5 -66t14.5 -65.5t38 -42t54 -27.5t62 -22t62 -25t54 -37t38 -58.5t14.5 -88.5q0 -93 -43 -140.5t-112 -57.5l-15 -62q51 -2 72.5 -23t21.5 -47q0 -28 -21.5 -50t-60.5 -22q-9 0 -21.5 1.5t-24 4.5t-20 7.5t-8.5 10.5q0 5 3.5 11.5t8.5 6.5t18 -6.5t38 -6.5
q32 0 43.5 12.5t11.5 28.5q0 23 -19 33t-51 12l-29 2l20 84h-10q-48 0 -84 12t-60.5 28.5t-36.5 33.5t-12 27q0 8 6 14.5t11 6.5q7 0 15.5 -13.5t26.5 -29.5t48 -29.5t81 -13.5z" />
    <glyph glyph-name="Scircumflex" unicode="&#x15c;" horiz-adv-x="481" 
d="M230 30q82 0 124.5 41t42.5 121q0 64 -25 98.5t-62.5 54.5t-81 32.5t-81 32t-62.5 53t-25 95.5q0 54 19 88t48.5 53t64 25.5t65.5 6.5t59.5 -5t50.5 -12.5t35 -16.5t13 -18q0 -6 -5.5 -14t-12.5 -8q-5 0 -15 6t-27 13t-41 13t-58 6q-28 0 -56.5 -6t-51.5 -21t-37.5 -41
t-14.5 -66t14.5 -65.5t38 -42t54 -27.5t62 -22t62 -25t54 -37t38 -58.5t14.5 -88.5t-15 -91t-41 -62.5t-62.5 -36t-79.5 -11.5q-48 0 -84 12t-60.5 28.5t-36.5 33.5t-12 27q0 8 6 14.5t11 6.5q7 0 15.5 -13.5t26.5 -29.5t48 -29.5t81 -13.5zM133 862l-4 -2t-4 -1
q-7 0 -12.5 5.5t-5.5 13.5q0 9 9 14l104 56q8 5 17 5t17 -5l104 -55q9 -5 9 -17q0 -7 -5 -11.5t-12 -4.5q-2 0 -4.5 1t-4.5 2l-104 55z" />
    <glyph glyph-name="Scommaaccent" unicode="&#x218;" horiz-adv-x="481" 
d="M230 30q82 0 124.5 41t42.5 121q0 64 -25 98.5t-62.5 54.5t-81 32.5t-81 32t-62.5 53t-25 95.5q0 54 19 88t48.5 53t64 25.5t65.5 6.5t59.5 -5t50.5 -12.5t35 -16.5t13 -18q0 -6 -5.5 -14t-12.5 -8q-5 0 -15 6t-27 13t-41 13t-58 6q-28 0 -56.5 -6t-51.5 -21t-37.5 -41
t-14.5 -66t14.5 -65.5t38 -42t54 -27.5t62 -22t62 -25t54 -37t38 -58.5t14.5 -88.5t-15 -91t-41 -62.5t-62.5 -36t-79.5 -11.5q-48 0 -84 12t-60.5 28.5t-36.5 33.5t-12 27q0 8 6 14.5t11 6.5q7 0 15.5 -13.5t26.5 -29.5t48 -29.5t81 -13.5zM213 -138q-5 -3 -9 -3
q-8 0 -13.5 5t-5.5 13q0 9 8 13l102 60q4 2 7 2q8 0 12 -5.5t4 -12.5q0 -12 -10 -18z" />
    <glyph glyph-name="T" unicode="T" 
d="M32 695q-8 0 -13 5.5t-5 12.5t5 12.5t13 5.5h391q9 0 13.5 -5t4.5 -12t-4 -13t-14 -6h-177v-677q0 -9 -5.5 -13.5t-12.5 -4.5t-12.5 4.5t-5.5 13.5v677h-178z" />
    <glyph glyph-name="Tbar" unicode="&#x166;" horiz-adv-x="459" 
d="M34 695q-8 0 -13 5.5t-5 12.5t5 12.5t13 5.5h391q9 0 13.5 -5t4.5 -12t-4 -13t-14 -6h-177v-312h147q9 0 13.5 -5t4.5 -12t-4 -13t-14 -6h-147v-329q0 -9 -5.5 -13.5t-12.5 -4.5t-12.5 4.5t-5.5 13.5v329h-148q-8 0 -13 5.5t-5 12.5t5 12.5t13 5.5h148v312h-178z" />
    <glyph glyph-name="Tcaron" unicode="&#x164;" 
d="M32 695q-8 0 -13 5.5t-5 12.5t5 12.5t13 5.5h391q9 0 13.5 -5t4.5 -12t-4 -13t-14 -6h-177v-677q0 -9 -5.5 -13.5t-12.5 -4.5t-12.5 4.5t-5.5 13.5v677h-178zM247 858q-11 -11 -21 -11q-12 0 -21 11l-100 101q-8 10 -8 16q0 5 4 10t11 5q9 0 16 -8l98 -103l98 103
q7 8 16 8q7 0 11 -5t4 -10q0 -6 -8 -16z" />
    <glyph glyph-name="Tcommaaccent" unicode="&#x162;" 
d="M32 695q-8 0 -13 5.5t-5 12.5t5 12.5t13 5.5h391q9 0 13.5 -5t4.5 -12t-4 -13t-14 -6h-177v-677q0 -9 -5.5 -13.5t-12.5 -4.5t-12.5 4.5t-5.5 13.5v677h-178zM189 -138q-5 -3 -9 -3q-8 0 -13.5 5t-5.5 13q0 9 8 13l102 60q4 2 7 2q8 0 12 -5.5t4 -12.5q0 -12 -10 -18z
" />
    <glyph glyph-name="Thorn" unicode="&#xde;" horiz-adv-x="483" 
d="M83 715q0 8 5 12t12 4q18 0 18 -17v-172q17 31 52 53.5t91 22.5q33 0 63.5 -9t54.5 -27.5t38.5 -45.5t14.5 -63v-192q0 -36 -15 -63.5t-38.5 -46t-53 -28t-59.5 -9.5q-24 0 -47.5 5.5t-44 16t-35.5 25t-21 31.5v-194q0 -7 -5 -12.5t-12 -5.5q-8 0 -13 5.5t-5 12.5v697z
M263 169q25 0 49 6.5t43 20.5t30.5 35t11.5 50v192q0 28 -11.5 49t-30.5 34.5t-43 20t-49 6.5q-29 0 -55 -8t-46 -22.5t-32 -35t-12 -44.5v-192q0 -20 11 -40t30 -36t45.5 -26t58.5 -10z" />
    <glyph glyph-name="U" unicode="U" horiz-adv-x="549" 
d="M79 714q0 9 5.5 13t12.5 4t12.5 -4t5.5 -13v-514q0 -88 42 -129t117 -41t117.5 41t42.5 129v514q0 9 5.5 13t12.5 4t12.5 -4t5.5 -13v-514q0 -56 -15 -95.5t-41.5 -64t-62.5 -35.5t-77 -11t-77 11t-62 35.5t-41 64t-15 95.5v514z" />
    <glyph glyph-name="Uacute" unicode="&#xda;" horiz-adv-x="549" 
d="M79 714q0 9 5.5 13t12.5 4t12.5 -4t5.5 -13v-514q0 -88 42 -129t117 -41t117.5 41t42.5 129v514q0 9 5.5 13t12.5 4t12.5 -4t5.5 -13v-514q0 -56 -15 -95.5t-41.5 -64t-62.5 -35.5t-77 -11t-77 11t-62 35.5t-41 64t-15 95.5v514zM236 863q-5 -3 -9 -3q-8 0 -13.5 5
t-5.5 13q0 9 8 13l102 60q4 2 7 2q8 0 12 -5.5t4 -12.5q0 -12 -10 -18z" />
    <glyph glyph-name="Ubreve" unicode="&#x16c;" horiz-adv-x="549" 
d="M79 714q0 9 5.5 13t12.5 4t12.5 -4t5.5 -13v-514q0 -88 42 -129t117 -41t117.5 41t42.5 129v514q0 9 5.5 13t12.5 4t12.5 -4t5.5 -13v-514q0 -56 -15 -95.5t-41.5 -64t-62.5 -35.5t-77 -11t-77 11t-62 35.5t-41 64t-15 95.5v514zM383 969q0 -22 -9 -42t-24 -35t-35 -23.5
t-41 -8.5q-22 0 -41.5 8.5t-34.5 23.5t-24 35t-9 42h32q0 -35 22.5 -59t54.5 -24q31 0 53.5 24t22.5 59h33z" />
    <glyph glyph-name="Ucircumflex" unicode="&#xdb;" horiz-adv-x="549" 
d="M79 714q0 9 5.5 13t12.5 4t12.5 -4t5.5 -13v-514q0 -88 42 -129t117 -41t117.5 41t42.5 129v514q0 9 5.5 13t12.5 4t12.5 -4t5.5 -13v-514q0 -56 -15 -95.5t-41.5 -64t-62.5 -35.5t-77 -11t-77 11t-62 35.5t-41 64t-15 95.5v514zM170 862l-4 -2t-4 -1q-7 0 -12.5 5.5
t-5.5 13.5q0 9 9 14l104 56q8 5 17 5t17 -5l104 -55q9 -5 9 -17q0 -7 -5 -11.5t-12 -4.5q-2 0 -4.5 1t-4.5 2l-104 55z" />
    <glyph glyph-name="Udieresis" unicode="&#xdc;" horiz-adv-x="549" 
d="M79 714q0 9 5.5 13t12.5 4t12.5 -4t5.5 -13v-514q0 -88 42 -129t117 -41t117.5 41t42.5 129v514q0 9 5.5 13t12.5 4t12.5 -4t5.5 -13v-514q0 -56 -15 -95.5t-41.5 -64t-62.5 -35.5t-77 -11t-77 11t-62 35.5t-41 64t-15 95.5v514zM219 918q13 0 21 -8t8 -21t-8 -21.5
t-21 -8.5q-14 0 -22 8.5t-8 21.5t8 21t22 8zM330 918q13 0 21 -8t8 -21t-8 -21.5t-21 -8.5q-14 0 -22 8.5t-8 21.5t8 21t22 8z" />
    <glyph glyph-name="Ugrave" unicode="&#xd9;" horiz-adv-x="549" 
d="M79 714q0 9 5.5 13t12.5 4t12.5 -4t5.5 -13v-514q0 -88 42 -129t117 -41t117.5 41t42.5 129v514q0 9 5.5 13t12.5 4t12.5 -4t5.5 -13v-514q0 -56 -15 -95.5t-41.5 -64t-62.5 -35.5t-77 -11t-77 11t-62 35.5t-41 64t-15 95.5v514zM218 917q-10 6 -10 18q0 7 4 12.5t12 5.5
q3 0 7 -2l102 -60q8 -4 8 -13q0 -8 -5.5 -13t-13.5 -5q-5 0 -9 3z" />
    <glyph glyph-name="Uhungarumlaut" unicode="&#x170;" horiz-adv-x="549" 
d="M79 714q0 9 5.5 13t12.5 4t12.5 -4t5.5 -13v-514q0 -88 42 -129t117 -41t117.5 41t42.5 129v514q0 9 5.5 13t12.5 4t12.5 -4t5.5 -13v-514q0 -56 -15 -95.5t-41.5 -64t-62.5 -35.5t-77 -11t-77 11t-62 35.5t-41 64t-15 95.5v514zM213 863q-5 -3 -9 -3q-8 0 -13.5 5
t-5.5 13q0 9 8 13l102 60q4 2 7 2q8 0 12 -5.5t4 -12.5q0 -12 -10 -18zM360 863q-5 -3 -9 -3q-8 0 -13.5 5t-5.5 13q0 9 8 13l102 60q4 2 7 2q8 0 12 -5.5t4 -12.5q0 -12 -10 -18z" />
    <glyph glyph-name="Umacron" unicode="&#x16a;" horiz-adv-x="549" 
d="M79 714q0 9 5.5 13t12.5 4t12.5 -4t5.5 -13v-514q0 -88 42 -129t117 -41t117.5 41t42.5 129v514q0 9 5.5 13t12.5 4t12.5 -4t5.5 -13v-514q0 -56 -15 -95.5t-41.5 -64t-62.5 -35.5t-77 -11t-77 11t-62 35.5t-41 64t-15 95.5v514zM147 923q0 8 4.5 13t12.5 5h220
q7 0 12.5 -5t5.5 -13t-5.5 -12.5t-12.5 -4.5h-220q-17 0 -17 17z" />
    <glyph glyph-name="Uogonek" unicode="&#x172;" horiz-adv-x="549" 
d="M331 -169q8 0 13 -2.5t5 -10.5q0 -13 -23 -13q-14 0 -29 3t-28 10.5t-21.5 20.5t-8.5 33q0 36 14 66t38 57q-5 -1 -9 -1h-8q-41 0 -77 11t-62 35.5t-41 64t-15 95.5v514q0 9 5.5 13t12.5 4t12.5 -4t5.5 -13v-514q0 -88 42 -129t117 -41t117.5 41t42.5 129v514q0 9 5.5 13
t12.5 4t12.5 -4t5.5 -13v-514q0 -89 -36.5 -136t-93.5 -62q-30 -29 -51 -59t-21 -69q0 -25 17 -34t46 -9z" />
    <glyph glyph-name="Uring" unicode="&#x16e;" horiz-adv-x="549" 
d="M79 714q0 9 5.5 13t12.5 4t12.5 -4t5.5 -13v-514q0 -88 42 -129t117 -41t117.5 41t42.5 129v514q0 9 5.5 13t12.5 4t12.5 -4t5.5 -13v-514q0 -56 -15 -95.5t-41.5 -64t-62.5 -35.5t-77 -11t-77 11t-62 35.5t-41 64t-15 95.5v514zM274 1027q18 0 34 -7.5t28.5 -20t20 -29
t7.5 -34.5t-7.5 -35t-20 -30t-28.5 -20.5t-34 -7.5q-19 0 -35.5 7.5t-28.5 20.5t-19 30t-7 35t7 34t19 29t28.5 20.5t35.5 7.5zM339 936q0 12 -5 23.5t-14 20.5t-21 15t-25 6q-14 0 -26 -6t-21 -15t-14 -20.5t-5 -23.5q0 -13 5 -25.5t14 -22.5t21 -16t26 -6q13 0 25 6t21 16
t14 22.5t5 25.5z" />
    <glyph glyph-name="Utilde" unicode="&#x168;" horiz-adv-x="549" 
d="M79 714q0 9 5.5 13t12.5 4t12.5 -4t5.5 -13v-514q0 -88 42 -129t117 -41t117.5 41t42.5 129v514q0 9 5.5 13t12.5 4t12.5 -4t5.5 -13v-514q0 -56 -15 -95.5t-41.5 -64t-62.5 -35.5t-77 -11t-77 11t-62 35.5t-41 64t-15 95.5v514zM343 912q17 0 27 5t16.5 11t11 11t10.5 5
q5 0 9.5 -4t4.5 -11q0 -12 -8.5 -21t-21.5 -16t-27.5 -10.5t-26.5 -3.5q-18 0 -32.5 6t-29 12.5t-30.5 12.5t-37 6q-16 0 -27 -5.5t-18.5 -12t-13 -12t-10.5 -5.5q-13 0 -13 17q0 10 9 19t22 16.5t28.5 12t29.5 4.5q18 0 33 -6t29.5 -12.5t30 -12.5t34.5 -6z" />
    <glyph glyph-name="V" unicode="V" horiz-adv-x="519" 
d="M260 70l199 648q4 13 16 13q8 0 14 -5t6 -12q0 -2 -0.5 -2.5t-0.5 -2.5l-215 -701q-5 -14 -19 -14t-18 14l-217 701q-1 2 -1 6q0 8 5.5 12t12.5 4q14 0 18 -13z" />
    <glyph glyph-name="W" unicode="W" horiz-adv-x="739" 
d="M348 455q3 11 8.5 14t13.5 3t12.5 -3t7.5 -14l108 -385l179 648q2 6 7.5 9.5t11.5 3.5q7 0 12 -4t5 -12q0 -3 -1 -6l-195 -701q-5 -14 -19 -14q-6 0 -11 3t-7 11l-110 392l-109 -392q-5 -14 -19 -14q-6 0 -11 3t-7 11l-197 701q-1 3 -1 6q0 8 5 12t12 4q6 0 11.5 -3.5
t7.5 -9.5l180 -648z" />
    <glyph glyph-name="Wacute" unicode="&#x1e82;" horiz-adv-x="739" 
d="M348 455q3 11 8.5 14t13.5 3t12.5 -3t7.5 -14l108 -385l179 648q2 6 7.5 9.5t11.5 3.5q7 0 12 -4t5 -12q0 -3 -1 -6l-195 -701q-5 -14 -19 -14q-6 0 -11 3t-7 11l-110 392l-109 -392q-5 -14 -19 -14q-6 0 -11 3t-7 11l-197 701q-1 3 -1 6q0 8 5 12t12 4q6 0 11.5 -3.5
t7.5 -9.5l180 -648zM331 863q-5 -3 -9 -3q-8 0 -13.5 5t-5.5 13q0 9 8 13l102 60q4 2 7 2q8 0 12 -5.5t4 -12.5q0 -12 -10 -18z" />
    <glyph glyph-name="Wcircumflex" unicode="&#x174;" horiz-adv-x="739" 
d="M348 455q3 11 8.5 14t13.5 3t12.5 -3t7.5 -14l108 -385l179 648q2 6 7.5 9.5t11.5 3.5q7 0 12 -4t5 -12q0 -3 -1 -6l-195 -701q-5 -14 -19 -14q-6 0 -11 3t-7 11l-110 392l-109 -392q-5 -14 -19 -14q-6 0 -11 3t-7 11l-197 701q-1 3 -1 6q0 8 5 12t12 4q6 0 11.5 -3.5
t7.5 -9.5l180 -648zM265 862l-4 -2t-4 -1q-7 0 -12.5 5.5t-5.5 13.5q0 9 9 14l104 56q8 5 17 5t17 -5l104 -55q9 -5 9 -17q0 -7 -5 -11.5t-12 -4.5q-2 0 -4.5 1t-4.5 2l-104 55z" />
    <glyph glyph-name="Wdieresis" unicode="&#x1e84;" horiz-adv-x="739" 
d="M348 455q3 11 8.5 14t13.5 3t12.5 -3t7.5 -14l108 -385l179 648q2 6 7.5 9.5t11.5 3.5q7 0 12 -4t5 -12q0 -3 -1 -6l-195 -701q-5 -14 -19 -14q-6 0 -11 3t-7 11l-110 392l-109 -392q-5 -14 -19 -14q-6 0 -11 3t-7 11l-197 701q-1 3 -1 6q0 8 5 12t12 4q6 0 11.5 -3.5
t7.5 -9.5l180 -648zM314 918q13 0 21 -8t8 -21t-8 -21.5t-21 -8.5q-14 0 -22 8.5t-8 21.5t8 21t22 8zM425 918q13 0 21 -8t8 -21t-8 -21.5t-21 -8.5q-14 0 -22 8.5t-8 21.5t8 21t22 8z" />
    <glyph glyph-name="Wgrave" unicode="&#x1e80;" horiz-adv-x="739" 
d="M348 455q3 11 8.5 14t13.5 3t12.5 -3t7.5 -14l108 -385l179 648q2 6 7.5 9.5t11.5 3.5q7 0 12 -4t5 -12q0 -3 -1 -6l-195 -701q-5 -14 -19 -14q-6 0 -11 3t-7 11l-110 392l-109 -392q-5 -14 -19 -14q-6 0 -11 3t-7 11l-197 701q-1 3 -1 6q0 8 5 12t12 4q6 0 11.5 -3.5
t7.5 -9.5l180 -648zM313 917q-10 6 -10 18q0 7 4 12.5t12 5.5q3 0 7 -2l102 -60q8 -4 8 -13q0 -8 -5.5 -13t-13.5 -5q-5 0 -9 3z" />
    <glyph glyph-name="X" unicode="X" horiz-adv-x="447" 
d="M223 405l148 290q5 11 12 23.5t18 12.5q18 0 18 -14q0 -7 -5 -17l-171 -334l173 -337q3 -6 3 -11q0 -8 -5 -13t-13 -5q-11 0 -17.5 12.5t-11.5 23.5l-149 291l-148 -291q-5 -11 -11.5 -23.5t-17.5 -12.5q-8 0 -13 5t-5 13q0 5 3 11l172 337l-170 334q-5 10 -5 17
q0 14 18 14q11 0 18 -12.5t12 -23.5z" />
    <glyph glyph-name="Y" unicode="Y" horiz-adv-x="509" 
d="M273 279q-1 -2 -1 -6v-255q0 -9 -5.5 -13.5t-12.5 -4.5t-12.5 4.5t-5.5 13.5v255q0 4 -1 6l-207 416q-6 12 -6 20q0 16 13 16q11 0 20 -17l199 -401l200 401q5 9 10 13t10 4q12 0 12 -16q0 -10 -5 -20z" />
    <glyph glyph-name="Yacute" unicode="&#xdd;" horiz-adv-x="509" 
d="M273 279q-1 -2 -1 -6v-255q0 -9 -5.5 -13.5t-12.5 -4.5t-12.5 4.5t-5.5 13.5v255q0 4 -1 6l-207 416q-6 12 -6 20q0 16 13 16q11 0 20 -17l199 -401l200 401q5 9 10 13t10 4q12 0 12 -16q0 -10 -5 -20zM215 863q-5 -3 -9 -3q-8 0 -13.5 5t-5.5 13q0 9 8 13l102 60
q4 2 7 2q8 0 12 -5.5t4 -12.5q0 -12 -10 -18z" />
    <glyph glyph-name="Ycircumflex" unicode="&#x176;" horiz-adv-x="509" 
d="M273 279q-1 -2 -1 -6v-255q0 -9 -5.5 -13.5t-12.5 -4.5t-12.5 4.5t-5.5 13.5v255q0 4 -1 6l-207 416q-6 12 -6 20q0 16 13 16q11 0 20 -17l199 -401l200 401q5 9 10 13t10 4q12 0 12 -16q0 -10 -5 -20zM150 862l-4 -2t-4 -1q-7 0 -12.5 5.5t-5.5 13.5q0 9 9 14l104 56
q8 5 17 5t17 -5l104 -55q9 -5 9 -17q0 -7 -5 -11.5t-12 -4.5q-2 0 -4.5 1t-4.5 2l-104 55z" />
    <glyph glyph-name="Ydieresis" unicode="&#x178;" horiz-adv-x="509" 
d="M273 279q-1 -2 -1 -6v-255q0 -9 -5.5 -13.5t-12.5 -4.5t-12.5 4.5t-5.5 13.5v255q0 4 -1 6l-207 416q-6 12 -6 20q0 16 13 16q11 0 20 -17l199 -401l200 401q5 9 10 13t10 4q12 0 12 -16q0 -10 -5 -20zM199 918q13 0 21 -8t8 -21t-8 -21.5t-21 -8.5q-14 0 -22 8.5
t-8 21.5t8 21t22 8zM310 918q13 0 21 -8t8 -21t-8 -21.5t-21 -8.5q-14 0 -22 8.5t-8 21.5t8 21t22 8z" />
    <glyph glyph-name="Ygrave" unicode="&#x1ef2;" horiz-adv-x="509" 
d="M273 279q-1 -2 -1 -6v-255q0 -9 -5.5 -13.5t-12.5 -4.5t-12.5 4.5t-5.5 13.5v255q0 4 -1 6l-207 416q-6 12 -6 20q0 16 13 16q11 0 20 -17l199 -401l200 401q5 9 10 13t10 4q12 0 12 -16q0 -10 -5 -20zM198 917q-10 6 -10 18q0 7 4 12.5t12 5.5q3 0 7 -2l102 -60
q8 -4 8 -13q0 -8 -5.5 -13t-13.5 -5q-5 0 -9 3z" />
    <glyph glyph-name="Z" unicode="Z" horiz-adv-x="464" 
d="M45 0q-8 0 -13 4.5t-5 12.5q0 6 3 12l350 666h-325q-9 0 -13.5 5.5t-4.5 12.5t4.5 12.5t13.5 5.5h355q18 0 18 -15q0 -8 -5 -16l-349 -664h346q9 0 13.5 -5.5t4.5 -12.5t-4.5 -12.5t-13.5 -5.5h-375z" />
    <glyph glyph-name="Zacute" unicode="&#x179;" horiz-adv-x="464" 
d="M45 0q-8 0 -13 4.5t-5 12.5q0 6 3 12l350 666h-325q-9 0 -13.5 5.5t-4.5 12.5t4.5 12.5t13.5 5.5h355q18 0 18 -15q0 -8 -5 -16l-349 -664h346q9 0 13.5 -5.5t4.5 -12.5t-4.5 -12.5t-13.5 -5.5h-375zM184 863q-5 -3 -9 -3q-8 0 -13.5 5t-5.5 13q0 9 8 13l102 60q4 2 7 2
q8 0 12 -5.5t4 -12.5q0 -12 -10 -18z" />
    <glyph glyph-name="Zcaron" unicode="&#x17d;" horiz-adv-x="464" 
d="M45 0q-8 0 -13 4.5t-5 12.5q0 6 3 12l350 666h-325q-9 0 -13.5 5.5t-4.5 12.5t4.5 12.5t13.5 5.5h355q18 0 18 -15q0 -8 -5 -16l-349 -664h346q9 0 13.5 -5.5t4.5 -12.5t-4.5 -12.5t-13.5 -5.5h-375zM242 858q-11 -11 -21 -11q-12 0 -21 11l-100 101q-8 10 -8 16
q0 5 4 10t11 5q9 0 16 -8l98 -103l98 103q7 8 16 8q7 0 11 -5t4 -10q0 -6 -8 -16z" />
    <glyph glyph-name="Zdotaccent" unicode="&#x17b;" horiz-adv-x="464" 
d="M45 0q-8 0 -13 4.5t-5 12.5q0 6 3 12l350 666h-325q-9 0 -13.5 5.5t-4.5 12.5t4.5 12.5t13.5 5.5h355q18 0 18 -15q0 -8 -5 -16l-349 -664h346q9 0 13.5 -5.5t4.5 -12.5t-4.5 -12.5t-13.5 -5.5h-375zM223 918q13 0 21 -8t8 -21t-8 -21.5t-21 -8.5q-14 0 -22 8.5t-8 21.5
t8 21t22 8z" />
    <glyph glyph-name="a" unicode="a" horiz-adv-x="423" 
d="M194 478q46 0 77.5 -16t51 -43t28 -61.5t8.5 -71.5v-268q0 -8 -4.5 -13t-12.5 -5t-13 5t-5 13v52q-26 -29 -63 -52.5t-87 -23.5q-29 0 -54.5 8t-44.5 24.5t-29.5 41t-10.5 58.5q0 40 17 65.5t47.5 40.5t73.5 20.5t95 5.5h56v28q0 28 -7.5 56t-23 50.5t-40.5 36.5t-61 14
q-23 0 -40.5 -4t-30 -9.5t-21 -9.5t-12.5 -4q-8 0 -13 7.5t-5 12.5q0 7 11 14.5t28.5 13.5t39.5 10t45 4zM324 223h-55q-39 0 -74.5 -3t-63.5 -13t-44.5 -29t-16.5 -52q0 -51 29.5 -74t73.5 -23q28 0 55 11t48.5 27.5t34.5 36t13 35.5v84z" />
    <glyph glyph-name="a.ss01" horiz-adv-x="431" 
d="M193 478q46 0 77.5 -16t51 -43t28 -61.5t8.5 -71.5v-196q0 -27 9.5 -44t32.5 -17q8 0 13 -4.5t5 -12.5q0 -7 -5 -12.5t-13 -5.5q-39 0 -54 20.5t-19 55.5q-29 -31 -66.5 -53.5t-89.5 -22.5q-28 0 -53 8t-43.5 24t-29.5 40.5t-11 57.5q0 40 16.5 66t47.5 41t73.5 20.5
t95.5 5.5h56v29q0 28 -7.5 56t-23 50.5t-40.5 36.5t-61 14q-23 0 -40.5 -4t-30 -9.5t-21 -9.5t-12.5 -4q-8 0 -13 7.5t-5 12.5q0 7 11 14.5t28.5 13.5t39.5 10t45 4zM323 223h-55q-40 0 -76 -3t-63.5 -13t-43.5 -30t-16 -53q0 -48 29 -71.5t71 -23.5q30 0 58 11t49 27.5
t34 36t13 35.5v84z" />
    <glyph glyph-name="aacute" unicode="&#xe1;" horiz-adv-x="423" 
d="M194 478q46 0 77.5 -16t51 -43t28 -61.5t8.5 -71.5v-268q0 -8 -4.5 -13t-12.5 -5t-13 5t-5 13v52q-26 -29 -63 -52.5t-87 -23.5q-29 0 -54.5 8t-44.5 24.5t-29.5 41t-10.5 58.5q0 40 17 65.5t47.5 40.5t73.5 20.5t95 5.5h56v28q0 28 -7.5 56t-23 50.5t-40.5 36.5t-61 14
q-23 0 -40.5 -4t-30 -9.5t-21 -9.5t-12.5 -4q-8 0 -13 7.5t-5 12.5q0 7 11 14.5t28.5 13.5t39.5 10t45 4zM324 223h-55q-39 0 -74.5 -3t-63.5 -13t-44.5 -29t-16.5 -52q0 -51 29.5 -74t73.5 -23q28 0 55 11t48.5 27.5t34.5 36t13 35.5v84zM158 604q-5 -3 -9 -3q-8 0 -13.5 5
t-5.5 13q0 9 8 13l102 60q4 2 7 2q8 0 12 -5.5t4 -12.5q0 -12 -10 -18z" />
    <glyph glyph-name="abreve" unicode="&#x103;" horiz-adv-x="423" 
d="M316 710q0 -22 -9 -42t-24 -35t-35 -23.5t-41 -8.5q-22 0 -41.5 8.5t-34.5 23.5t-24 35t-9 42h32q0 -35 22.5 -59t54.5 -24q31 0 53.5 24t22.5 59h33zM194 478q46 0 77.5 -16t51 -43t28 -61.5t8.5 -71.5v-268q0 -8 -4.5 -13t-12.5 -5t-13 5t-5 13v52q-26 -29 -63 -52.5
t-87 -23.5q-29 0 -54.5 8t-44.5 24.5t-29.5 41t-10.5 58.5q0 40 17 65.5t47.5 40.5t73.5 20.5t95 5.5h56v28q0 28 -7.5 56t-23 50.5t-40.5 36.5t-61 14q-23 0 -40.5 -4t-30 -9.5t-21 -9.5t-12.5 -4q-8 0 -13 7.5t-5 12.5q0 7 11 14.5t28.5 13.5t39.5 10t45 4zM324 223h-55
q-39 0 -74.5 -3t-63.5 -13t-44.5 -29t-16.5 -52q0 -51 29.5 -74t73.5 -23q28 0 55 11t48.5 27.5t34.5 36t13 35.5v84z" />
    <glyph glyph-name="acircumflex" unicode="&#xe2;" horiz-adv-x="423" 
d="M97 603l-4 -2t-4 -1q-7 0 -12.5 5.5t-5.5 13.5q0 9 9 14l104 56q8 5 17 5t17 -5l104 -55q9 -5 9 -17q0 -7 -5 -11.5t-12 -4.5q-2 0 -4.5 1t-4.5 2l-104 55zM194 478q46 0 77.5 -16t51 -43t28 -61.5t8.5 -71.5v-268q0 -8 -4.5 -13t-12.5 -5t-13 5t-5 13v52
q-26 -29 -63 -52.5t-87 -23.5q-29 0 -54.5 8t-44.5 24.5t-29.5 41t-10.5 58.5q0 40 17 65.5t47.5 40.5t73.5 20.5t95 5.5h56v28q0 28 -7.5 56t-23 50.5t-40.5 36.5t-61 14q-23 0 -40.5 -4t-30 -9.5t-21 -9.5t-12.5 -4q-8 0 -13 7.5t-5 12.5q0 7 11 14.5t28.5 13.5t39.5 10
t45 4zM324 223h-55q-39 0 -74.5 -3t-63.5 -13t-44.5 -29t-16.5 -52q0 -51 29.5 -74t73.5 -23q28 0 55 11t48.5 27.5t34.5 36t13 35.5v84z" />
    <glyph glyph-name="acute" unicode="&#xb4;" horiz-adv-x="133" 
d="M28 604q-5 -3 -9 -3q-8 0 -13.5 5t-5.5 13q0 9 8 13l102 60q4 2 7 2q8 0 12 -5.5t4 -12.5q0 -12 -10 -18z" />
    <glyph glyph-name="adieresis" unicode="&#xe4;" horiz-adv-x="423" 
d="M142 659q13 0 21 -8t8 -21t-8 -21.5t-21 -8.5q-14 0 -22 8.5t-8 21.5t8 21t22 8zM253 659q13 0 21 -8t8 -21t-8 -21.5t-21 -8.5q-14 0 -22 8.5t-8 21.5t8 21t22 8zM194 478q46 0 77.5 -16t51 -43t28 -61.5t8.5 -71.5v-268q0 -8 -4.5 -13t-12.5 -5t-13 5t-5 13v52
q-26 -29 -63 -52.5t-87 -23.5q-29 0 -54.5 8t-44.5 24.5t-29.5 41t-10.5 58.5q0 40 17 65.5t47.5 40.5t73.5 20.5t95 5.5h56v28q0 28 -7.5 56t-23 50.5t-40.5 36.5t-61 14q-23 0 -40.5 -4t-30 -9.5t-21 -9.5t-12.5 -4q-8 0 -13 7.5t-5 12.5q0 7 11 14.5t28.5 13.5t39.5 10
t45 4zM324 223h-55q-39 0 -74.5 -3t-63.5 -13t-44.5 -29t-16.5 -52q0 -51 29.5 -74t73.5 -23q28 0 55 11t48.5 27.5t34.5 36t13 35.5v84z" />
    <glyph glyph-name="ae" unicode="&#xe6;" horiz-adv-x="719" 
d="M192 479q63 0 99 -28.5t52 -72.5q22 43 63.5 71.5t94.5 28.5q28 0 59.5 -10t57.5 -33t43.5 -60t17.5 -91q0 -19 -3 -31t-12 -18.5t-25.5 -9t-42.5 -2.5h-235v-47q0 -34 12.5 -61.5t34.5 -46.5t52.5 -29t65.5 -10q30 0 50 6.5t33.5 14t21.5 14t15 6.5q5 0 11.5 -5t6.5 -13
q0 -11 -14.5 -21.5t-36.5 -18.5t-48.5 -13t-50.5 -5q-55 0 -102.5 26.5t-70.5 77.5q-15 -29 -35.5 -49t-43 -32t-46 -17.5t-45.5 -5.5q-27 0 -52 8t-43.5 24t-29.5 41t-11 58q0 40 16.5 66t47 41t73 20.5t94.5 5.5h56v29q0 28 -7 56.5t-23 50.5t-42 36t-63 14q-21 0 -38 -4
t-30 -9.5t-21.5 -9.5t-12.5 -4q-7 0 -12 7.5t-5 12.5q0 7 11 14.5t28.5 13.5t39.5 10t45 4zM584 258q20 0 32 1.5t18 5.5t8 11t2 17q0 28 -10 55t-28.5 48t-45 34t-58.5 13q-30 0 -56 -11.5t-45 -31t-29.5 -45t-10.5 -53.5v-44h223zM322 223h-55q-40 0 -75.5 -3t-62.5 -13
t-43 -30t-16 -53q0 -48 29.5 -71.5t72.5 -23.5q31 0 58.5 11.5t47.5 28t32 36t12 34.5v84z" />
    <glyph glyph-name="aeacute" unicode="&#x1fd;" horiz-adv-x="719" 
d="M192 479q63 0 99 -28.5t52 -72.5q22 43 63.5 71.5t94.5 28.5q28 0 59.5 -10t57.5 -33t43.5 -60t17.5 -91q0 -19 -3 -31t-12 -18.5t-25.5 -9t-42.5 -2.5h-235v-47q0 -34 12.5 -61.5t34.5 -46.5t52.5 -29t65.5 -10q30 0 50 6.5t33.5 14t21.5 14t15 6.5q5 0 11.5 -5t6.5 -13
q0 -11 -14.5 -21.5t-36.5 -18.5t-48.5 -13t-50.5 -5q-55 0 -102.5 26.5t-70.5 77.5q-15 -29 -35.5 -49t-43 -32t-46 -17.5t-45.5 -5.5q-27 0 -52 8t-43.5 24t-29.5 41t-11 58q0 40 16.5 66t47 41t73 20.5t94.5 5.5h56v29q0 28 -7 56.5t-23 50.5t-42 36t-63 14q-21 0 -38 -4
t-30 -9.5t-21.5 -9.5t-12.5 -4q-7 0 -12 7.5t-5 12.5q0 7 11 14.5t28.5 13.5t39.5 10t45 4zM584 258q20 0 32 1.5t18 5.5t8 11t2 17q0 28 -10 55t-28.5 48t-45 34t-58.5 13q-30 0 -56 -11.5t-45 -31t-29.5 -45t-10.5 -53.5v-44h223zM322 223h-55q-40 0 -75.5 -3t-62.5 -13
t-43 -30t-16 -53q0 -48 29.5 -71.5t72.5 -23.5q31 0 58.5 11.5t47.5 28t32 36t12 34.5v84zM321 604q-5 -3 -9 -3q-8 0 -13.5 5t-5.5 13q0 9 8 13l102 60q4 2 7 2q8 0 12 -5.5t4 -12.5q0 -12 -10 -18z" />
    <glyph glyph-name="agrave" unicode="&#xe0;" horiz-adv-x="423" 
d="M140 658q-10 6 -10 18q0 7 4 12.5t12 5.5q3 0 7 -2l102 -60q8 -4 8 -13q0 -8 -5.5 -13t-13.5 -5q-5 0 -9 3zM194 478q46 0 77.5 -16t51 -43t28 -61.5t8.5 -71.5v-268q0 -8 -4.5 -13t-12.5 -5t-13 5t-5 13v52q-26 -29 -63 -52.5t-87 -23.5q-29 0 -54.5 8t-44.5 24.5
t-29.5 41t-10.5 58.5q0 40 17 65.5t47.5 40.5t73.5 20.5t95 5.5h56v28q0 28 -7.5 56t-23 50.5t-40.5 36.5t-61 14q-23 0 -40.5 -4t-30 -9.5t-21 -9.5t-12.5 -4q-8 0 -13 7.5t-5 12.5q0 7 11 14.5t28.5 13.5t39.5 10t45 4zM324 223h-55q-39 0 -74.5 -3t-63.5 -13t-44.5 -29
t-16.5 -52q0 -51 29.5 -74t73.5 -23q28 0 55 11t48.5 27.5t34.5 36t13 35.5v84z" />
    <glyph glyph-name="amacron" unicode="&#x101;" horiz-adv-x="423" 
d="M79 664q0 8 4.5 13t12.5 5h220q7 0 12.5 -5t5.5 -13t-5.5 -12.5t-12.5 -4.5h-220q-17 0 -17 17zM194 478q46 0 77.5 -16t51 -43t28 -61.5t8.5 -71.5v-268q0 -8 -4.5 -13t-12.5 -5t-13 5t-5 13v52q-26 -29 -63 -52.5t-87 -23.5q-29 0 -54.5 8t-44.5 24.5t-29.5 41
t-10.5 58.5q0 40 17 65.5t47.5 40.5t73.5 20.5t95 5.5h56v28q0 28 -7.5 56t-23 50.5t-40.5 36.5t-61 14q-23 0 -40.5 -4t-30 -9.5t-21 -9.5t-12.5 -4q-8 0 -13 7.5t-5 12.5q0 7 11 14.5t28.5 13.5t39.5 10t45 4zM324 223h-55q-39 0 -74.5 -3t-63.5 -13t-44.5 -29t-16.5 -52
q0 -51 29.5 -74t73.5 -23q28 0 55 11t48.5 27.5t34.5 36t13 35.5v84z" />
    <glyph glyph-name="ampersand" unicode="&#x26;" horiz-adv-x="595" 
d="M263 748q39 0 67 -11t46 -25t26.5 -29t8.5 -22q0 -16 -17 -16q-7 0 -14 11t-20 24.5t-35 24.5t-58 11q-61 0 -95 -37.5t-34 -98.5q0 -28 7 -51.5t19 -45.5t28.5 -42t34.5 -40l223 -247q12 27 19 55t11.5 55t6.5 51.5t2 43.5q0 12 4 16.5t13 4.5q15 0 15 -23
q0 -14 -1.5 -39t-6 -56.5t-14 -66.5t-25.5 -68l97 -106q5 -7 5 -11q0 -7 -5 -11.5t-11 -4.5t-12 6l-90 97q-29 -46 -77 -76.5t-121 -30.5q-53 0 -94 17t-68.5 45.5t-42 66.5t-14.5 80q0 40 12.5 72t32.5 56.5t45 41.5t51 28q-15 18 -30.5 38t-28 43t-20 49t-7.5 56
q0 40 13.5 70.5t36.5 51.5t53 32t64 11zM266 25q64 0 104 27.5t64 69.5l-231 249q-19 -10 -41 -23.5t-40.5 -33.5t-31 -47t-12.5 -64q0 -35 12.5 -67t36.5 -57t59 -39.5t80 -14.5z" />
    <glyph glyph-name="aogonek" unicode="&#x105;" horiz-adv-x="423" 
d="M194 478q46 0 77.5 -16t51 -43t28 -61.5t8.5 -71.5v-268q0 -11 -9 -16q-30 -29 -51 -59t-21 -69q0 -25 17 -34t46 -9q8 0 13 -2.5t5 -10.5q0 -13 -23 -13q-14 0 -29 3t-28 10.5t-21.5 20.5t-8.5 33q0 44 21 79t54 67v52q-26 -29 -63 -52.5t-87 -23.5q-29 0 -54.5 8
t-44.5 24.5t-29.5 41t-10.5 58.5q0 40 17 65.5t47.5 40.5t73.5 20.5t95 5.5h56v28q0 28 -7.5 56t-23 50.5t-40.5 36.5t-61 14q-23 0 -40.5 -4t-30 -9.5t-21 -9.5t-12.5 -4q-8 0 -13 7.5t-5 12.5q0 7 11 14.5t28.5 13.5t39.5 10t45 4zM324 223h-55q-39 0 -74.5 -3t-63.5 -13
t-44.5 -29t-16.5 -52q0 -51 29.5 -74t73.5 -23q28 0 55 11t48.5 27.5t34.5 36t13 35.5v84z" />
    <glyph glyph-name="approxequal" unicode="&#x2248;" horiz-adv-x="441" 
d="M289 174q17 0 27 5t16.5 11t11 11t10.5 5q5 0 9.5 -4t4.5 -11q0 -12 -8.5 -21t-21.5 -16t-27.5 -10.5t-26.5 -3.5q-18 0 -32.5 6t-29 12.5t-30.5 12.5t-37 6q-16 0 -27 -5.5t-18.5 -12t-13 -12t-10.5 -5.5q-13 0 -13 17q0 10 9 19t22 16.5t28.5 12t29.5 4.5q18 0 33 -6
t29.5 -12.5t30 -12.5t34.5 -6zM289 375q17 0 27 5t16.5 11t11 11t10.5 5q5 0 9.5 -4t4.5 -11q0 -12 -8.5 -21t-21.5 -16t-27.5 -10.5t-26.5 -3.5q-18 0 -32.5 6t-29 12.5t-30.5 12.5t-37 6q-16 0 -27 -5.5t-18.5 -12t-13 -12t-10.5 -5.5q-13 0 -13 17q0 10 9 19t22 16.5
t28.5 12t29.5 4.5q18 0 33 -6t29.5 -12.5t30 -12.5t34.5 -6z" />
    <glyph glyph-name="aring" unicode="&#xe5;" horiz-adv-x="423" 
d="M197 768q18 0 34 -7.5t28.5 -20t20 -29t7.5 -34.5t-7.5 -35t-20 -30t-28.5 -20.5t-34 -7.5q-19 0 -35.5 7.5t-28.5 20.5t-19 30t-7 35t7 34t19 29t28.5 20.5t35.5 7.5zM262 677q0 12 -5 23.5t-14 20.5t-21 15t-25 6q-14 0 -26 -6t-21 -15t-14 -20.5t-5 -23.5
q0 -13 5 -25.5t14 -22.5t21 -16t26 -6q13 0 25 6t21 16t14 22.5t5 25.5zM194 478q46 0 77.5 -16t51 -43t28 -61.5t8.5 -71.5v-268q0 -8 -4.5 -13t-12.5 -5t-13 5t-5 13v52q-26 -29 -63 -52.5t-87 -23.5q-29 0 -54.5 8t-44.5 24.5t-29.5 41t-10.5 58.5q0 40 17 65.5
t47.5 40.5t73.5 20.5t95 5.5h56v28q0 28 -7.5 56t-23 50.5t-40.5 36.5t-61 14q-23 0 -40.5 -4t-30 -9.5t-21 -9.5t-12.5 -4q-8 0 -13 7.5t-5 12.5q0 7 11 14.5t28.5 13.5t39.5 10t45 4zM324 223h-55q-39 0 -74.5 -3t-63.5 -13t-44.5 -29t-16.5 -52q0 -51 29.5 -74t73.5 -23
q28 0 55 11t48.5 27.5t34.5 36t13 35.5v84z" />
    <glyph glyph-name="arrowdown" unicode="&#x2193;" horiz-adv-x="771" 
d="M167 179q8 0 12 -5l189 -190v555q0 17 17 17q8 0 13 -4.5t5 -12.5v-555l189 190q5 5 12 5q8 0 13 -5t5 -12q0 -6 -5 -13l-214 -215q-9 -9 -18 -9q-8 0 -17 9l-214 215q-5 5 -5 13t5.5 12.5t12.5 4.5z" />
    <glyph glyph-name="arrowleft" unicode="&#x2190;" horiz-adv-x="771" 
d="M324 22q0 -7 -4.5 -12.5t-12.5 -5.5t-13 5l-215 214q-9 9 -9 17q0 9 9 18l215 214q7 5 13 5q7 0 12 -5t5 -13q0 -7 -5 -12l-190 -189h555q8 0 12.5 -5t4.5 -13q0 -17 -17 -17h-555l190 -189q5 -4 5 -12z" />
    <glyph glyph-name="arrowright" unicode="&#x2192;" horiz-adv-x="771" 
d="M447 22q0 8 5 12l190 189h-555q-17 0 -17 17q0 8 4.5 13t12.5 5h555l-190 189q-5 5 -5 12q0 8 5 13t12 5q6 0 13 -5l215 -214q9 -9 9 -18q0 -8 -9 -17l-215 -214q-5 -5 -13 -5t-12.5 5.5t-4.5 12.5z" />
    <glyph glyph-name="arrowup" unicode="&#x2191;" horiz-adv-x="771" 
d="M167 302q-7 0 -12.5 4.5t-5.5 12.5t5 13l214 215q9 9 17 9q9 0 18 -9l214 -215q5 -7 5 -13q0 -7 -5 -12t-13 -5q-7 0 -12 5l-189 190v-555q0 -8 -5 -12.5t-13 -4.5q-17 0 -17 17v555l-189 -190q-4 -5 -12 -5z" />
    <glyph glyph-name="asciicircum" unicode="^" horiz-adv-x="260" 
d="M26 603l-4 -2t-4 -1q-7 0 -12.5 5.5t-5.5 13.5q0 9 9 14l104 56q8 5 17 5t17 -5l104 -55q9 -5 9 -17q0 -7 -5 -11.5t-12 -4.5q-2 0 -4.5 1t-4.5 2l-104 55z" />
    <glyph glyph-name="asciitilde" unicode="~" horiz-adv-x="400" 
d="M269 257q17 0 27 5t16.5 11t11 11t10.5 5q5 0 9.5 -4t4.5 -11q0 -12 -8.5 -21t-21.5 -16t-27.5 -10.5t-26.5 -3.5q-18 0 -32.5 6t-29 12.5t-30.5 12.5t-37 6q-16 0 -27 -5.5t-18.5 -12t-13 -12t-10.5 -5.5q-13 0 -13 17q0 10 9 19t22 16.5t28.5 12t29.5 4.5q18 0 33 -6
t29.5 -12.5t30 -12.5t34.5 -6z" />
    <glyph glyph-name="asterisk" unicode="*" horiz-adv-x="416" 
d="M317 435q3 -5 3 -9q0 -8 -6 -13.5t-14 -5.5q-7 0 -13 7l-79 115l-80 -116q-5 -6 -11 -6t-13.5 5t-7.5 13q0 6 4 11l84 110l-134 40q-11 3 -11 16q0 8 5 14t13 6q3 0 5 -1l133 -47l-5 140q0 8 5.5 12.5t12.5 4.5t12.5 -4.5t5.5 -12.5l-5 -141l133 48q2 1 6 1q7 0 12 -6.5
t5 -13.5q0 -13 -12 -16l-133 -39z" />
    <glyph glyph-name="at" unicode="@" horiz-adv-x="707" 
d="M236 374q0 9 11 16t28 12.5t38.5 8.5t41.5 3q66 0 99.5 -32.5t33.5 -92.5v-164q2 -21 22 -36t43 -15q22 0 36 15t22 38t11 51t3 55q0 66 -16 118t-49 88.5t-83 56t-117 19.5q-75 0 -125.5 -24.5t-81.5 -65.5t-44.5 -94t-13.5 -110q0 -53 12 -102.5t39.5 -88t72.5 -62
t110 -23.5q34 0 58.5 5t42 11.5t28 11.5t17.5 5q6 0 10.5 -4.5t4.5 -9.5q0 -8 -14 -17.5t-37 -17.5t-52.5 -13.5t-60.5 -5.5q-51 0 -99 18t-85 55.5t-59 96.5t-22 140q0 68 16.5 128.5t53 105.5t94 71.5t138.5 26.5q144 0 220 -80t76 -238q0 -36 -5 -71t-17 -62t-33 -43.5
t-53 -16.5q-35 0 -61 19t-33 42q-26 -25 -51.5 -37.5t-69.5 -12.5q-27 0 -50 5.5t-40 17.5t-26.5 32.5t-9.5 50.5q0 34 13 55t38 33t61 16.5t82 4.5h49v21q0 47 -25.5 69t-81.5 22q-25 0 -40.5 -3.5t-25 -8t-15.5 -8t-12 -3.5q-8 0 -12.5 6.5t-4.5 11.5zM453 233h-48
q-34 0 -63 -2t-50.5 -9.5t-34 -22.5t-12.5 -42q0 -39 25.5 -55.5t63.5 -16.5q29 0 51.5 7.5t37.5 19.5t22.5 26.5t7.5 27.5v67z" />
    <glyph glyph-name="atilde" unicode="&#xe3;" horiz-adv-x="423" 
d="M265 653q17 0 27 5t16.5 11t11 11t10.5 5q5 0 9.5 -4t4.5 -11q0 -12 -8.5 -21t-21.5 -16t-27.5 -10.5t-26.5 -3.5q-18 0 -32.5 6t-29 12.5t-30.5 12.5t-37 6q-16 0 -27 -5.5t-18.5 -12t-13 -12t-10.5 -5.5q-13 0 -13 17q0 10 9 19t22 16.5t28.5 12t29.5 4.5q18 0 33 -6
t29.5 -12.5t30 -12.5t34.5 -6zM194 478q46 0 77.5 -16t51 -43t28 -61.5t8.5 -71.5v-268q0 -8 -4.5 -13t-12.5 -5t-13 5t-5 13v52q-26 -29 -63 -52.5t-87 -23.5q-29 0 -54.5 8t-44.5 24.5t-29.5 41t-10.5 58.5q0 40 17 65.5t47.5 40.5t73.5 20.5t95 5.5h56v28q0 28 -7.5 56
t-23 50.5t-40.5 36.5t-61 14q-23 0 -40.5 -4t-30 -9.5t-21 -9.5t-12.5 -4q-8 0 -13 7.5t-5 12.5q0 7 11 14.5t28.5 13.5t39.5 10t45 4zM324 223h-55q-39 0 -74.5 -3t-63.5 -13t-44.5 -29t-16.5 -52q0 -51 29.5 -74t73.5 -23q28 0 55 11t48.5 27.5t34.5 36t13 35.5v84z" />
    <glyph glyph-name="b" unicode="b" horiz-adv-x="468" 
d="M86 768q8 0 13 -4.5t5 -12.5v-349q17 29 50 52.5t84 23.5q37 0 69.5 -14t57 -38.5t39 -57.5t14.5 -70v-122q0 -36 -14.5 -68.5t-39 -58t-56.5 -40.5t-68 -15q-46 0 -82.5 22.5t-53.5 53.5v-52q0 -7 -5 -12.5t-13 -5.5t-12.5 5.5t-4.5 12.5v733q0 17 17 17zM383 298
q0 27 -11 53.5t-30.5 46.5t-45.5 32.5t-55 12.5q-26 0 -50.5 -10t-43.5 -28.5t-31 -45.5t-12 -61v-159q0 -13 10.5 -31.5t29 -36t43.5 -30t55 -12.5q28 0 54 12.5t45 33t30.5 47t11.5 54.5v122z" />
    <glyph glyph-name="b.ss02" horiz-adv-x="466" 
d="M83 768q8 0 13 -4.5t5 -12.5v-349q17 29 50 52.5t84 23.5q37 0 69.5 -14t57 -38.5t39 -57.5t14.5 -70v-122q0 -29 -9.5 -61t-31 -59t-56 -44.5t-84.5 -17.5q-30 0 -60 8t-54 26t-39 47t-15 71v606q0 16 17 16zM380 298q0 27 -11 53.5t-30.5 46.5t-45.5 32.5t-55 12.5
q-26 0 -50.5 -10t-43.5 -28.5t-31 -45.5t-12 -61v-143q0 -33 10.5 -56.5t29 -39t43.5 -23t53 -7.5q43 0 71 15.5t44 38t22 48t6 45.5v122z" />
    <glyph glyph-name="backslash" unicode="\" horiz-adv-x="340" 
d="M29 727q-1 3 -1 8q0 9 5.5 14t12.5 5q11 0 14 -9l252 -724q1 -2 1 -6q0 -7 -5 -11t-12 -4q-13 0 -17 12z" />
    <glyph glyph-name="bar" unicode="|" horiz-adv-x="184" 
d="M92 -21q-8 0 -13 5t-5 12v755q0 7 5 12t13 5q7 0 12.5 -5t5.5 -12v-755q0 -7 -5.5 -12t-12.5 -5z" />
    <glyph glyph-name="braceleft" unicode="{" horiz-adv-x="285" 
d="M34 384q0 12 9.5 15t20.5 4.5t20.5 4t9.5 14.5q0 7 -3.5 32.5t-7 55.5t-7 58t-3.5 39q0 32 13.5 61.5t37.5 51.5t56 35t68 13q7 0 12 -5t5 -12q0 -8 -5 -13t-12 -5q-31 0 -56.5 -11t-44 -29t-28.5 -41.5t-10 -47.5q0 -12 3.5 -39t7 -56.5t7 -54.5t3.5 -32
q0 -17 -12.5 -26.5t-21.5 -11.5q9 -3 21.5 -12t12.5 -25q0 -9 -3.5 -39t-7 -65.5t-7 -68.5t-3.5 -47q0 -33 15.5 -54.5t37 -34.5t45.5 -18t41 -5q10 0 13.5 -6t3.5 -11q0 -8 -5.5 -13t-11.5 -5q-37 0 -69 11t-55.5 30.5t-37 47t-13.5 60.5q0 8 1.5 26t4 41t5 47.5t5 46t4 37
t1.5 20.5q0 12 -9.5 14.5t-20.5 3.5t-20.5 4t-9.5 15z" />
    <glyph glyph-name="braceright" unicode="}" horiz-adv-x="285" 
d="M251 384q0 -12 -9.5 -15t-20.5 -4t-20.5 -3.5t-9.5 -14.5q0 -5 1.5 -20.5t4 -37t5 -46t5 -47.5t4 -41t1.5 -26q0 -33 -13.5 -60.5t-37 -47t-55.5 -30.5t-69 -11q-6 0 -11.5 5t-5.5 13q0 5 3.5 11t13.5 6q17 0 41 5t45.5 18t37 34.5t15.5 54.5q0 14 -3.5 47t-7 68.5
t-7 65.5t-3.5 39q0 16 12 25t22 12q-10 2 -22 11.5t-12 26.5q0 7 3.5 32t7 54.5t7 56.5t3.5 39q0 24 -10 47.5t-28.5 41.5t-44 29t-56.5 11q-7 0 -12 5t-5 13q0 7 5 12t12 5q36 0 68 -13t56 -35t37.5 -51.5t13.5 -61.5q0 -11 -3.5 -39t-7 -58t-7 -55.5t-3.5 -32.5
q0 -12 9.5 -14.5t20.5 -4t20.5 -4.5t9.5 -15z" />
    <glyph glyph-name="bracketleft" unicode="[" horiz-adv-x="285" 
d="M92 -21q-7 0 -12.5 4.5t-5.5 12.5v755q0 7 5 12t13 5h156q7 0 12 -5t5 -12q0 -8 -5 -13t-12 -5h-138v-719h138q7 0 12 -5t5 -13q0 -7 -5 -12t-12 -5h-156z" />
    <glyph glyph-name="bracketright" unicode="]" horiz-adv-x="285" 
d="M37 -21q-7 0 -12 5t-5 12q0 8 5 13t12 5h138v719h-138q-7 0 -12 5t-5 13q0 7 5 12t12 5h156q8 0 13 -5t5 -12v-755q0 -8 -5.5 -12.5t-12.5 -4.5h-156z" />
    <glyph glyph-name="breve" unicode="&#x2d8;" horiz-adv-x="218" 
d="M218 710q0 -22 -9 -42t-24 -35t-35 -23.5t-41 -8.5q-22 0 -41.5 8.5t-34.5 23.5t-24 35t-9 42h32q0 -35 22.5 -59t54.5 -24q31 0 53.5 24t22.5 59h33z" />
    <glyph glyph-name="brokenbar" unicode="&#xa6;" horiz-adv-x="186" 
d="M93 -21q-8 0 -13 5t-5 12v282q0 7 5 12t13 5q7 0 12.5 -5t5.5 -12v-282q0 -7 -5.5 -12t-12.5 -5zM93 452q-8 0 -13 5t-5 12v282q0 7 5 12t13 5q7 0 12.5 -5t5.5 -12v-282q0 -7 -5.5 -12t-12.5 -5z" />
    <glyph glyph-name="bullet" unicode="&#x2022;" horiz-adv-x="304" 
d="M152 393q19 0 36.5 -7.5t30.5 -20.5t20.5 -30t7.5 -35q0 -19 -7.5 -36t-20.5 -30t-30.5 -20.5t-36.5 -7.5q-20 0 -37 7.5t-30.5 20.5t-21 30t-7.5 36q0 18 7.5 35t21 30t30.5 20.5t37 7.5z" />
    <glyph glyph-name="c" unicode="c" horiz-adv-x="402" 
d="M235 -6q-47 0 -81 14t-57 38t-34 57.5t-11 72.5v120q0 38 11 71.5t33.5 58t57 38.5t81.5 14q30 0 54 -6.5t41.5 -15.5t26.5 -19t9 -18q0 -7 -5.5 -12t-12.5 -5q-6 0 -13.5 6.5t-19.5 14t-31 14t-49 6.5q-72 0 -110 -39t-38 -108v-120q0 -69 37.5 -108t111.5 -39
q31 0 51 6.5t33 14t20.5 14t14.5 6.5t12 -5t5 -12q0 -8 -9.5 -18t-27 -19t-43 -15.5t-57.5 -6.5z" />
    <glyph glyph-name="cacute" unicode="&#x107;" horiz-adv-x="402" 
d="M235 -6q-47 0 -81 14t-57 38t-34 57.5t-11 72.5v120q0 38 11 71.5t33.5 58t57 38.5t81.5 14q30 0 54 -6.5t41.5 -15.5t26.5 -19t9 -18q0 -7 -5.5 -12t-12.5 -5q-6 0 -13.5 6.5t-19.5 14t-31 14t-49 6.5q-72 0 -110 -39t-38 -108v-120q0 -69 37.5 -108t111.5 -39
q31 0 51 6.5t33 14t20.5 14t14.5 6.5t12 -5t5 -12q0 -8 -9.5 -18t-27 -19t-43 -15.5t-57.5 -6.5zM173 604q-5 -3 -9 -3q-8 0 -13.5 5t-5.5 13q0 9 8 13l102 60q4 2 7 2q8 0 12 -5.5t4 -12.5q0 -12 -10 -18z" />
    <glyph glyph-name="caron" unicode="&#x2c7;" horiz-adv-x="280" 
d="M161 599q-11 -11 -21 -11q-12 0 -21 11l-100 101q-8 10 -8 16q0 5 4 10t11 5q9 0 16 -8l98 -103l98 103q7 8 16 8q7 0 11 -5t4 -10q0 -6 -8 -16z" />
    <glyph glyph-name="caron.alt" horiz-adv-x="71" 
d="M36 741q14 0 24.5 -10.5t10.5 -25.5q0 -6 -3 -17.5t-7.5 -25t-10.5 -28t-12 -26.5q-5 -10 -14 -10q-6 0 -11 4t-5 11q0 4 1 6l18 51q-12 3 -19.5 13t-7.5 22q0 15 10 25.5t26 10.5z" />
    <glyph glyph-name="ccaron" unicode="&#x10d;" horiz-adv-x="402" 
d="M235 -6q-47 0 -81 14t-57 38t-34 57.5t-11 72.5v120q0 38 11 71.5t33.5 58t57 38.5t81.5 14q30 0 54 -6.5t41.5 -15.5t26.5 -19t9 -18q0 -7 -5.5 -12t-12.5 -5q-6 0 -13.5 6.5t-19.5 14t-31 14t-49 6.5q-72 0 -110 -39t-38 -108v-120q0 -69 37.5 -108t111.5 -39
q31 0 51 6.5t33 14t20.5 14t14.5 6.5t12 -5t5 -12q0 -8 -9.5 -18t-27 -19t-43 -15.5t-57.5 -6.5zM232 599q-11 -11 -21 -11q-12 0 -21 11l-100 101q-8 10 -8 16q0 5 4 10t11 5q9 0 16 -8l98 -103l98 103q7 8 16 8q7 0 11 -5t4 -10q0 -6 -8 -16z" />
    <glyph glyph-name="ccedilla" unicode="&#xe7;" horiz-adv-x="402" 
d="M372 53q0 -8 -8.5 -17t-24 -18t-38.5 -15.5t-52 -7.5l-14 -60q51 -2 72.5 -23t21.5 -47q0 -28 -21.5 -50t-60.5 -22q-9 0 -21.5 1.5t-24 4.5t-20 7.5t-8.5 10.5q0 5 3.5 11.5t8.5 6.5t18 -6.5t38 -6.5q32 0 43.5 12.5t11.5 28.5q0 23 -19 33t-51 12l-29 2l20 85
q-42 2 -73 17t-51.5 39t-30.5 56t-10 69v120q0 38 11 71.5t33.5 58t57 38.5t81.5 14q30 0 54 -6.5t41.5 -15.5t26.5 -19t9 -18q0 -7 -5.5 -12t-12.5 -5q-6 0 -13.5 6.5t-19.5 14t-31 14t-49 6.5q-72 0 -110 -39t-38 -108v-120q0 -69 37.5 -108t111.5 -39q31 0 51 6.5t33 14
t20.5 14t14.5 6.5t12 -5t5 -12z" />
    <glyph glyph-name="ccircumflex" unicode="&#x109;" horiz-adv-x="402" 
d="M235 -6q-47 0 -81 14t-57 38t-34 57.5t-11 72.5v120q0 38 11 71.5t33.5 58t57 38.5t81.5 14q30 0 54 -6.5t41.5 -15.5t26.5 -19t9 -18q0 -7 -5.5 -12t-12.5 -5q-6 0 -13.5 6.5t-19.5 14t-31 14t-49 6.5q-72 0 -110 -39t-38 -108v-120q0 -69 37.5 -108t111.5 -39
q31 0 51 6.5t33 14t20.5 14t14.5 6.5t12 -5t5 -12q0 -8 -9.5 -18t-27 -19t-43 -15.5t-57.5 -6.5zM108 603l-4 -2t-4 -1q-7 0 -12.5 5.5t-5.5 13.5q0 9 9 14l104 56q8 5 17 5t17 -5l104 -55q9 -5 9 -17q0 -7 -5 -11.5t-12 -4.5q-2 0 -4.5 1t-4.5 2l-104 55z" />
    <glyph glyph-name="cdotaccent" unicode="&#x10b;" horiz-adv-x="402" 
d="M235 -6q-47 0 -81 14t-57 38t-34 57.5t-11 72.5v120q0 38 11 71.5t33.5 58t57 38.5t81.5 14q30 0 54 -6.5t41.5 -15.5t26.5 -19t9 -18q0 -7 -5.5 -12t-12.5 -5q-6 0 -13.5 6.5t-19.5 14t-31 14t-49 6.5q-72 0 -110 -39t-38 -108v-120q0 -69 37.5 -108t111.5 -39
q31 0 51 6.5t33 14t20.5 14t14.5 6.5t12 -5t5 -12q0 -8 -9.5 -18t-27 -19t-43 -15.5t-57.5 -6.5zM212 659q13 0 21 -8t8 -21t-8 -21.5t-21 -8.5q-14 0 -22 8.5t-8 21.5t8 21t22 8z" />
    <glyph glyph-name="cedilla" unicode="&#xb8;" horiz-adv-x="156" 
d="M62 -65q51 -2 72.5 -23t21.5 -47q0 -28 -21.5 -50t-60.5 -22q-9 0 -21.5 1.5t-24 4.5t-20 7.5t-8.5 10.5q0 5 3.5 11.5t8.5 6.5t18 -6.5t38 -6.5q32 0 43.5 12.5t11.5 28.5q0 23 -19 33t-51 12l-29 2l24 99h32z" />
    <glyph glyph-name="cent" unicode="&#xa2;" horiz-adv-x="406" 
d="M201 40q-8 0 -13 5t-5 12v120q-71 11 -106.5 60.5t-35.5 118.5v20q0 34 8.5 64t26 53.5t44 39.5t63.5 22v122q0 7 5 12t13 5q7 0 12.5 -5t5.5 -12v-119q28 0 54 -5t45.5 -13t31 -18.5t11.5 -21.5q0 -8 -6 -13t-13 -5t-14.5 6.5t-20.5 14t-34 14t-54 6.5v-314q33 0 54 6.5
t34 14t20.5 14t14.5 6.5t13 -5t6 -13q0 -12 -12.5 -22.5t-32.5 -18.5t-45.5 -12.5t-51.5 -4.5v-117q0 -7 -5.5 -12t-12.5 -5zM76 356q0 -58 26.5 -95t80.5 -48v306q-54 -11 -80.5 -48.5t-26.5 -94.5v-20z" />
    <glyph glyph-name="circumflex" unicode="&#x2c6;" horiz-adv-x="260" 
d="M26 603l-4 -2t-4 -1q-7 0 -12.5 5.5t-5.5 13.5q0 9 9 14l104 56q8 5 17 5t17 -5l104 -55q9 -5 9 -17q0 -7 -5 -11.5t-12 -4.5q-2 0 -4.5 1t-4.5 2l-104 55z" />
    <glyph glyph-name="colon" unicode=":" horiz-adv-x="193" 
d="M97 66q14 0 24.5 -10.5t10.5 -25.5q0 -14 -10.5 -25t-24.5 -11q-16 0 -26 11t-10 25q0 15 10 25.5t26 10.5zM97 422q14 0 24.5 -10.5t10.5 -25.5q0 -14 -10.5 -25t-24.5 -11q-16 0 -26 11t-10 25q0 15 10 25.5t26 10.5z" />
    <glyph glyph-name="comma" unicode="," horiz-adv-x="162" 
d="M80 66q13 0 24.5 -9t11.5 -28q0 -2 -0.5 -6.5t-3.5 -14.5t-9.5 -27.5t-17.5 -46.5q-5 -11 -16 -11q-6 0 -11 3.5t-5 9.5q0 5 1 8l18 51q-12 3 -19.5 13t-7.5 22q0 15 10 25.5t25 10.5z" />
    <glyph glyph-name="commaaccent" unicode="&#xf6c3;" horiz-adv-x="205" 
d="M56 -138q-5 -3 -9 -3q-8 0 -13.5 5t-5.5 13q0 9 8 13l102 60q4 2 7 2q8 0 12 -5.5t4 -12.5q0 -12 -10 -18z" />
    <glyph glyph-name="copyright" unicode="&#xa9;" horiz-adv-x="728" 
d="M57 358q0 84 29 145.5t74 102t100 60t107 19.5q53 0 107 -20t98 -60t71.5 -101t27.5 -142q0 -84 -29 -145.5t-74 -102t-100 -60t-107 -19.5q-53 0 -107 20t-98 60t-71.5 101t-27.5 142zM636 362q0 63 -19.5 115.5t-54.5 91t-85 60t-110 21.5t-110 -21.5t-87 -60
t-57.5 -92t-20.5 -118.5q0 -63 19.5 -115.5t54.5 -91t85 -60t110 -21.5t110 21.5t87 60t57.5 92t20.5 118.5zM427 467q0 9 -2.5 20t-9 21t-18.5 17t-31 7q-30 0 -46.5 -20t-16.5 -62v-167q0 -82 64 -82q19 0 30.5 7t17.5 17t8.5 21.5t3.5 21.5q2 14 18 14q10 0 14 -4.5
t4 -17.5q0 -38 -26 -65t-73 -27q-40 0 -68.5 26t-28.5 89v167q0 63 29 89.5t69 26.5q47 0 72.5 -27t25.5 -64q0 -14 -4 -18t-14 -4q-18 0 -18 14z" />
    <glyph glyph-name="currency" unicode="&#xa4;" horiz-adv-x="489" 
d="M246 652q31 0 59 -10.5t51 -29.5l28 28q5 5 13 5q7 0 12 -5t5 -12q0 -8 -5 -13l-28 -28q20 -23 31.5 -52.5t11.5 -62.5q0 -32 -12 -61.5t-32 -53.5l29 -29q5 -7 5 -12q0 -6 -5 -11.5t-12 -5.5q-8 0 -12 5l-29 28q-23 -20 -51 -31t-59 -11q-33 0 -62.5 12.5t-53.5 34.5
l-33 -33q-5 -5 -12 -5t-12 5t-5 12t5 12l34 34q-18 23 -28 51t-10 59q0 30 10 58t27 51l-26 27q-5 5 -5 13t5.5 12.5t12.5 4.5t12 -5l25 -26q23 21 53 33t63 12zM386 472q0 27 -11 52.5t-30 45.5t-44.5 32t-54.5 12t-54.5 -12t-44.5 -32t-29.5 -45.5t-10.5 -52.5
q0 -28 11 -54t29.5 -46t44 -32t54.5 -12t54.5 12t44.5 32t30 46t11 54z" />
    <glyph glyph-name="d" unicode="d" horiz-adv-x="468" 
d="M382 768q17 0 17 -17v-733q0 -7 -4.5 -12.5t-12.5 -5.5t-13 5.5t-5 12.5v52q-17 -31 -53.5 -53.5t-82.5 -22.5q-36 0 -68 15t-56.5 40.5t-39 58t-14.5 68.5v122q0 37 14.5 70t39 57.5t57 38.5t69.5 14q51 0 84 -23.5t50 -52.5v349q0 8 5 12.5t13 4.5zM85 176
q0 -28 11.5 -54.5t30.5 -47t44.5 -33t54.5 -12.5q30 0 55 12.5t43.5 30t29 36t10.5 31.5v159q0 34 -12 61t-31 45.5t-44 28.5t-50 10q-29 0 -55 -12.5t-45.5 -32.5t-30.5 -46.5t-11 -53.5v-122z" />
    <glyph glyph-name="dagger" unicode="&#x2020;" horiz-adv-x="403" 
d="M24 454q0 8 4.5 13t12.5 5l142 -6v248q0 7 5 12t13 5q7 0 12.5 -5t5.5 -12v-248l142 6q7 0 12.5 -5t5.5 -13t-5.5 -12.5t-12.5 -4.5l-142 6v-447q0 -7 -5.5 -12t-12.5 -5q-8 0 -13 5t-5 12v447l-142 -6q-17 0 -17 17z" />
    <glyph glyph-name="daggerdbl" unicode="&#x2021;" horiz-adv-x="437" 
d="M41 454q0 8 4.5 13t12.5 5l142 -6v248q0 7 5 12t13 5q7 0 12.5 -5t5.5 -12v-248l142 6q7 0 12.5 -5t5.5 -13t-5.5 -12.5t-12.5 -4.5l-142 6v-191l142 6q7 0 12.5 -4.5t5.5 -12.5t-5.5 -13t-12.5 -5l-142 6v-233q0 -7 -5.5 -12t-12.5 -5q-8 0 -13 5t-5 12v233l-142 -6
q-8 0 -12.5 5t-4.5 13q0 17 17 17l142 -6v191l-142 -6q-17 0 -17 17z" />
    <glyph glyph-name="dcaron" unicode="&#x10f;" horiz-adv-x="468" 
d="M382 768q17 0 17 -17v-733q0 -7 -4.5 -12.5t-12.5 -5.5t-13 5.5t-5 12.5v52q-17 -31 -53.5 -53.5t-82.5 -22.5q-36 0 -68 15t-56.5 40.5t-39 58t-14.5 68.5v122q0 37 14.5 70t39 57.5t57 38.5t69.5 14q51 0 84 -23.5t50 -52.5v349q0 8 5 12.5t13 4.5zM85 176
q0 -28 11.5 -54.5t30.5 -47t44.5 -33t54.5 -12.5q30 0 55 12.5t43.5 30t29 36t10.5 31.5v159q0 34 -12 61t-31 45.5t-44 28.5t-50 10q-29 0 -55 -12.5t-45.5 -32.5t-30.5 -46.5t-11 -53.5v-122zM498 741q14 0 24.5 -10.5t10.5 -25.5q0 -6 -3 -17.5t-7.5 -25t-10.5 -28
t-12 -26.5q-5 -10 -14 -10q-6 0 -11 4t-5 11q0 4 1 6l18 51q-12 3 -19.5 13t-7.5 22q0 15 10 25.5t26 10.5z" />
    <glyph glyph-name="dcroat" unicode="&#x111;" horiz-adv-x="468" 
d="M382 768q17 0 17 -17v-133h57q7 0 12.5 -5t5.5 -13t-5.5 -12.5t-12.5 -4.5h-57v-565q0 -7 -4.5 -12.5t-12.5 -5.5t-13 5.5t-5 12.5v52q-17 -31 -53.5 -53.5t-82.5 -22.5q-36 0 -68 15t-56.5 40.5t-39 58t-14.5 68.5v122q0 37 14.5 70t39 57.5t57 38.5t69.5 14
q51 0 84 -23.5t50 -52.5v181h-138q-17 0 -17 17q0 8 4.5 13t12.5 5h138v133q0 8 5 12.5t13 4.5zM85 176q0 -28 11.5 -54.5t30.5 -47t44.5 -33t54.5 -12.5q30 0 55 12.5t43.5 30t29 36t10.5 31.5v159q0 34 -12 61t-31 45.5t-44 28.5t-50 10q-29 0 -55 -12.5t-45.5 -32.5
t-30.5 -46.5t-11 -53.5v-122z" />
    <glyph glyph-name="degree" unicode="&#xb0;" horiz-adv-x="429" 
d="M214 768q36 0 68 -14t56.5 -38.5t39 -57.5t14.5 -70q0 -36 -14.5 -68.5t-39 -58t-56.5 -40.5t-68 -15t-68 15t-56 40t-38.5 58t-14.5 69t14 68.5t38 57.5t56.5 39.5t68.5 14.5zM354 588q0 27 -11 52.5t-30 45.5t-44.5 32t-54.5 12t-54.5 -12t-44.5 -32t-29.5 -45.5
t-10.5 -52.5q0 -28 11 -54t29.5 -46t44 -32t54.5 -12t54.5 12t44.5 32t30 46t11 54z" />
    <glyph glyph-name="dieresis" unicode="&#xa8;" horiz-adv-x="170" 
d="M30 659q13 0 21 -8t8 -21t-8 -21.5t-21 -8.5q-14 0 -22 8.5t-8 21.5t8 21t22 8zM141 659q13 0 21 -8t8 -21t-8 -21.5t-21 -8.5q-14 0 -22 8.5t-8 21.5t8 21t22 8z" />
    <glyph glyph-name="divide" unicode="&#xf7;" horiz-adv-x="461" 
d="M227 123q17 0 30 -13t13 -30t-13 -30t-30 -13q-18 0 -31 13t-13 30t13 30t31 13zM227 444q17 0 30 -13t13 -30t-13 -30t-30 -13q-18 0 -31 13t-13 30t13 30t31 13zM53 240q0 8 4.5 13t12.5 5h320q7 0 12.5 -5t5.5 -13t-5.5 -12.5t-12.5 -4.5h-320q-17 0 -17 17z" />
    <glyph glyph-name="dollar" unicode="$" horiz-adv-x="484" 
d="M238 375q-33 11 -64.5 23t-56 31.5t-40 50t-15.5 78.5q0 47 16 77.5t41.5 49t57 26t61.5 9.5v31q0 7 5 12t13 5q7 0 12.5 -5t5.5 -12v-30q28 -1 54 -6.5t46 -13t31.5 -16t11.5 -16.5q0 -6 -5.5 -14t-12.5 -8q-5 0 -14 5t-24 12t-36.5 12.5t-50.5 7.5v-282q30 -11 59 -25
t51.5 -37.5t36.5 -58t14 -86.5q0 -90 -45 -135.5t-116 -53.5v-41q0 -7 -5.5 -12t-12.5 -5q-8 0 -13 5t-5 12v39q-48 0 -84.5 12t-60.5 28.5t-36.5 33.5t-12.5 27q0 8 6 14.5t11 6.5q7 0 16 -13.5t27 -29.5t49.5 -29.5t84.5 -13.5v335zM399 192q0 39 -10 67t-27.5 47.5
t-40 32.5t-47.5 23v-319q125 18 125 149zM98 561q0 -36 11.5 -59.5t31 -40t44.5 -27.5t53 -20v270q-26 -2 -51.5 -8.5t-45 -20.5t-31.5 -37t-12 -57z" />
    <glyph glyph-name="dotaccent" unicode="&#x2d9;" horiz-adv-x="207" 
d="M110 659q13 0 21 -8t8 -21t-8 -21.5t-21 -8.5q-14 0 -22 8.5t-8 21.5t8 21t22 8z" />
    <glyph glyph-name="dotlessi" unicode="&#x131;" horiz-adv-x="171" 
d="M85 472q8 0 13 -4.5t5 -12.5v-437q0 -7 -5 -12.5t-13 -5.5q-7 0 -12 5.5t-5 12.5v437q0 8 5 12.5t12 4.5z" />
    <glyph glyph-name="dotlessj" unicode="&#x237;" horiz-adv-x="173" 
d="M86 472q8 0 13 -4.5t5 -12.5v-503q0 -42 -6 -76.5t-20.5 -59.5t-38 -39t-57.5 -14q-8 0 -13 5.5t-5 12.5q0 8 5 12.5t13 4.5q29 0 46 11.5t26 32t12 49t3 61.5v503q0 17 17 17z" />
    <glyph glyph-name="e" unicode="e" horiz-adv-x="445" 
d="M229 478q35 0 67 -13.5t56.5 -37.5t39 -57t14.5 -72q0 -27 -7 -42.5t-18.5 -22.5t-26.5 -8.5t-31 -1.5h-237v-47q0 -34 12.5 -61.5t35 -46.5t53.5 -29t68 -10q31 0 51 6.5t32.5 14t20 14t14.5 6.5t12.5 -6t5.5 -12q0 -7 -9.5 -17t-27.5 -19t-43.5 -15.5t-57.5 -6.5
q-44 0 -81 13t-64 37t-42 57.5t-15 74.5v125q0 36 14 68t38.5 56.5t57 38.5t68.5 14zM311 258q37 0 48.5 7t11.5 30q0 27 -10 53.5t-28.5 47.5t-45 34t-58.5 13q-30 0 -56.5 -11.5t-45.5 -31t-30 -45.5t-11 -54v-43h225z" />
    <glyph glyph-name="eacute" unicode="&#xe9;" horiz-adv-x="445" 
d="M229 478q35 0 67 -13.5t56.5 -37.5t39 -57t14.5 -72q0 -27 -7 -42.5t-18.5 -22.5t-26.5 -8.5t-31 -1.5h-237v-47q0 -34 12.5 -61.5t35 -46.5t53.5 -29t68 -10q31 0 51 6.5t32.5 14t20 14t14.5 6.5t12.5 -6t5.5 -12q0 -7 -9.5 -17t-27.5 -19t-43.5 -15.5t-57.5 -6.5
q-44 0 -81 13t-64 37t-42 57.5t-15 74.5v125q0 36 14 68t38.5 56.5t57 38.5t68.5 14zM311 258q37 0 48.5 7t11.5 30q0 27 -10 53.5t-28.5 47.5t-45 34t-58.5 13q-30 0 -56.5 -11.5t-45.5 -31t-30 -45.5t-11 -54v-43h225zM190 604q-5 -3 -9 -3q-8 0 -13.5 5t-5.5 13q0 9 8 13
l102 60q4 2 7 2q8 0 12 -5.5t4 -12.5q0 -12 -10 -18z" />
    <glyph glyph-name="ebreve" unicode="&#x115;" horiz-adv-x="445" 
d="M229 478q35 0 67 -13.5t56.5 -37.5t39 -57t14.5 -72q0 -27 -7 -42.5t-18.5 -22.5t-26.5 -8.5t-31 -1.5h-237v-47q0 -34 12.5 -61.5t35 -46.5t53.5 -29t68 -10q31 0 51 6.5t32.5 14t20 14t14.5 6.5t12.5 -6t5.5 -12q0 -7 -9.5 -17t-27.5 -19t-43.5 -15.5t-57.5 -6.5
q-44 0 -81 13t-64 37t-42 57.5t-15 74.5v125q0 36 14 68t38.5 56.5t57 38.5t68.5 14zM311 258q37 0 48.5 7t11.5 30q0 27 -10 53.5t-28.5 47.5t-45 34t-58.5 13q-30 0 -56.5 -11.5t-45.5 -31t-30 -45.5t-11 -54v-43h225zM337 710q0 -22 -9 -42t-24 -35t-35 -23.5t-41 -8.5
q-22 0 -41.5 8.5t-34.5 23.5t-24 35t-9 42h32q0 -35 22.5 -59t54.5 -24q31 0 53.5 24t22.5 59h33z" />
    <glyph glyph-name="ecaron" unicode="&#x11b;" horiz-adv-x="445" 
d="M229 478q35 0 67 -13.5t56.5 -37.5t39 -57t14.5 -72q0 -27 -7 -42.5t-18.5 -22.5t-26.5 -8.5t-31 -1.5h-237v-47q0 -34 12.5 -61.5t35 -46.5t53.5 -29t68 -10q31 0 51 6.5t32.5 14t20 14t14.5 6.5t12.5 -6t5.5 -12q0 -7 -9.5 -17t-27.5 -19t-43.5 -15.5t-57.5 -6.5
q-44 0 -81 13t-64 37t-42 57.5t-15 74.5v125q0 36 14 68t38.5 56.5t57 38.5t68.5 14zM311 258q37 0 48.5 7t11.5 30q0 27 -10 53.5t-28.5 47.5t-45 34t-58.5 13q-30 0 -56.5 -11.5t-45.5 -31t-30 -45.5t-11 -54v-43h225zM248 599q-11 -11 -21 -11q-12 0 -21 11l-100 101
q-8 10 -8 16q0 5 4 10t11 5q9 0 16 -8l98 -103l98 103q7 8 16 8q7 0 11 -5t4 -10q0 -6 -8 -16z" />
    <glyph glyph-name="ecircumflex" unicode="&#xea;" horiz-adv-x="445" 
d="M229 478q35 0 67 -13.5t56.5 -37.5t39 -57t14.5 -72q0 -27 -7 -42.5t-18.5 -22.5t-26.5 -8.5t-31 -1.5h-237v-47q0 -34 12.5 -61.5t35 -46.5t53.5 -29t68 -10q31 0 51 6.5t32.5 14t20 14t14.5 6.5t12.5 -6t5.5 -12q0 -7 -9.5 -17t-27.5 -19t-43.5 -15.5t-57.5 -6.5
q-44 0 -81 13t-64 37t-42 57.5t-15 74.5v125q0 36 14 68t38.5 56.5t57 38.5t68.5 14zM311 258q37 0 48.5 7t11.5 30q0 27 -10 53.5t-28.5 47.5t-45 34t-58.5 13q-30 0 -56.5 -11.5t-45.5 -31t-30 -45.5t-11 -54v-43h225zM124 603l-4 -2t-4 -1q-7 0 -12.5 5.5t-5.5 13.5
q0 9 9 14l104 56q8 5 17 5t17 -5l104 -55q9 -5 9 -17q0 -7 -5 -11.5t-12 -4.5q-2 0 -4.5 1t-4.5 2l-104 55z" />
    <glyph glyph-name="edieresis" unicode="&#xeb;" horiz-adv-x="445" 
d="M229 478q35 0 67 -13.5t56.5 -37.5t39 -57t14.5 -72q0 -27 -7 -42.5t-18.5 -22.5t-26.5 -8.5t-31 -1.5h-237v-47q0 -34 12.5 -61.5t35 -46.5t53.5 -29t68 -10q31 0 51 6.5t32.5 14t20 14t14.5 6.5t12.5 -6t5.5 -12q0 -7 -9.5 -17t-27.5 -19t-43.5 -15.5t-57.5 -6.5
q-44 0 -81 13t-64 37t-42 57.5t-15 74.5v125q0 36 14 68t38.5 56.5t57 38.5t68.5 14zM311 258q37 0 48.5 7t11.5 30q0 27 -10 53.5t-28.5 47.5t-45 34t-58.5 13q-30 0 -56.5 -11.5t-45.5 -31t-30 -45.5t-11 -54v-43h225zM173 659q13 0 21 -8t8 -21t-8 -21.5t-21 -8.5
q-14 0 -22 8.5t-8 21.5t8 21t22 8zM284 659q13 0 21 -8t8 -21t-8 -21.5t-21 -8.5q-14 0 -22 8.5t-8 21.5t8 21t22 8z" />
    <glyph glyph-name="edotaccent" unicode="&#x117;" horiz-adv-x="445" 
d="M229 478q35 0 67 -13.5t56.5 -37.5t39 -57t14.5 -72q0 -27 -7 -42.5t-18.5 -22.5t-26.5 -8.5t-31 -1.5h-237v-47q0 -34 12.5 -61.5t35 -46.5t53.5 -29t68 -10q31 0 51 6.5t32.5 14t20 14t14.5 6.5t12.5 -6t5.5 -12q0 -7 -9.5 -17t-27.5 -19t-43.5 -15.5t-57.5 -6.5
q-44 0 -81 13t-64 37t-42 57.5t-15 74.5v125q0 36 14 68t38.5 56.5t57 38.5t68.5 14zM311 258q37 0 48.5 7t11.5 30q0 27 -10 53.5t-28.5 47.5t-45 34t-58.5 13q-30 0 -56.5 -11.5t-45.5 -31t-30 -45.5t-11 -54v-43h225zM229 659q13 0 21 -8t8 -21t-8 -21.5t-21 -8.5
q-14 0 -22 8.5t-8 21.5t8 21t22 8z" />
    <glyph glyph-name="egrave" unicode="&#xe8;" horiz-adv-x="445" 
d="M229 478q35 0 67 -13.5t56.5 -37.5t39 -57t14.5 -72q0 -27 -7 -42.5t-18.5 -22.5t-26.5 -8.5t-31 -1.5h-237v-47q0 -34 12.5 -61.5t35 -46.5t53.5 -29t68 -10q31 0 51 6.5t32.5 14t20 14t14.5 6.5t12.5 -6t5.5 -12q0 -7 -9.5 -17t-27.5 -19t-43.5 -15.5t-57.5 -6.5
q-44 0 -81 13t-64 37t-42 57.5t-15 74.5v125q0 36 14 68t38.5 56.5t57 38.5t68.5 14zM311 258q37 0 48.5 7t11.5 30q0 27 -10 53.5t-28.5 47.5t-45 34t-58.5 13q-30 0 -56.5 -11.5t-45.5 -31t-30 -45.5t-11 -54v-43h225zM172 658q-10 6 -10 18q0 7 4 12.5t12 5.5q3 0 7 -2
l102 -60q8 -4 8 -13q0 -8 -5.5 -13t-13.5 -5q-5 0 -9 3z" />
    <glyph glyph-name="eight" unicode="8" horiz-adv-x="489" 
d="M245 731q37 0 69.5 -8.5t56.5 -28.5t37.5 -53.5t13.5 -83.5q0 -66 -23.5 -104t-61.5 -55q47 -20 75 -64t28 -122v-12q0 -56 -15 -95t-41.5 -64t-62 -36t-76.5 -11t-77 11t-62.5 36t-41.5 64t-15 95v12q0 78 28.5 122t75.5 64q-38 17 -61.5 55t-23.5 104q0 50 13.5 83.5
t37.5 53.5t56 28.5t70 8.5zM404 212q0 87 -42 127t-117 40t-117.5 -40t-42.5 -127v-12q0 -88 43 -129t118 -41t116.5 41.5t41.5 128.5v12zM245 695q-66 0 -103.5 -31.5t-37.5 -106.5t37.5 -108t103.5 -33t103.5 33t37.5 108t-37.5 106.5t-103.5 31.5z" />
    <glyph glyph-name="eightinferior" unicode="&#x2088;" horiz-adv-x="312" 
d="M156 366q45 0 74.5 -19t29.5 -69q0 -32 -13 -51.5t-36 -27.5q27 -10 43.5 -32t16.5 -61v-6q0 -28 -9 -47.5t-24.5 -32t-36.5 -18t-45 -5.5t-45 5.5t-36.5 18t-24.5 32t-9 47.5v6q0 39 16.5 61t43.5 32q-22 8 -35.5 27.5t-13.5 51.5q0 49 30 68.5t74 19.5zM238 110
q0 38 -22 56t-60 18t-59.5 -18t-21.5 -56v-8q0 -38 22 -57t60 -19t59.5 19t21.5 57v8zM156 336q-33 0 -52 -14t-19 -47q0 -32 19 -46.5t52 -14.5q34 0 52.5 14.5t18.5 46.5q0 33 -18.5 47t-52.5 14z" />
    <glyph glyph-name="eightsuperior" unicode="&#x2078;" horiz-adv-x="314" 
d="M157 731q45 0 74.5 -19t29.5 -69q0 -32 -13 -51.5t-36 -27.5q27 -10 43.5 -32t16.5 -61v-6q0 -28 -9 -47.5t-24.5 -32t-36.5 -18t-45 -5.5t-45 5.5t-36.5 18t-24.5 32t-9 47.5v6q0 39 16.5 61t43.5 32q-22 8 -35.5 27.5t-13.5 51.5q0 49 30 68.5t74 19.5zM239 475
q0 38 -22 56t-60 18t-59.5 -18t-21.5 -56v-8q0 -38 22 -57t60 -19t59.5 19t21.5 57v8zM157 701q-33 0 -52 -14t-19 -47q0 -32 19 -46.5t52 -14.5q34 0 52.5 14.5t18.5 46.5q0 33 -18.5 47t-52.5 14z" />
    <glyph glyph-name="ellipsis" unicode="&#x2026;" horiz-adv-x="514" 
d="M81 66q14 0 24.5 -10.5t10.5 -25.5q0 -14 -10.5 -25t-24.5 -11q-16 0 -26 11t-10 25q0 15 10 25.5t26 10.5zM258 66q14 0 24.5 -10.5t10.5 -25.5q0 -14 -10.5 -25t-24.5 -11q-16 0 -26 11t-10 25q0 15 10 25.5t26 10.5zM434 66q14 0 24.5 -10.5t10.5 -25.5
q0 -14 -10.5 -25t-24.5 -11q-16 0 -26 11t-10 25q0 15 10 25.5t26 10.5z" />
    <glyph glyph-name="emacron" unicode="&#x113;" horiz-adv-x="445" 
d="M229 478q35 0 67 -13.5t56.5 -37.5t39 -57t14.5 -72q0 -27 -7 -42.5t-18.5 -22.5t-26.5 -8.5t-31 -1.5h-237v-47q0 -34 12.5 -61.5t35 -46.5t53.5 -29t68 -10q31 0 51 6.5t32.5 14t20 14t14.5 6.5t12.5 -6t5.5 -12q0 -7 -9.5 -17t-27.5 -19t-43.5 -15.5t-57.5 -6.5
q-44 0 -81 13t-64 37t-42 57.5t-15 74.5v125q0 36 14 68t38.5 56.5t57 38.5t68.5 14zM311 258q37 0 48.5 7t11.5 30q0 27 -10 53.5t-28.5 47.5t-45 34t-58.5 13q-30 0 -56.5 -11.5t-45.5 -31t-30 -45.5t-11 -54v-43h225zM101 664q0 8 4.5 13t12.5 5h220q7 0 12.5 -5t5.5 -13
t-5.5 -12.5t-12.5 -4.5h-220q-17 0 -17 17z" />
    <glyph glyph-name="emdash" unicode="&#x2014;" horiz-adv-x="735" 
d="M50 240q0 8 4.5 13t12.5 5h600q7 0 12.5 -5t5.5 -13t-5.5 -12.5t-12.5 -4.5h-600q-17 0 -17 17z" />
    <glyph glyph-name="endash" unicode="&#x2013;" 
d="M50 240q0 8 4.5 13t12.5 5h320q7 0 12.5 -5t5.5 -13t-5.5 -12.5t-12.5 -4.5h-320q-17 0 -17 17z" />
    <glyph glyph-name="eng" unicode="&#x14b;" horiz-adv-x="481" 
d="M237 478q37 0 69.5 -14t57 -38.5t39 -57.5t14.5 -70v-346q0 -42 -6 -76.5t-20.5 -59.5t-38 -39t-57.5 -14q-8 0 -13 5.5t-5 12.5q0 8 5 12.5t13 4.5q29 0 46 11.5t26 32t12 49t3 61.5v346q0 27 -11 53.5t-30.5 46.5t-45.5 32.5t-55 12.5q-26 0 -50.5 -10t-43.5 -28.5
t-31 -45.5t-12 -61v-280q0 -7 -5 -12.5t-13 -5.5t-12.5 5.5t-4.5 12.5v437q0 17 17 17q8 0 13 -4.5t5 -12.5v-53q17 29 50 52.5t84 23.5z" />
    <glyph glyph-name="eogonek" unicode="&#x119;" horiz-adv-x="445" 
d="M361 -144q8 0 13 -2.5t5 -10.5q0 -13 -23 -13q-14 0 -29 3t-28 10.5t-21.5 20.5t-8.5 33q0 29 9.5 54t26.5 48q-12 -2 -25 -3.5t-27 -1.5q-44 0 -81 13t-64 37t-42 57.5t-15 74.5v125q0 36 14 68t38.5 56.5t57 38.5t68.5 14q35 0 67 -13.5t56.5 -37.5t39 -57t14.5 -72
q0 -27 -7 -42.5t-18.5 -22.5t-26.5 -8.5t-31 -1.5h-237v-47q0 -34 12.5 -61.5t35 -46.5t53.5 -29t68 -10q31 0 51 6.5t32.5 14t20 14t14.5 6.5t12.5 -6t5.5 -12q0 -14 -27 -31q-28 -27 -47 -55.5t-19 -66.5q0 -25 17 -34t46 -9zM311 258q37 0 48.5 7t11.5 30q0 27 -10 53.5
t-28.5 47.5t-45 34t-58.5 13q-30 0 -56.5 -11.5t-45.5 -31t-30 -45.5t-11 -54v-43h225z" />
    <glyph glyph-name="equal" unicode="=" horiz-adv-x="431" 
d="M73 176q0 8 4.5 13t12.5 5h250q7 0 12.5 -5t5.5 -13t-5.5 -12.5t-12.5 -4.5h-250q-17 0 -17 17zM73 379q0 8 4.5 13t12.5 5h250q7 0 12.5 -5t5.5 -13t-5.5 -12.5t-12.5 -4.5h-250q-17 0 -17 17z" />
    <glyph glyph-name="estimated" unicode="&#x212e;" horiz-adv-x="535" 
d="M277 478q41 0 78.5 -13.5t66 -37.5t45.5 -57t17 -72q0 -27 -7 -42.5t-18.5 -22.5t-26.5 -8.5t-31 -1.5h-257v-47q0 -34 12 -61.5t33.5 -46.5t50.5 -29t63 -10q39 0 64 6.5t40.5 14t25 14t18.5 6.5q7 0 12.5 -6t5.5 -12q0 -7 -11.5 -17t-33 -19t-53 -15.5t-70.5 -6.5
q-53 0 -97.5 15.5t-76.5 43t-50 66.5t-18 87v65q0 42 17.5 79.5t47.5 66t69.5 45t83.5 16.5zM349 258q37 0 48.5 7t11.5 30q0 27 -9.5 53.5t-26.5 47.5t-41.5 34t-54.5 13q-28 0 -52.5 -11.5t-42.5 -31t-28 -45.5t-10 -54v-43h205z" />
    <glyph glyph-name="eth" unicode="&#xf0;" horiz-adv-x="468" 
d="M127 731q-6 0 -9 5t-3 12q0 8 5 14t19 6q35 0 77 -21t80 -64l80 46q4 2 7 2q7 0 12.5 -5t5.5 -12q0 -11 -9 -15l-74 -43q38 -51 62.5 -123t24.5 -168v-189q0 -36 -14.5 -68.5t-39 -58t-56.5 -40.5t-68 -15t-68 15t-56 40t-38.5 58t-14.5 69v122q0 36 14 68.5t38 57.5
t56.5 39.5t68.5 14.5q21 0 44 -5.5t42.5 -16.5t35 -27t21.5 -37q-8 83 -30 143.5t-53 102.5l-98 -56q-5 -3 -9 -3q-7 0 -12 6t-5 13q0 9 9 14l92 53q-32 34 -68 50t-69 16zM370 303q0 27 -11.5 52t-31 44.5t-45.5 31.5t-55 12q-30 0 -56 -12.5t-45 -32.5t-30 -46.5
t-11 -53.5v-122q0 -28 11 -54.5t30.5 -47t45 -33t55.5 -12.5t56 12.5t45.5 33t30.5 47t11 54.5v127z" />
    <glyph glyph-name="exclam" unicode="!" horiz-adv-x="193" 
d="M123 717q0 -136 -5.5 -277t-5.5 -277q0 -8 -5.5 -12t-10.5 -4t-10 4t-5 12q0 136 -5.5 277t-5.5 277q0 15 7.5 23t18.5 8t19 -8t8 -23zM97 66q14 0 24.5 -10.5t10.5 -25.5q0 -14 -10.5 -25t-24.5 -11q-16 0 -26 11t-10 25q0 15 10 25.5t26 10.5z" />
    <glyph glyph-name="exclamdown" unicode="&#xa1;" horiz-adv-x="193" 
d="M123 25q0 -15 -8 -23t-19 -8t-18.5 8t-7.5 23q0 136 5.5 277t5.5 277q0 8 5 12t10 4t10.5 -4t5.5 -12q0 -136 5.5 -277t5.5 -277zM97 676q-16 0 -26 10.5t-10 25.5q0 14 10 25t26 11q14 0 24.5 -11t10.5 -25q0 -15 -10.5 -25.5t-24.5 -10.5z" />
    <glyph glyph-name="f" unicode="f" horiz-adv-x="289" 
d="M104 472h153q8 0 13 -5t5 -12q0 -8 -5 -13t-13 -5h-153v-420q0 -8 -5.5 -12.5t-13.5 -4.5q-16 0 -16 17v573q0 36 14.5 68.5t38.5 56.5t56.5 38.5t68.5 14.5h10q8 0 13 -5t5 -13t-5 -12.5t-13 -4.5h-10q-30 0 -56 -12t-45.5 -32t-30.5 -45.5t-11 -53.5v-118z" />
    <glyph glyph-name="five" unicode="5" horiz-adv-x="459" 
d="M228 419q41 0 76.5 -10.5t62 -34.5t41.5 -62t15 -93v-19q0 -56 -15 -95.5t-41.5 -64t-62.5 -35.5t-77 -11q-46 0 -82.5 13t-61.5 35.5t-38 52.5t-13 64q0 11 5 15.5t12 4.5t13 -4.5t6 -13.5q0 -31 12.5 -55.5t34 -41t50.5 -25.5t62 -9q75 0 117.5 41t42.5 129v19
q0 84 -42 124t-117 40h-135q-17 0 -21 4.5t-4 9.5q0 2 0.5 8.5t0.5 8.5l18 299q2 18 18 18h267q8 0 11.5 -5.5t3.5 -12.5t-3.5 -12.5t-11.5 -5.5h-249l-19 -276h124z" />
    <glyph glyph-name="fiveeighths" unicode="&#x215d;" horiz-adv-x="733" 
d="M578 366q45 0 74.5 -19t29.5 -69q0 -32 -13 -51.5t-36 -27.5q27 -10 43.5 -32t16.5 -61v-6q0 -28 -9 -47.5t-24.5 -32t-36.5 -18t-45 -5.5t-45 5.5t-36.5 18t-24.5 32t-9 47.5v6q0 39 16.5 61t43.5 32q-22 8 -35.5 27.5t-13.5 51.5q0 49 30 68.5t74 19.5zM660 110
q0 38 -22 56t-60 18t-59.5 -18t-21.5 -56v-8q0 -38 22 -57t60 -19t59.5 19t21.5 57v8zM578 336q-33 0 -52 -14t-19 -47q0 -32 19 -46.5t52 -14.5q34 0 52.5 14.5t18.5 46.5q0 33 -18.5 47t-52.5 14zM204 -9q-6 -11 -17 -11q-6 0 -11 4t-5 11q0 6 2 9l391 756q4 8 13 8
q6 0 12 -5.5t6 -13.5q0 -5 -3 -11zM150 580q49 0 82 -23.5t33 -78.5v-10q0 -29 -9 -49t-24.5 -33t-36 -18.5t-44.5 -5.5q-56 0 -86 25t-30 57q0 20 17 20t17 -15q2 -56 77 -56q41 0 63 17.5t22 57.5v10q0 37 -21.5 55t-59.5 18h-77q-13 0 -15.5 5t-2.5 7v10t1 12l11 133
q2 13 11 13h155q6 0 9 -5t3 -11t-3 -10.5t-9 -4.5h-136l-10 -120h63z" />
    <glyph glyph-name="fiveinferior" unicode="&#x2085;" horiz-adv-x="298" 
d="M148 215q49 0 82 -23.5t33 -78.5v-10q0 -29 -9 -49t-24.5 -33t-36 -18.5t-44.5 -5.5q-56 0 -86 25t-30 57q0 20 17 20t17 -15q2 -56 77 -56q41 0 63 17.5t22 57.5v10q0 37 -21.5 55t-59.5 18h-77q-13 0 -15.5 5t-2.5 7v10t1 12l11 133q2 13 11 13h155q6 0 9 -5t3 -11
t-3 -10.5t-9 -4.5h-136l-10 -120h63z" />
    <glyph glyph-name="fivesuperior" unicode="&#x2075;" horiz-adv-x="298" 
d="M148 580q49 0 82 -23.5t33 -78.5v-10q0 -29 -9 -49t-24.5 -33t-36 -18.5t-44.5 -5.5q-56 0 -86 25t-30 57q0 20 17 20t17 -15q2 -56 77 -56q41 0 63 17.5t22 57.5v10q0 37 -21.5 55t-59.5 18h-77q-13 0 -15.5 5t-2.5 7v10t1 12l11 133q2 13 11 13h155q6 0 9 -5t3 -11
t-3 -10.5t-9 -4.5h-136l-10 -120h63z" />
    <glyph glyph-name="florin" unicode="&#x192;" horiz-adv-x="324" 
d="M136 402h153q8 0 12 -4.5t4 -10.5q0 -8 -6.5 -14t-14.5 -6h-153l-44 -315q-5 -36 -14.5 -70.5t-24.5 -60.5t-37 -42t-52 -16h-20q-8 0 -12 5t-4 11q0 8 6.5 13.5t14.5 5.5h20q19 0 34 13t25.5 34.5t17.5 49.5t11 57l76 538q5 36 24 68.5t46.5 56.5t62 38.5t70.5 14.5h4
q15 0 15 -16q0 -8 -6 -13.5t-14 -5.5h-4q-30 0 -58 -12t-50 -32t-36.5 -45.5t-18.5 -53.5z" />
    <glyph glyph-name="four" unicode="4" horiz-adv-x="417" 
d="M289 178h-261q-9 0 -13 5.5t-4 12.5t3 12l257 509q7 14 20 14q7 0 12 -4.5t5 -11.5q0 -5 -3 -11l-248 -490h232v234q0 9 5.5 13t12.5 4t12.5 -4t5.5 -13v-234h59q9 0 13.5 -5.5t4.5 -12.5t-4.5 -12.5t-13.5 -5.5h-59v-160q0 -9 -5.5 -13.5t-12.5 -4.5t-12.5 4.5
t-5.5 13.5v160z" />
    <glyph glyph-name="fourinferior" unicode="&#x2084;" horiz-adv-x="274" 
d="M175 86h-144q-13 0 -13 14q0 2 2 8l141 247q6 11 16 11q6 0 11.5 -4t5.5 -10q0 -3 -2 -7l-131 -227h114v96q0 6 5 9t11 3q7 0 12 -3t5 -9v-96h31q7 0 10.5 -5t3.5 -11t-4 -11t-10 -5h-31v-73q0 -7 -5 -10t-12 -3q-6 0 -11 3t-5 10v73z" />
    <glyph glyph-name="foursuperior" unicode="&#x2074;" horiz-adv-x="274" 
d="M175 451h-144q-13 0 -13 14q0 2 2 8l141 247q6 11 16 11q6 0 11.5 -4t5.5 -10q0 -3 -2 -7l-131 -227h114v96q0 6 5 9t11 3q7 0 12 -3t5 -9v-96h31q7 0 10.5 -5t3.5 -11t-4 -11t-10 -5h-31v-73q0 -7 -5 -10t-12 -3q-6 0 -11 3t-5 10v73z" />
    <glyph glyph-name="fraction" unicode="&#x2044;" horiz-adv-x="130" 
d="M-110 -9q-6 -11 -17 -11q-6 0 -11 4t-5 11q0 6 2 9l391 756q4 8 13 8q6 0 12 -5.5t6 -13.5q0 -5 -3 -11z" />
    <glyph glyph-name="g" unicode="g" horiz-adv-x="446" 
d="M347 314q0 55 -33.5 92t-93.5 37t-93 -37t-33 -92v-44q0 -28 8.5 -52t25 -42t40 -28t53.5 -10q59 0 92.5 37t33.5 94v45zM378 -103q0 36 -23 54t-56 26t-68 10.5t-59 5.5q-20 -6 -39 -14t-33.5 -19.5t-23.5 -27.5t-9 -37q0 -45 41.5 -72.5t117.5 -27.5q75 0 113.5 27.5
t38.5 74.5zM417 452q-13 0 -29.5 -9t-30.5 -37q13 -18 19 -42t6 -50v-45q0 -36 -12 -66t-33.5 -52.5t-51.5 -35t-66 -12.5q-46 0 -82 21q-15 -7 -27.5 -17.5t-12.5 -30.5q0 -25 23.5 -35.5t58.5 -15.5t76 -8.5t76 -15t58.5 -35t23.5 -68.5q0 -65 -50 -100t-137 -35
q-44 0 -79.5 9t-61 26t-39.5 40.5t-14 53.5q0 23 8 41t20.5 31.5t29 23t33.5 15.5q-27 8 -44 23.5t-17 47.5q0 28 13 43t36 26q-25 22 -38.5 54.5t-13.5 71.5v45q0 36 11.5 66t32.5 52t51 34t66 12q37 0 67 -12.5t52 -35.5q14 26 35 43.5t40 17.5q11 0 16 -6t5 -14
q0 -9 -5.5 -14t-12.5 -5z" />
    <glyph glyph-name="g.ss03" horiz-adv-x="468" 
d="M222 -237q-29 0 -56.5 5.5t-48.5 14.5t-34 20t-13 22q0 6 4.5 12.5t11.5 6.5t16.5 -7t25 -16t38.5 -16t57 -7q47 0 75 15t42.5 39.5t19 56.5t4.5 66v95q-17 -31 -53.5 -53.5t-82.5 -22.5q-36 0 -68 15t-56.5 40.5t-39 58t-14.5 68.5v122q0 37 14.5 70t39 57.5t57 38.5
t69.5 14q51 0 84 -23.5t50 -52.5v53q0 8 5 12.5t13 4.5q17 0 17 -17v-487q0 -41 -9 -78t-30 -65.5t-55 -45t-83 -16.5zM85 176q0 -28 11.5 -54.5t30.5 -47t44.5 -33t54.5 -12.5q30 0 55 12.5t43.5 30t29 36t10.5 31.5v159q0 34 -12 61t-31 45.5t-44 28.5t-50 10
q-29 0 -55 -12.5t-45.5 -32.5t-30.5 -46.5t-11 -53.5v-122z" />
    <glyph glyph-name="gbreve" unicode="&#x11f;" horiz-adv-x="446" 
d="M347 314q0 55 -33.5 92t-93.5 37t-93 -37t-33 -92v-44q0 -28 8.5 -52t25 -42t40 -28t53.5 -10q59 0 92.5 37t33.5 94v45zM378 -103q0 36 -23 54t-56 26t-68 10.5t-59 5.5q-20 -6 -39 -14t-33.5 -19.5t-23.5 -27.5t-9 -37q0 -45 41.5 -72.5t117.5 -27.5q75 0 113.5 27.5
t38.5 74.5zM417 452q-13 0 -29.5 -9t-30.5 -37q13 -18 19 -42t6 -50v-45q0 -36 -12 -66t-33.5 -52.5t-51.5 -35t-66 -12.5q-46 0 -82 21q-15 -7 -27.5 -17.5t-12.5 -30.5q0 -25 23.5 -35.5t58.5 -15.5t76 -8.5t76 -15t58.5 -35t23.5 -68.5q0 -65 -50 -100t-137 -35
q-44 0 -79.5 9t-61 26t-39.5 40.5t-14 53.5q0 23 8 41t20.5 31.5t29 23t33.5 15.5q-27 8 -44 23.5t-17 47.5q0 28 13 43t36 26q-25 22 -38.5 54.5t-13.5 71.5v45q0 36 11.5 66t32.5 52t51 34t66 12q37 0 67 -12.5t52 -35.5q14 26 35 43.5t40 17.5q11 0 16 -6t5 -14
q0 -9 -5.5 -14t-12.5 -5zM344 710q0 -22 -9 -42t-24 -35t-35 -23.5t-41 -8.5q-22 0 -41.5 8.5t-34.5 23.5t-24 35t-9 42h32q0 -35 22.5 -59t54.5 -24q31 0 53.5 24t22.5 59h33z" />
    <glyph glyph-name="gcircumflex" unicode="&#x11d;" horiz-adv-x="446" 
d="M347 314q0 55 -33.5 92t-93.5 37t-93 -37t-33 -92v-44q0 -28 8.5 -52t25 -42t40 -28t53.5 -10q59 0 92.5 37t33.5 94v45zM378 -103q0 36 -23 54t-56 26t-68 10.5t-59 5.5q-20 -6 -39 -14t-33.5 -19.5t-23.5 -27.5t-9 -37q0 -45 41.5 -72.5t117.5 -27.5q75 0 113.5 27.5
t38.5 74.5zM417 452q-13 0 -29.5 -9t-30.5 -37q13 -18 19 -42t6 -50v-45q0 -36 -12 -66t-33.5 -52.5t-51.5 -35t-66 -12.5q-46 0 -82 21q-15 -7 -27.5 -17.5t-12.5 -30.5q0 -25 23.5 -35.5t58.5 -15.5t76 -8.5t76 -15t58.5 -35t23.5 -68.5q0 -65 -50 -100t-137 -35
q-44 0 -79.5 9t-61 26t-39.5 40.5t-14 53.5q0 23 8 41t20.5 31.5t29 23t33.5 15.5q-27 8 -44 23.5t-17 47.5q0 28 13 43t36 26q-25 22 -38.5 54.5t-13.5 71.5v45q0 36 11.5 66t32.5 52t51 34t66 12q37 0 67 -12.5t52 -35.5q14 26 35 43.5t40 17.5q11 0 16 -6t5 -14
q0 -9 -5.5 -14t-12.5 -5zM131 603l-4 -2t-4 -1q-7 0 -12.5 5.5t-5.5 13.5q0 9 9 14l104 56q8 5 17 5t17 -5l104 -55q9 -5 9 -17q0 -7 -5 -11.5t-12 -4.5q-2 0 -4.5 1t-4.5 2l-104 55z" />
    <glyph glyph-name="gcommaaccent" unicode="&#x123;" horiz-adv-x="446" 
d="M347 314q0 55 -33.5 92t-93.5 37t-93 -37t-33 -92v-44q0 -28 8.5 -52t25 -42t40 -28t53.5 -10q59 0 92.5 37t33.5 94v45zM378 -103q0 36 -23 54t-56 26t-68 10.5t-59 5.5q-20 -6 -39 -14t-33.5 -19.5t-23.5 -27.5t-9 -37q0 -45 41.5 -72.5t117.5 -27.5q75 0 113.5 27.5
t38.5 74.5zM417 452q-13 0 -29.5 -9t-30.5 -37q13 -18 19 -42t6 -50v-45q0 -36 -12 -66t-33.5 -52.5t-51.5 -35t-66 -12.5q-46 0 -82 21q-15 -7 -27.5 -17.5t-12.5 -30.5q0 -25 23.5 -35.5t58.5 -15.5t76 -8.5t76 -15t58.5 -35t23.5 -68.5q0 -65 -50 -100t-137 -35
q-44 0 -79.5 9t-61 26t-39.5 40.5t-14 53.5q0 23 8 41t20.5 31.5t29 23t33.5 15.5q-27 8 -44 23.5t-17 47.5q0 28 13 43t36 26q-25 22 -38.5 54.5t-13.5 71.5v45q0 36 11.5 66t32.5 52t51 34t66 12q37 0 67 -12.5t52 -35.5q14 26 35 43.5t40 17.5q11 0 16 -6t5 -14
q0 -9 -5.5 -14t-12.5 -5zM224 857q-14 0 -24.5 10.5t-10.5 25.5q0 6 3 17.5t7.5 25t10.5 28t12 26.5q5 10 14 10q6 0 11 -4t5 -11q0 -4 -1 -6l-18 -51q12 -3 19.5 -13t7.5 -22q0 -15 -10 -25.5t-26 -10.5zM185 604q-5 -3 -9 -3q-8 0 -13.5 5t-5.5 13q0 9 8 13l102 60
q4 2 7 2q8 0 12 -5.5t4 -12.5q0 -12 -10 -18z" />
    <glyph glyph-name="gdotaccent" unicode="&#x121;" horiz-adv-x="446" 
d="M347 314q0 55 -33.5 92t-93.5 37t-93 -37t-33 -92v-44q0 -28 8.5 -52t25 -42t40 -28t53.5 -10q59 0 92.5 37t33.5 94v45zM378 -103q0 36 -23 54t-56 26t-68 10.5t-59 5.5q-20 -6 -39 -14t-33.5 -19.5t-23.5 -27.5t-9 -37q0 -45 41.5 -72.5t117.5 -27.5q75 0 113.5 27.5
t38.5 74.5zM417 452q-13 0 -29.5 -9t-30.5 -37q13 -18 19 -42t6 -50v-45q0 -36 -12 -66t-33.5 -52.5t-51.5 -35t-66 -12.5q-46 0 -82 21q-15 -7 -27.5 -17.5t-12.5 -30.5q0 -25 23.5 -35.5t58.5 -15.5t76 -8.5t76 -15t58.5 -35t23.5 -68.5q0 -65 -50 -100t-137 -35
q-44 0 -79.5 9t-61 26t-39.5 40.5t-14 53.5q0 23 8 41t20.5 31.5t29 23t33.5 15.5q-27 8 -44 23.5t-17 47.5q0 28 13 43t36 26q-25 22 -38.5 54.5t-13.5 71.5v45q0 36 11.5 66t32.5 52t51 34t66 12q37 0 67 -12.5t52 -35.5q14 26 35 43.5t40 17.5q11 0 16 -6t5 -14
q0 -9 -5.5 -14t-12.5 -5zM235 659q13 0 21 -8t8 -21t-8 -21.5t-21 -8.5q-14 0 -22 8.5t-8 21.5t8 21t22 8z" />
    <glyph glyph-name="germandbls" unicode="&#xdf;" horiz-adv-x="528" 
d="M319 -20q-9 0 -27.5 1.5t-36.5 5.5t-31.5 11t-13.5 18q0 7 4.5 12t10.5 5q5 0 11.5 -3.5t16 -7.5t23.5 -7.5t33 -3.5q65 0 104 46.5t39 138.5v19q0 26 -8 56t-27.5 55.5t-52 44t-80.5 21.5q-14 1 -22.5 3t-8.5 13q0 12 9.5 15t22.5 4q31 2 50.5 18t29.5 38.5t13.5 47.5
t3.5 46q0 73 -30.5 114.5t-92.5 41.5q-33 0 -56 -12t-36.5 -32t-19.5 -45.5t-6 -53.5v-573q0 -8 -5.5 -12.5t-13.5 -4.5q-16 0 -16 17v420h-81q-17 0 -17 17q0 8 4.5 13t12.5 5h81v118q0 36 8.5 68.5t27 56.5t47.5 38.5t70 14.5q34 0 63 -10.5t50 -32.5t33 -56t12 -80
q0 -27 -4.5 -55t-13.5 -52t-23 -42.5t-32 -26.5q24 -5 49 -22.5t45.5 -43.5t33 -60t12.5 -72v-19q0 -56 -14.5 -97t-37.5 -67.5t-52.5 -39t-60.5 -12.5z" />
    <glyph glyph-name="grave" unicode="`" horiz-adv-x="133" 
d="M10 658q-10 6 -10 18q0 7 4 12.5t12 5.5q3 0 7 -2l102 -60q8 -4 8 -13q0 -8 -5.5 -13t-13.5 -5q-5 0 -9 3z" />
    <glyph glyph-name="greater" unicode="&#x3e;" horiz-adv-x="395" 
d="M61 449q-9 5 -9 15q0 8 6 12.5t13 4.5q4 0 9 -3l275 -182q3 -2 6.5 -7.5t3.5 -11.5t-3 -11t-7 -7l-275 -182q-5 -3 -9 -3q-7 0 -13 4.5t-6 12.5q0 10 9 15l258 171z" />
    <glyph glyph-name="greaterequal" unicode="&#x2265;" horiz-adv-x="435" 
d="M63 85q0 8 4.5 13t12.5 5h278q7 0 12.5 -5t5.5 -13t-5.5 -12.5t-12.5 -4.5h-278q-17 0 -17 17zM72 491q-9 5 -9 15q0 8 6 12.5t13 4.5q4 0 9 -3l275 -156q3 -2 6.5 -7.5t3.5 -11.5t-3 -11t-7 -7l-275 -156q-5 -3 -9 -3q-7 0 -13 4.5t-6 12.5q0 10 9 15l258 145z" />
    <glyph glyph-name="guillemotleft" unicode="&#xab;" horiz-adv-x="361" 
d="M45 260q-5 8 -5 17t5 17l96 178q4 9 17 9q7 0 11.5 -5t4.5 -12q0 -5 -3 -9l-96 -178l96 -177q3 -5 3 -9q0 -8 -5.5 -12.5t-12.5 -4.5q-10 0 -15 9zM191 260q-5 8 -5 17t5 17l96 178q4 9 17 9q7 0 11.5 -5t4.5 -12q0 -5 -3 -9l-96 -178l96 -177q3 -5 3 -9q0 -8 -5.5 -12.5
t-12.5 -4.5q-10 0 -15 9z" />
    <glyph glyph-name="guillemotright" unicode="&#xbb;" horiz-adv-x="361" 
d="M220 83q-5 -9 -15 -9q-7 0 -12.5 4.5t-5.5 12.5q0 4 3 9l96 177l-96 178q-3 4 -3 9q0 7 4.5 12t11.5 5q12 0 17 -9l96 -178q5 -8 5 -17t-5 -17zM74 83q-5 -9 -15 -9q-7 0 -12.5 4.5t-5.5 12.5q0 4 3 9l96 177l-96 178q-3 4 -3 9q0 7 4.5 12t11.5 5q12 0 17 -9l96 -178
q5 -8 5 -17t-5 -17z" />
    <glyph glyph-name="guilsinglleft" unicode="&#x2039;" horiz-adv-x="215" 
d="M45 260q-5 8 -5 17t5 17l96 178q4 9 17 9q7 0 11.5 -5t4.5 -12q0 -5 -3 -9l-96 -178l96 -177q3 -5 3 -9q0 -8 -5.5 -12.5t-12.5 -4.5q-10 0 -15 9z" />
    <glyph glyph-name="guilsinglright" unicode="&#x203a;" horiz-adv-x="215" 
d="M74 83q-5 -9 -15 -9q-7 0 -12.5 4.5t-5.5 12.5q0 4 3 9l96 177l-96 178q-3 4 -3 9q0 7 4.5 12t11.5 5q12 0 17 -9l96 -178q5 -8 5 -17t-5 -17z" />
    <glyph glyph-name="h" unicode="h" horiz-adv-x="482" 
d="M104 18q0 -7 -5 -12.5t-13 -5.5t-12.5 5.5t-4.5 12.5v733q0 17 17 17q8 0 13 -4.5t5 -12.5v-349q17 29 50 52.5t84 23.5q37 0 69.5 -14t57 -38.5t39 -57.5t14.5 -70v-280q0 -9 -5.5 -13.5t-12.5 -4.5q-6 0 -11.5 4.5t-5.5 13.5v280q0 27 -11 53.5t-30.5 46.5t-45.5 32.5
t-55 12.5q-26 0 -50.5 -10t-43.5 -28.5t-31 -45.5t-12 -61v-280z" />
    <glyph glyph-name="hbar" unicode="&#x127;" horiz-adv-x="482" 
d="M20 609q0 8 4.5 13t12.5 5h32v124q0 17 17 17q8 0 13 -4.5t5 -12.5v-124h153q7 0 12.5 -5t5.5 -13t-5.5 -12.5t-12.5 -4.5h-153v-190q17 29 50 52.5t84 23.5q37 0 69.5 -14t57 -38.5t39 -57.5t14.5 -70v-280q0 -9 -5.5 -13.5t-12.5 -4.5q-6 0 -11.5 4.5t-5.5 13.5v280
q0 27 -11 53.5t-30.5 46.5t-45.5 32.5t-55 12.5q-26 0 -50.5 -10t-43.5 -28.5t-31 -45.5t-12 -61v-280q0 -7 -5 -12.5t-13 -5.5t-12.5 5.5t-4.5 12.5v574h-32q-17 0 -17 17z" />
    <glyph glyph-name="hcircumflex" unicode="&#x125;" horiz-adv-x="482" 
d="M104 18q0 -7 -5 -12.5t-13 -5.5t-12.5 5.5t-4.5 12.5v733q0 17 17 17q8 0 13 -4.5t5 -12.5v-349q17 29 50 52.5t84 23.5q37 0 69.5 -14t57 -38.5t39 -57.5t14.5 -70v-280q0 -9 -5.5 -13.5t-12.5 -4.5q-6 0 -11.5 4.5t-5.5 13.5v280q0 27 -11 53.5t-30.5 46.5t-45.5 32.5
t-55 12.5q-26 0 -50.5 -10t-43.5 -28.5t-31 -45.5t-12 -61v-280zM-16 858l-4 -2t-4 -1q-7 0 -12.5 5.5t-5.5 13.5q0 9 9 14l104 56q8 5 17 5t17 -5l104 -55q9 -5 9 -17q0 -7 -5 -11.5t-12 -4.5q-2 0 -4.5 1t-4.5 2l-104 55z" />
    <glyph glyph-name="hungarumlaut" unicode="&#x2dd;" horiz-adv-x="280" 
d="M28 604q-5 -3 -9 -3q-8 0 -13.5 5t-5.5 13q0 9 8 13l102 60q4 2 7 2q8 0 12 -5.5t4 -12.5q0 -12 -10 -18zM175 604q-5 -3 -9 -3q-8 0 -13.5 5t-5.5 13q0 9 8 13l102 60q4 2 7 2q8 0 12 -5.5t4 -12.5q0 -12 -10 -18z" />
    <glyph glyph-name="hyphen" unicode="-" horiz-adv-x="395" 
d="M50 240q0 8 4.5 13t12.5 5h260q7 0 12.5 -5t5.5 -13t-5.5 -12.5t-12.5 -4.5h-260q-17 0 -17 17z" />
    <glyph glyph-name="i" unicode="i" horiz-adv-x="171" 
d="M85 472q8 0 13 -4.5t5 -12.5v-437q0 -7 -5 -12.5t-13 -5.5q-7 0 -12 5.5t-5 12.5v437q0 8 5 12.5t12 4.5zM85 691q13 0 22 -9t9 -22t-9 -22.5t-22 -9.5q-14 0 -23 9.5t-9 22.5t9 22t23 9z" />
    <glyph glyph-name="iacute" unicode="&#xed;" horiz-adv-x="171" 
d="M85 472q8 0 13 -4.5t5 -12.5v-437q0 -7 -5 -12.5t-13 -5.5q-7 0 -12 5.5t-5 12.5v437q0 8 5 12.5t12 4.5zM46 604q-5 -3 -9 -3q-8 0 -13.5 5t-5.5 13q0 9 8 13l102 60q4 2 7 2q8 0 12 -5.5t4 -12.5q0 -12 -10 -18z" />
    <glyph glyph-name="ibreve" unicode="&#x12d;" horiz-adv-x="171" 
d="M85 472q8 0 13 -4.5t5 -12.5v-437q0 -7 -5 -12.5t-13 -5.5q-7 0 -12 5.5t-5 12.5v437q0 8 5 12.5t12 4.5zM195 710q0 -22 -9 -42t-24 -35t-35 -23.5t-41 -8.5q-22 0 -41.5 8.5t-34.5 23.5t-24 35t-9 42h32q0 -35 22.5 -59t54.5 -24q31 0 53.5 24t22.5 59h33z" />
    <glyph glyph-name="icircumflex" unicode="&#xee;" horiz-adv-x="171" 
d="M85 472q8 0 13 -4.5t5 -12.5v-437q0 -7 -5 -12.5t-13 -5.5q-7 0 -12 5.5t-5 12.5v437q0 8 5 12.5t12 4.5zM-19 603l-4 -2t-4 -1q-7 0 -12.5 5.5t-5.5 13.5q0 9 9 14l104 56q8 5 17 5t17 -5l104 -55q9 -5 9 -17q0 -7 -5 -11.5t-12 -4.5q-2 0 -4.5 1t-4.5 2l-104 55z" />
    <glyph glyph-name="idieresis" unicode="&#xef;" horiz-adv-x="171" 
d="M85 472q8 0 13 -4.5t5 -12.5v-437q0 -7 -5 -12.5t-13 -5.5q-7 0 -12 5.5t-5 12.5v437q0 8 5 12.5t12 4.5zM31 659q13 0 21 -8t8 -21t-8 -21.5t-21 -8.5q-14 0 -22 8.5t-8 21.5t8 21t22 8zM142 659q13 0 21 -8t8 -21t-8 -21.5t-21 -8.5q-14 0 -22 8.5t-8 21.5t8 21t22 8z
" />
    <glyph glyph-name="igrave" unicode="&#xec;" horiz-adv-x="171" 
d="M85 472q8 0 13 -4.5t5 -12.5v-437q0 -7 -5 -12.5t-13 -5.5q-7 0 -12 5.5t-5 12.5v437q0 8 5 12.5t12 4.5zM28 658q-10 6 -10 18q0 7 4 12.5t12 5.5q3 0 7 -2l102 -60q8 -4 8 -13q0 -8 -5.5 -13t-13.5 -5q-5 0 -9 3z" />
    <glyph glyph-name="ij" unicode="&#x133;" horiz-adv-x="345" 
d="M85 472q8 0 13 -4.5t5 -12.5v-437q0 -7 -5 -12.5t-13 -5.5q-7 0 -12 5.5t-5 12.5v437q0 8 5 12.5t12 4.5zM85 691q13 0 22 -9t9 -22t-9 -22.5t-22 -9.5q-14 0 -23 9.5t-9 22.5t9 22t23 9zM258 472q8 0 13 -4.5t5 -12.5v-503q0 -42 -6 -76.5t-20.5 -59.5t-38 -39
t-57.5 -14q-8 0 -13 5.5t-5 12.5q0 8 5 12.5t13 4.5q29 0 46 11.5t26 32t12 49t3 61.5v503q0 17 17 17zM258 691q13 0 22 -9t9 -22t-9 -22.5t-22 -9.5q-14 0 -23 9.5t-9 22.5t9 22t23 9z" />
    <glyph glyph-name="imacron" unicode="&#x12b;" horiz-adv-x="171" 
d="M85 472q8 0 13 -4.5t5 -12.5v-437q0 -7 -5 -12.5t-13 -5.5q-7 0 -12 5.5t-5 12.5v437q0 8 5 12.5t12 4.5zM-43 664q0 8 4.5 13t12.5 5h220q7 0 12.5 -5t5.5 -13t-5.5 -12.5t-12.5 -4.5h-220q-17 0 -17 17z" />
    <glyph glyph-name="infinity" unicode="&#x221e;" horiz-adv-x="843" 
d="M224 393q55 0 108.5 -32t88.5 -87q35 55 88.5 87t109.5 32q31 0 59.5 -10t50.5 -29.5t35.5 -49t13.5 -68.5t-13.5 -68.5t-35.5 -49t-51 -29.5t-60 -10q-55 0 -108.5 31.5t-88.5 86.5q-35 -55 -88.5 -86.5t-108.5 -31.5q-31 0 -59.5 10t-50.5 29.5t-35.5 49t-13.5 68.5
t13.5 68.5t35.5 49t50.5 29.5t59.5 10zM442 236q14 -31 34.5 -53.5t44 -37.5t48.5 -22.5t49 -7.5q25 0 47.5 7t39.5 22t27 38t10 54t-10 54t-27 38t-39.5 22t-47.5 7q-24 0 -49 -7.5t-48.5 -22.5t-44 -37.5t-34.5 -53.5zM401 236q-14 31 -34.5 53.5t-44 37.5t-48.5 22.5
t-49 7.5q-25 0 -47.5 -7t-39.5 -22t-27 -38t-10 -54t10 -54t27 -38t39.5 -22t47.5 -7q24 0 49 7.5t48.5 22.5t44 37.5t34.5 53.5z" />
    <glyph glyph-name="integral" unicode="&#x222b;" horiz-adv-x="326" 
d="M27 -200q-5 0 -11 5t-6 13q0 5 3.5 11t13.5 6q20 0 41 4t38 14.5t28 29.5t11 49v669q0 29 11.5 55.5t31.5 47t48.5 32.5t62.5 12q8 0 12.5 -5t4.5 -12q0 -8 -5 -13t-12 -5q-29 0 -51 -10t-37 -26t-22.5 -36t-7.5 -40v-669q0 -63 -42.5 -97.5t-111.5 -34.5z" />
    <glyph glyph-name="iogonek" unicode="&#x12f;" horiz-adv-x="173" 
d="M89 -167q8 0 13 -2.5t5 -10.5q0 -13 -23 -13q-14 0 -29 3t-28 10.5t-21.5 20.5t-8.5 33q0 43 20.5 78t52.5 66v437q0 8 5 12.5t12 4.5q8 0 13 -4.5t5 -12.5v-437q0 -10 -8 -15q-30 -29 -50.5 -58.5t-20.5 -68.5q0 -25 17 -34t46 -9zM87 691q13 0 22 -9t9 -22t-9 -22.5
t-22 -9.5q-14 0 -23 9.5t-9 22.5t9 22t23 9z" />
    <glyph glyph-name="itilde" unicode="&#x129;" horiz-adv-x="171" 
d="M85 472q8 0 13 -4.5t5 -12.5v-437q0 -7 -5 -12.5t-13 -5.5q-7 0 -12 5.5t-5 12.5v437q0 8 5 12.5t12 4.5zM153 653q17 0 27 5t16.5 11t11 11t10.5 5q5 0 9.5 -4t4.5 -11q0 -12 -8.5 -21t-21.5 -16t-27.5 -10.5t-26.5 -3.5q-18 0 -32.5 6t-29 12.5t-30.5 12.5t-37 6
q-16 0 -27 -5.5t-18.5 -12t-13 -12t-10.5 -5.5q-13 0 -13 17q0 10 9 19t22 16.5t28.5 12t29.5 4.5q18 0 33 -6t29.5 -12.5t30 -12.5t34.5 -6z" />
    <glyph glyph-name="j" unicode="j" horiz-adv-x="173" 
d="M86 472q8 0 13 -4.5t5 -12.5v-503q0 -42 -6 -76.5t-20.5 -59.5t-38 -39t-57.5 -14q-8 0 -13 5.5t-5 12.5q0 8 5 12.5t13 4.5q29 0 46 11.5t26 32t12 49t3 61.5v503q0 17 17 17zM86 691q13 0 22 -9t9 -22t-9 -22.5t-22 -9.5q-14 0 -23 9.5t-9 22.5t9 22t23 9z" />
    <glyph glyph-name="jcircumflex" unicode="&#x135;" horiz-adv-x="173" 
d="M86 472q8 0 13 -4.5t5 -12.5v-503q0 -42 -6 -76.5t-20.5 -59.5t-38 -39t-57.5 -14q-8 0 -13 5.5t-5 12.5q0 8 5 12.5t13 4.5q29 0 46 11.5t26 32t12 49t3 61.5v503q0 17 17 17zM-17 603l-4 -2t-4 -1q-7 0 -12.5 5.5t-5.5 13.5q0 9 9 14l104 56q8 5 17 5t17 -5l104 -55
q9 -5 9 -17q0 -7 -5 -11.5t-12 -4.5q-2 0 -4.5 1t-4.5 2l-104 55z" />
    <glyph glyph-name="k" unicode="k" horiz-adv-x="437" 
d="M86 768q8 0 13 -4.5t5 -12.5v-518l270 235q6 4 10 4q7 0 13 -3.5t6 -12.5q0 -10 -6 -15l-161 -140l185 -273q3 -5 3 -10q0 -7 -4.5 -12.5t-12.5 -5.5t-14 9l-184 269l-105 -92v-168q0 -7 -5 -12.5t-13 -5.5t-12.5 5.5t-4.5 12.5v733q0 17 17 17z" />
    <glyph glyph-name="kcommaaccent" unicode="&#x137;" horiz-adv-x="437" 
d="M86 768q8 0 13 -4.5t5 -12.5v-518l270 235q6 4 10 4q7 0 13 -3.5t6 -12.5q0 -10 -6 -15l-161 -140l185 -273q3 -5 3 -10q0 -7 -4.5 -12.5t-12.5 -5.5t-14 9l-184 269l-105 -92v-168q0 -7 -5 -12.5t-13 -5.5t-12.5 5.5t-4.5 12.5v733q0 17 17 17zM181 -138q-5 -3 -9 -3
q-8 0 -13.5 5t-5.5 13q0 9 8 13l102 60q4 2 7 2q8 0 12 -5.5t4 -12.5q0 -12 -10 -18z" />
    <glyph glyph-name="kgreenlandic" unicode="&#x138;" horiz-adv-x="436" 
d="M85 472q8 0 13 -4.5t5 -12.5v-222l270 235q6 4 10 4q7 0 13 -3.5t6 -12.5q0 -10 -6 -15l-161 -140l185 -273q3 -5 3 -10q0 -7 -4.5 -12.5t-12.5 -5.5t-14 9l-184 269l-105 -92v-168q0 -7 -5 -12.5t-13 -5.5t-12.5 5.5t-4.5 12.5v437q0 17 17 17z" />
    <glyph glyph-name="l" unicode="l" horiz-adv-x="189" 
d="M94 768q8 0 13 -4.5t5 -12.5v-733q0 -7 -5 -12.5t-13 -5.5t-12.5 5.5t-4.5 12.5v733q0 17 17 17z" />
    <glyph glyph-name="lacute" unicode="&#x13a;" horiz-adv-x="189" 
d="M94 768q8 0 13 -4.5t5 -12.5v-733q0 -7 -5 -12.5t-13 -5.5t-12.5 5.5t-4.5 12.5v733q0 17 17 17zM56 814q-5 -3 -9 -3q-8 0 -13.5 5t-5.5 13q0 9 8 13l102 60q4 2 7 2q8 0 12 -5.5t4 -12.5q0 -12 -10 -18z" />
    <glyph glyph-name="lcaron" unicode="&#x13e;" horiz-adv-x="189" 
d="M94 768q8 0 13 -4.5t5 -12.5v-733q0 -7 -5 -12.5t-13 -5.5t-12.5 5.5t-4.5 12.5v733q0 17 17 17zM217 741q14 0 24.5 -10.5t10.5 -25.5q0 -6 -3 -17.5t-7.5 -25t-10.5 -28t-12 -26.5q-5 -10 -14 -10q-6 0 -11 4t-5 11q0 4 1 6l18 51q-12 3 -19.5 13t-7.5 22q0 15 10 25.5
t26 10.5z" />
    <glyph glyph-name="lcommaaccent" unicode="&#x13c;" horiz-adv-x="189" 
d="M94 768q8 0 13 -4.5t5 -12.5v-733q0 -7 -5 -12.5t-13 -5.5t-12.5 5.5t-4.5 12.5v733q0 17 17 17zM59 -138q-5 -3 -9 -3q-8 0 -13.5 5t-5.5 13q0 9 8 13l102 60q4 2 7 2q8 0 12 -5.5t4 -12.5q0 -12 -10 -18z" />
    <glyph glyph-name="ldot" unicode="&#x140;" horiz-adv-x="286" 
d="M94 768q8 0 13 -4.5t5 -12.5v-733q0 -7 -5 -12.5t-13 -5.5t-12.5 5.5t-4.5 12.5v733q0 17 17 17zM238 336q14 0 24.5 -10.5t10.5 -25.5q0 -14 -10.5 -25t-24.5 -11q-16 0 -26 11t-10 25q0 15 10 25.5t26 10.5z" />
    <glyph glyph-name="less" unicode="&#x3c;" horiz-adv-x="395" 
d="M76 277l258 -171q9 -5 9 -15q0 -8 -6 -12.5t-13 -4.5q-5 0 -9 3l-275 182q-4 2 -7 7t-3 11t3.5 11.5t6.5 7.5l275 182q4 3 9 3q7 0 13 -4.5t6 -12.5q0 -10 -9 -15z" />
    <glyph glyph-name="lessequal" unicode="&#x2264;" horiz-adv-x="434" 
d="M371 85q0 -17 -17 -17h-278q-7 0 -12.5 4.5t-5.5 12.5t5.5 13t12.5 5h278q8 0 12.5 -5t4.5 -13zM104 345l258 -145q9 -5 9 -15q0 -8 -6 -12.5t-13 -4.5q-5 0 -9 3l-275 156q-4 2 -7 7t-3 11t3.5 11.5t6.5 7.5l275 156q4 3 9 3q7 0 13 -4.5t6 -12.5q0 -10 -9 -15z" />
    <glyph glyph-name="logicalnot" unicode="&#xac;" horiz-adv-x="479" 
d="M389 63q-8 0 -13 4.5t-5 12.5v143h-293q-17 0 -17 17q0 8 4.5 13t12.5 5h310q7 0 12.5 -5t5.5 -13v-160q0 -17 -17 -17z" />
    <glyph glyph-name="lozenge" unicode="&#x25ca;" horiz-adv-x="448" 
d="M258 36q-9 -17 -16 -27t-18 -10q-12 0 -18.5 9.5t-15.5 27.5l-149 291q-6 11 -9.5 20t-3.5 18t3.5 18.5t9.5 21.5l148 290q9 18 15.5 27t19.5 9t19.5 -9t15.5 -27l148 -290q6 -12 9.5 -21.5t3.5 -18.5t-3.5 -18t-9.5 -20zM224 684l-163 -318l163 -318l163 318z" />
    <glyph glyph-name="lslash" unicode="&#x142;" horiz-adv-x="297" 
d="M142 768q8 0 13 -4.5t5 -12.5v-376l94 55q3 2 9 2q7 0 12 -4.5t5 -11.5q0 -11 -9 -16l-111 -64v-318q0 -7 -5 -12.5t-13 -5.5t-12.5 5.5t-4.5 12.5v297l-79 -45q-5 -3 -9 -3q-6 0 -11.5 5.5t-5.5 13.5q0 9 9 14l96 55v396q0 17 17 17z" />
    <glyph glyph-name="m" unicode="m" horiz-adv-x="767" 
d="M368 303q0 30 -10 55.5t-27.5 44t-41 29.5t-50.5 11q-25 0 -49.5 -10t-43.5 -28.5t-31 -45.5t-12 -61v-280q0 -7 -5 -12.5t-13 -5.5t-12.5 5.5t-4.5 12.5v437q0 17 17 17q8 0 13 -4.5t5 -12.5v-53q17 29 50 52.5t84 23.5q52 0 91 -27.5t59 -72.5q26 51 67 75.5t85 24.5
q31 0 61 -12t52.5 -35t36.5 -56.5t14 -76.5v-280q0 -7 -5 -12.5t-13 -5.5q-7 0 -12 5.5t-5 12.5v280q0 36 -11.5 63t-30 45.5t-42 27.5t-46.5 9q-25 0 -49.5 -10t-43.5 -28.5t-30.5 -44t-11.5 -56.5v-287q0 -9 -5.5 -13t-12.5 -4q-6 0 -11.5 4t-5.5 13v286z" />
    <glyph glyph-name="m.ss04" horiz-adv-x="763" 
d="M381 374q26 54 67.5 79t86.5 25q31 0 61 -12t52.5 -35t36.5 -56.5t14 -76.5v-280q0 -7 -5 -12.5t-13 -5.5q-7 0 -12 5.5t-5 12.5v280q0 36 -11.5 63t-30.5 45.5t-42 27.5t-47 9q-26 0 -50 -10.5t-43 -30t-30 -46t-11 -58.5v-281q0 -9 -5.5 -13t-12.5 -4q-6 0 -11.5 4
t-5.5 13v281q0 32 -11.5 58.5t-30.5 46t-43.5 30t-50.5 10.5q-23 0 -46 -9t-41.5 -27t-30 -45.5t-11.5 -63.5v-281q0 -7 -5 -12t-13 -5t-12.5 5t-4.5 12v281q0 43 13.5 76.5t36 56.5t51 35t59.5 12q45 0 87 -25t70 -79z" />
    <glyph glyph-name="macron" unicode="&#xaf;" horiz-adv-x="255" 
d="M0 664q0 8 4.5 13t12.5 5h220q7 0 12.5 -5t5.5 -13t-5.5 -12.5t-12.5 -4.5h-220q-17 0 -17 17z" />
    <glyph glyph-name="minus" unicode="&#x2212;" horiz-adv-x="480" 
d="M63 284q0 8 4.5 13t12.5 5h320q7 0 12.5 -5t5.5 -13t-5.5 -12.5t-12.5 -4.5h-320q-17 0 -17 17z" />
    <glyph glyph-name="mu" unicode="&#xb5;" horiz-adv-x="477" 
d="M112 150q0 -17 12 -37.5t32 -39.5t46 -31.5t54 -12.5q27 0 51.5 12.5t43 32.5t29.5 46.5t11 53.5v280q0 9 5.5 13.5t11.5 4.5q7 0 12.5 -4.5t5.5 -13.5v-280q0 -37 -13 -70t-36 -57.5t-54.5 -38.5t-68.5 -14q-51 0 -88 23.5t-54 52.5v-290q0 -8 -5 -12.5t-13 -4.5
q-17 0 -17 17v674q0 7 4.5 12.5t12.5 5.5t13 -5.5t5 -12.5v-304z" />
    <glyph glyph-name="multiply" unicode="&#xd7;" horiz-adv-x="393" 
d="M327 162q0 -6 -4.5 -11.5t-12.5 -5.5q-7 0 -12 5l-102 101l-101 -101q-5 -5 -12 -5t-12 5t-5 12t5 12l101 101l-101 101q-5 5 -5 13q0 7 5 12t12 5q8 0 13 -5l100 -101l101 101q5 5 13 5q7 0 12 -5t5 -12q0 -8 -5 -13l-101 -101l101 -101q5 -5 5 -12z" />
    <glyph glyph-name="n" unicode="n" horiz-adv-x="481" 
d="M103 18q0 -7 -5 -12.5t-13 -5.5t-12.5 5.5t-4.5 12.5v437q0 17 17 17q8 0 13 -4.5t5 -12.5v-53q17 29 50 52.5t84 23.5q37 0 69.5 -14t57 -38.5t39 -57.5t14.5 -70v-280q0 -9 -5.5 -13.5t-12.5 -4.5q-6 0 -11.5 4.5t-5.5 13.5v280q0 27 -11 53.5t-30.5 46.5t-45.5 32.5
t-55 12.5q-26 0 -50.5 -10t-43.5 -28.5t-31 -45.5t-12 -61v-280z" />
    <glyph glyph-name="n.ss04" horiz-adv-x="483" 
d="M241 478q37 0 69.5 -15t56.5 -39.5t38 -57t14 -68.5v-280q0 -7 -5 -12.5t-13 -5.5q-7 0 -12 5.5t-5 12.5v280q0 28 -11 54t-30.5 46t-45.5 32.5t-56 12.5t-55.5 -12t-45 -32.5t-30.5 -46.5t-11 -54v-281q0 -7 -5 -12t-13 -5t-12.5 5t-4.5 12v281q0 36 14 68.5t38.5 57.5
t56.5 39.5t68 14.5z" />
    <glyph glyph-name="nacute" unicode="&#x144;" horiz-adv-x="481" 
d="M103 18q0 -7 -5 -12.5t-13 -5.5t-12.5 5.5t-4.5 12.5v437q0 17 17 17q8 0 13 -4.5t5 -12.5v-53q17 29 50 52.5t84 23.5q37 0 69.5 -14t57 -38.5t39 -57.5t14.5 -70v-280q0 -9 -5.5 -13.5t-12.5 -4.5q-6 0 -11.5 4.5t-5.5 13.5v280q0 27 -11 53.5t-30.5 46.5t-45.5 32.5
t-55 12.5q-26 0 -50.5 -10t-43.5 -28.5t-31 -45.5t-12 -61v-280zM199 604q-5 -3 -9 -3q-8 0 -13.5 5t-5.5 13q0 9 8 13l102 60q4 2 7 2q8 0 12 -5.5t4 -12.5q0 -12 -10 -18z" />
    <glyph glyph-name="ncaron" unicode="&#x148;" horiz-adv-x="481" 
d="M257 599q-11 -11 -21 -11q-12 0 -21 11l-100 101q-8 10 -8 16q0 5 4 10t11 5q9 0 16 -8l98 -103l98 103q7 8 16 8q7 0 11 -5t4 -10q0 -6 -8 -16zM103 18q0 -7 -5 -12.5t-13 -5.5t-12.5 5.5t-4.5 12.5v437q0 17 17 17q8 0 13 -4.5t5 -12.5v-53q17 29 50 52.5t84 23.5
q37 0 69.5 -14t57 -38.5t39 -57.5t14.5 -70v-280q0 -9 -5.5 -13.5t-12.5 -4.5q-6 0 -11.5 4.5t-5.5 13.5v280q0 27 -11 53.5t-30.5 46.5t-45.5 32.5t-55 12.5q-26 0 -50.5 -10t-43.5 -28.5t-31 -45.5t-12 -61v-280z" />
    <glyph glyph-name="ncommaaccent" unicode="&#x146;" horiz-adv-x="481" 
d="M103 18q0 -7 -5 -12.5t-13 -5.5t-12.5 5.5t-4.5 12.5v437q0 17 17 17q8 0 13 -4.5t5 -12.5v-53q17 29 50 52.5t84 23.5q37 0 69.5 -14t57 -38.5t39 -57.5t14.5 -70v-280q0 -9 -5.5 -13.5t-12.5 -4.5q-6 0 -11.5 4.5t-5.5 13.5v280q0 27 -11 53.5t-30.5 46.5t-45.5 32.5
t-55 12.5q-26 0 -50.5 -10t-43.5 -28.5t-31 -45.5t-12 -61v-280zM190 -138q-5 -3 -9 -3q-8 0 -13.5 5t-5.5 13q0 9 8 13l102 60q4 2 7 2q8 0 12 -5.5t4 -12.5q0 -12 -10 -18z" />
    <glyph glyph-name="nine" unicode="9" horiz-adv-x="504" 
d="M243 300q-41 0 -77 9.5t-62 32t-41 60.5t-15 94v29q0 56 15 95.5t41 64t62 35.5t77 11t77 -11t62.5 -35.5t41.5 -64t15 -95.5v-325q0 -56 -15 -95.5t-41.5 -64t-62 -35.5t-76.5 -11q-46 0 -82.5 13.5t-61.5 36t-38.5 52.5t-13.5 63q0 11 5 15.5t12 4.5t13 -4.5t6 -13.5
q0 -30 12.5 -54t34.5 -41t51 -26.5t62 -9.5q75 0 117 41t42 129v174q-26 -38 -67.5 -56t-92.5 -18zM403 525q0 88 -42.5 129t-117.5 41t-117 -41t-42 -129v-29q0 -87 42 -123.5t117 -36.5q36 0 65.5 8t50.5 26t32.5 47t11.5 70v38z" />
    <glyph glyph-name="nineinferior" unicode="&#x2089;" horiz-adv-x="323" 
d="M153 147q-23 0 -43.5 5t-35.5 16.5t-23.5 30.5t-8.5 48v12q0 58 33 82.5t82 24.5t82 -24.5t33 -82.5v-155q0 -29 -9 -49.5t-24.5 -33.5t-36.5 -18.5t-46 -5.5q-28 0 -49 7t-35.5 19t-22 27.5t-7.5 31.5t16 16q7 0 12 -3t5 -11q0 -26 24 -41t58 -15q38 0 60 18.5t22 57.5
v76q-15 -17 -37.5 -25t-48.5 -8zM239 260q0 39 -22 57.5t-60 18.5t-59.5 -18.5t-21.5 -57.5v-12q0 -39 21.5 -55.5t59.5 -16.5q37 0 59.5 15t22.5 53v16z" />
    <glyph glyph-name="ninesuperior" unicode="&#x2079;" horiz-adv-x="323" 
d="M153 512q-23 0 -43.5 5t-35.5 16.5t-23.5 30.5t-8.5 48v12q0 58 33 82.5t82 24.5t82 -24.5t33 -82.5v-155q0 -29 -9 -49.5t-24.5 -33.5t-36.5 -18.5t-46 -5.5q-28 0 -49 7t-35.5 19t-22 27.5t-7.5 31.5t16 16q7 0 12 -3t5 -11q0 -26 24 -41t58 -15q38 0 60 18.5t22 57.5
v76q-15 -17 -37.5 -25t-48.5 -8zM239 625q0 39 -22 57.5t-60 18.5t-59.5 -18.5t-21.5 -57.5v-12q0 -39 21.5 -55.5t59.5 -16.5q37 0 59.5 15t22.5 53v16z" />
    <glyph glyph-name="notequal" unicode="&#x2260;" horiz-adv-x="463" 
d="M302 397h84q7 0 12.5 -5t5.5 -13t-5.5 -12.5t-12.5 -4.5h-99l-75 -168h174q7 0 12.5 -5t5.5 -13t-5.5 -12.5t-12.5 -4.5h-190l-74 -168q-6 -12 -17 -12q-6 0 -11 4t-5 11t2 10l68 155h-83q-17 0 -17 17q0 8 4.5 13t12.5 5h99l74 168h-173q-17 0 -17 17q0 8 4.5 13t12.5 5
h189l80 181q4 8 13 8q6 0 12 -5.5t6 -13.5q0 -5 -3 -11z" />
    <glyph glyph-name="ntilde" unicode="&#xf1;" horiz-adv-x="481" 
d="M306 653q17 0 27 5t16.5 11t11 11t10.5 5q5 0 9.5 -4t4.5 -11q0 -12 -8.5 -21t-21.5 -16t-27.5 -10.5t-26.5 -3.5q-18 0 -32.5 6t-29 12.5t-30.5 12.5t-37 6q-16 0 -27 -5.5t-18.5 -12t-13 -12t-10.5 -5.5q-13 0 -13 17q0 10 9 19t22 16.5t28.5 12t29.5 4.5q18 0 33 -6
t29.5 -12.5t30 -12.5t34.5 -6zM103 18q0 -7 -5 -12.5t-13 -5.5t-12.5 5.5t-4.5 12.5v437q0 17 17 17q8 0 13 -4.5t5 -12.5v-53q17 29 50 52.5t84 23.5q37 0 69.5 -14t57 -38.5t39 -57.5t14.5 -70v-280q0 -9 -5.5 -13.5t-12.5 -4.5q-6 0 -11.5 4.5t-5.5 13.5v280
q0 27 -11 53.5t-30.5 46.5t-45.5 32.5t-55 12.5q-26 0 -50.5 -10t-43.5 -28.5t-31 -45.5t-12 -61v-280z" />
    <glyph glyph-name="numbersign" unicode="#" horiz-adv-x="547" 
d="M322 51q-3 -15 -17 -15q-16 0 -16 19l32 213h-134l-32 -216q-2 -9 -6 -12.5t-9 -3.5q-7 0 -12 5t-5 14l31 213h-104q-18 0 -18 15q0 6 3.5 10.5t8.5 4.5h116l26 177h-105q-18 0 -18 16q0 14 12 14h116l30 198q2 10 12 10t14.5 -6t4.5 -14l-29 -188h135l30 198q2 10 12 10
t14.5 -6t4.5 -14l-29 -188h107q6 0 12.5 -3.5t6.5 -11.5q0 -5 -4 -10t-9 -5h-117l-27 -177h107q6 0 12.5 -4t6.5 -12q0 -5 -4 -9.5t-9 -4.5h-118zM192 298h134l27 177h-134z" />
    <glyph glyph-name="o" unicode="o" 
d="M227 478q36 0 68 -14t56.5 -38.5t39 -57.5t14.5 -70v-122q0 -36 -14.5 -68.5t-39 -58t-56.5 -40.5t-68 -15t-68 15t-56 40t-38.5 58t-14.5 69v122q0 36 14 68.5t38 57.5t56.5 39.5t68.5 14.5zM370 298q0 27 -11 53.5t-30.5 46.5t-45.5 32.5t-56 12.5t-56 -12.5t-45 -32.5
t-30 -46.5t-11 -53.5v-122q0 -28 11 -54.5t30.5 -47t45 -33t55.5 -12.5t56 12.5t45.5 33t30.5 47t11 54.5v122z" />
    <glyph glyph-name="oacute" unicode="&#xf3;" 
d="M227 478q36 0 68 -14t56.5 -38.5t39 -57.5t14.5 -70v-122q0 -36 -14.5 -68.5t-39 -58t-56.5 -40.5t-68 -15t-68 15t-56 40t-38.5 58t-14.5 69v122q0 36 14 68.5t38 57.5t56.5 39.5t68.5 14.5zM370 298q0 27 -11 53.5t-30.5 46.5t-45.5 32.5t-56 12.5t-56 -12.5t-45 -32.5
t-30 -46.5t-11 -53.5v-122q0 -28 11 -54.5t30.5 -47t45 -33t55.5 -12.5t56 12.5t45.5 33t30.5 47t11 54.5v122zM189 604q-5 -3 -9 -3q-8 0 -13.5 5t-5.5 13q0 9 8 13l102 60q4 2 7 2q8 0 12 -5.5t4 -12.5q0 -12 -10 -18z" />
    <glyph glyph-name="obreve" unicode="&#x14f;" 
d="M227 478q36 0 68 -14t56.5 -38.5t39 -57.5t14.5 -70v-122q0 -36 -14.5 -68.5t-39 -58t-56.5 -40.5t-68 -15t-68 15t-56 40t-38.5 58t-14.5 69v122q0 36 14 68.5t38 57.5t56.5 39.5t68.5 14.5zM370 298q0 27 -11 53.5t-30.5 46.5t-45.5 32.5t-56 12.5t-56 -12.5t-45 -32.5
t-30 -46.5t-11 -53.5v-122q0 -28 11 -54.5t30.5 -47t45 -33t55.5 -12.5t56 12.5t45.5 33t30.5 47t11 54.5v122zM336 710q0 -22 -9 -42t-24 -35t-35 -23.5t-41 -8.5q-22 0 -41.5 8.5t-34.5 23.5t-24 35t-9 42h32q0 -35 22.5 -59t54.5 -24q31 0 53.5 24t22.5 59h33z" />
    <glyph glyph-name="ocircumflex" unicode="&#xf4;" 
d="M227 478q36 0 68 -14t56.5 -38.5t39 -57.5t14.5 -70v-122q0 -36 -14.5 -68.5t-39 -58t-56.5 -40.5t-68 -15t-68 15t-56 40t-38.5 58t-14.5 69v122q0 36 14 68.5t38 57.5t56.5 39.5t68.5 14.5zM370 298q0 27 -11 53.5t-30.5 46.5t-45.5 32.5t-56 12.5t-56 -12.5t-45 -32.5
t-30 -46.5t-11 -53.5v-122q0 -28 11 -54.5t30.5 -47t45 -33t55.5 -12.5t56 12.5t45.5 33t30.5 47t11 54.5v122zM123 603l-4 -2t-4 -1q-7 0 -12.5 5.5t-5.5 13.5q0 9 9 14l104 56q8 5 17 5t17 -5l104 -55q9 -5 9 -17q0 -7 -5 -11.5t-12 -4.5q-2 0 -4.5 1t-4.5 2l-104 55z" />
    <glyph glyph-name="odieresis" unicode="&#xf6;" 
d="M227 478q36 0 68 -14t56.5 -38.5t39 -57.5t14.5 -70v-122q0 -36 -14.5 -68.5t-39 -58t-56.5 -40.5t-68 -15t-68 15t-56 40t-38.5 58t-14.5 69v122q0 36 14 68.5t38 57.5t56.5 39.5t68.5 14.5zM370 298q0 27 -11 53.5t-30.5 46.5t-45.5 32.5t-56 12.5t-56 -12.5t-45 -32.5
t-30 -46.5t-11 -53.5v-122q0 -28 11 -54.5t30.5 -47t45 -33t55.5 -12.5t56 12.5t45.5 33t30.5 47t11 54.5v122zM172 659q13 0 21 -8t8 -21t-8 -21.5t-21 -8.5q-14 0 -22 8.5t-8 21.5t8 21t22 8zM283 659q13 0 21 -8t8 -21t-8 -21.5t-21 -8.5q-14 0 -22 8.5t-8 21.5t8 21
t22 8z" />
    <glyph glyph-name="oe" unicode="&#x153;" horiz-adv-x="764" 
d="M227 478q51 0 94 -28.5t66 -74.5q21 45 64 74t97 29q35 0 67 -13.5t56.5 -37.5t39 -56.5t14.5 -70.5q0 -28 -6.5 -43.5t-18 -23t-26.5 -9t-32 -1.5h-237v-47q0 -69 47.5 -108t124.5 -39q31 0 49.5 6.5t30.5 14t19 14t15 6.5q7 0 13 -4.5t6 -15.5q0 -7 -10.5 -16.5
t-29 -18.5t-44 -15t-55.5 -6q-66 0 -114 28t-71 76q-22 -45 -65 -74.5t-94 -29.5q-36 0 -68 15t-56 40t-38.5 58t-14.5 69v122q0 36 14 68.5t38 57.5t56.5 39.5t68.5 14.5zM370 298q0 27 -11 53.5t-30.5 46.5t-45.5 32.5t-56 12.5t-56 -12.5t-45 -32.5t-30 -46.5t-11 -53.5
v-122q0 -28 11 -54.5t30.5 -47t45 -33t55.5 -12.5t56 12.5t45.5 33t30.5 47t11 54.5v122zM630 258q37 0 48.5 7t11.5 30q0 27 -10 53.5t-28.5 47.5t-45 34t-58.5 13q-30 0 -56 -11.5t-45.5 -30.5t-30.5 -44t-11 -52v-47h225z" />
    <glyph glyph-name="ogonek" unicode="&#x2db;" horiz-adv-x="110" 
d="M92 -169q8 0 13 -2.5t5 -10.5q0 -13 -23 -13q-14 0 -29 3t-28 10.5t-21.5 20.5t-8.5 33q0 44 21 79t54 67l26 -16q-30 -29 -51 -59t-21 -69q0 -25 17 -34t46 -9z" />
    <glyph glyph-name="ograve" unicode="&#xf2;" 
d="M227 478q36 0 68 -14t56.5 -38.5t39 -57.5t14.5 -70v-122q0 -36 -14.5 -68.5t-39 -58t-56.5 -40.5t-68 -15t-68 15t-56 40t-38.5 58t-14.5 69v122q0 36 14 68.5t38 57.5t56.5 39.5t68.5 14.5zM370 298q0 27 -11 53.5t-30.5 46.5t-45.5 32.5t-56 12.5t-56 -12.5t-45 -32.5
t-30 -46.5t-11 -53.5v-122q0 -28 11 -54.5t30.5 -47t45 -33t55.5 -12.5t56 12.5t45.5 33t30.5 47t11 54.5v122zM171 658q-10 6 -10 18q0 7 4 12.5t12 5.5q3 0 7 -2l102 -60q8 -4 8 -13q0 -8 -5.5 -13t-13.5 -5q-5 0 -9 3z" />
    <glyph glyph-name="ohungarumlaut" unicode="&#x151;" 
d="M227 478q36 0 68 -14t56.5 -38.5t39 -57.5t14.5 -70v-122q0 -36 -14.5 -68.5t-39 -58t-56.5 -40.5t-68 -15t-68 15t-56 40t-38.5 58t-14.5 69v122q0 36 14 68.5t38 57.5t56.5 39.5t68.5 14.5zM370 298q0 27 -11 53.5t-30.5 46.5t-45.5 32.5t-56 12.5t-56 -12.5t-45 -32.5
t-30 -46.5t-11 -53.5v-122q0 -28 11 -54.5t30.5 -47t45 -33t55.5 -12.5t56 12.5t45.5 33t30.5 47t11 54.5v122zM142 604q-5 -3 -9 -3q-8 0 -13.5 5t-5.5 13q0 9 8 13l102 60q4 2 7 2q8 0 12 -5.5t4 -12.5q0 -12 -10 -18zM289 604q-5 -3 -9 -3q-8 0 -13.5 5t-5.5 13q0 9 8 13
l102 60q4 2 7 2q8 0 12 -5.5t4 -12.5q0 -12 -10 -18z" />
    <glyph glyph-name="omacron" unicode="&#x14d;" 
d="M227 478q36 0 68 -14t56.5 -38.5t39 -57.5t14.5 -70v-122q0 -36 -14.5 -68.5t-39 -58t-56.5 -40.5t-68 -15t-68 15t-56 40t-38.5 58t-14.5 69v122q0 36 14 68.5t38 57.5t56.5 39.5t68.5 14.5zM370 298q0 27 -11 53.5t-30.5 46.5t-45.5 32.5t-56 12.5t-56 -12.5t-45 -32.5
t-30 -46.5t-11 -53.5v-122q0 -28 11 -54.5t30.5 -47t45 -33t55.5 -12.5t56 12.5t45.5 33t30.5 47t11 54.5v122zM100 664q0 8 4.5 13t12.5 5h220q7 0 12.5 -5t5.5 -13t-5.5 -12.5t-12.5 -4.5h-220q-17 0 -17 17z" />
    <glyph glyph-name="one" unicode="1" horiz-adv-x="209" 
d="M95 714q4 7 8.5 12t14.5 5q16 0 16 -17v-696q0 -9 -5.5 -13.5t-12.5 -4.5t-12.5 4.5t-5.5 13.5v621l-43 -80q-7 -13 -18 -13q-8 0 -13 5t-5 12q0 5 4 12.5t6 10.5z" />
    <glyph glyph-name="one.lnum" horiz-adv-x="385" 
d="M17 18q0 8 5 13t13 5h142v603l-43 -80q-7 -13 -18 -13q-8 0 -13 5t-5 12q0 4 3 10l4 8l69 133q4 7 8.5 12t14.5 5q16 0 16 -17v-678h141q7 0 12.5 -5t5.5 -13t-5.5 -13t-12.5 -5h-319q-8 0 -13 5t-5 13z" />
    <glyph glyph-name="oneeighth" unicode="&#x215b;" horiz-adv-x="619" 
d="M86 674l-23 -32q-4 -6 -10 -6t-10 4.5t-4 9.5q0 4 2.5 8.5t4.5 6.5l45 59q5 7 14 7q5 0 9.5 -3.5t4.5 -9.5v-340q0 -7 -5 -10t-11 -3q-7 0 -12 3t-5 10v296zM464 366q45 0 74.5 -19t29.5 -69q0 -32 -13 -51.5t-36 -27.5q27 -10 43.5 -32t16.5 -61v-6q0 -28 -9 -47.5
t-24.5 -32t-36.5 -18t-45 -5.5t-45 5.5t-36.5 18t-24.5 32t-9 47.5v6q0 39 16.5 61t43.5 32q-22 8 -35.5 27.5t-13.5 51.5q0 49 30 68.5t74 19.5zM546 110q0 38 -22 56t-60 18t-59.5 -18t-21.5 -56v-8q0 -38 22 -57t60 -19t59.5 19t21.5 57v8zM464 336q-33 0 -52 -14
t-19 -47q0 -32 19 -46.5t52 -14.5q34 0 52.5 14.5t18.5 46.5q0 33 -18.5 47t-52.5 14zM90 -9q-6 -11 -17 -11q-6 0 -11 4t-5 11q0 6 2 9l391 756q4 8 13 8q6 0 12 -5.5t6 -13.5q0 -5 -3 -11z" />
    <glyph glyph-name="onehalf" unicode="&#xbd;" horiz-adv-x="608" 
d="M86 674l-23 -32q-4 -6 -10 -6t-10 4.5t-4 9.5q0 4 2.5 8.5t4.5 6.5l45 59q5 7 14 7q5 0 9.5 -3.5t4.5 -9.5v-340q0 -7 -5 -10t-11 -3q-7 0 -12 3t-5 10v296zM352 282q0 37 29.5 60.5t74.5 23.5q49 0 79.5 -28t30.5 -69q0 -27 -14 -48t-35 -38.5t-45.5 -32.5t-45.5 -29
t-35 -28.5t-14 -31.5v-30h181q5 0 9 -4.5t4 -10.5t-4 -11t-9 -5h-199q-5 0 -10.5 3.5t-5.5 9.5v48q0 21 14 38t35 33t46 31t46 31t35 34t14 40q0 24 -19 45t-59 21q-30 0 -49.5 -14.5t-19.5 -44.5q0 -5 -5 -9t-13 -4q-16 0 -16 20zM90 -9q-6 -11 -17 -11q-6 0 -11 4t-5 11
q0 6 2 9l391 756q4 8 13 8q6 0 12 -5.5t6 -13.5q0 -5 -3 -11z" />
    <glyph glyph-name="oneinferior" unicode="&#x2081;" horiz-adv-x="158" 
d="M70 309l-23 -32q-4 -6 -10 -6t-10 4.5t-4 9.5q0 4 2.5 8.5t4.5 6.5l45 59q5 7 14 7q5 0 9.5 -3.5t4.5 -9.5v-340q0 -7 -5 -10t-11 -3q-7 0 -12 3t-5 10v296z" />
    <glyph glyph-name="onequarter" unicode="&#xbc;" horiz-adv-x="579" 
d="M82 674l-23 -32q-4 -6 -10 -6t-10 4.5t-4 9.5q0 4 2.5 8.5t4.5 6.5l45 59q5 7 14 7q5 0 9.5 -3.5t4.5 -9.5v-340q0 -7 -5 -10t-11 -3q-7 0 -12 3t-5 10v296zM102 -9q-6 -11 -17 -11q-6 0 -11 4t-5 11q0 6 2 9l391 756q4 8 13 8q6 0 12 -5.5t6 -13.5q0 -5 -3 -11zM473 86
h-144q-13 0 -13 14q0 2 2 8l141 247q6 11 16 11q6 0 11.5 -4t5.5 -10q0 -3 -2 -7l-131 -227h114v96q0 6 5 9t11 3q7 0 12 -3t5 -9v-96h31q7 0 10.5 -5t3.5 -11t-4 -11t-10 -5h-31v-73q0 -7 -5 -10t-12 -3q-6 0 -11 3t-5 10v73z" />
    <glyph glyph-name="onesuperior" unicode="&#xb9;" horiz-adv-x="158" 
d="M70 674l-23 -32q-4 -6 -10 -6t-10 4.5t-4 9.5q0 4 2.5 8.5t4.5 6.5l45 59q5 7 14 7q5 0 9.5 -3.5t4.5 -9.5v-340q0 -7 -5 -10t-11 -3q-7 0 -12 3t-5 10v296z" />
    <glyph glyph-name="onethird" unicode="&#x2153;" horiz-adv-x="619" 
d="M86 674l-23 -32q-4 -6 -10 -6t-10 4.5t-4 9.5q0 4 2.5 8.5t4.5 6.5l45 59q5 7 14 7q5 0 9.5 -3.5t4.5 -9.5v-340q0 -7 -5 -10t-11 -3q-7 0 -12 3t-5 10v296zM90 -9q-6 -11 -17 -11q-6 0 -11 4t-5 11q0 6 2 9l391 756q4 8 13 8q6 0 12 -5.5t6 -13.5q0 -5 -3 -11zM463 28
q40 0 61.5 18t21.5 57v9q0 35 -22 50.5t-60 15.5q-8 0 -11 4.5t-3 9.5q0 6 3 10.5t11 4.5q35 0 53 13.5t18 50.5q0 32 -16.5 48t-52.5 16q-23 0 -37.5 -5.5t-22.5 -13.5t-11 -17t-3 -17q0 -16 -16 -16q-10 0 -13.5 4t-3.5 15q0 10 4.5 24t16.5 26.5t33 21.5t54 9
q45 0 73 -20t28 -68q0 -35 -13 -56t-33 -29q25 -9 41 -28.5t16 -52.5v-9q0 -29 -9 -49t-24.5 -33t-36.5 -18.5t-45 -5.5q-29 0 -51 7.5t-36 19.5t-21 27t-7 29q0 11 3.5 14t11.5 3q11 0 14.5 -4t3.5 -10q0 -8 3.5 -17.5t13 -18t25 -14t39.5 -5.5z" />
    <glyph glyph-name="ordfeminine" unicode="&#xaa;" horiz-adv-x="306" 
d="M142 731q30 0 51 -10t34 -26.5t19 -38.5t6 -45v-162q0 -6 -5 -10.5t-13 -4.5q-7 0 -12 4.5t-5 10.5v28q-15 -17 -36.5 -30.5t-50.5 -15.5h-12.5t-12.5 1q-29 5 -47.5 24t-18.5 56q0 50 40 67t105 17h32v15q0 16 -4 31.5t-13 28t-23.5 20.5t-34.5 8q-31 0 -45 -9t-21 -9
q-8 0 -11.5 6.5t-3.5 12.5t7.5 11.5t19 10t26 7t29.5 2.5zM216 569h-31q-21 0 -41 -1.5t-35.5 -7.5t-24.5 -17t-9 -29q0 -28 16.5 -40.5t39.5 -12.5q16 0 31 6.5t27 16t19.5 21t7.5 22.5v42z" />
    <glyph glyph-name="ordmasculine" unicode="&#xba;" horiz-adv-x="320" 
d="M160 731q23 0 44 -9t37 -25t25.5 -36.5t9.5 -44.5v-70q0 -23 -9.5 -44t-25.5 -37t-37 -25.5t-44 -9.5t-44 9.5t-37 25.5t-25.5 37t-9.5 44v70q0 23 9 44t25 36.5t37 25t45 9.5zM240 616q0 31 -23 56t-57 25t-57 -25t-23 -56v-70q0 -16 6 -31t17 -26.5t25.5 -18.5t31.5 -7
q16 0 31 7t25.5 18.5t17 26.5t6.5 31v70z" />
    <glyph glyph-name="oslash" unicode="&#xf8;" 
d="M227 478q47 0 89 -25l25 48q4 8 13 8q6 0 12 -5.5t6 -13.5q0 -5 -3 -11l-25 -47q28 -25 44.5 -59.5t16.5 -74.5v-122q0 -36 -14.5 -68.5t-39 -58t-56.5 -40.5t-68 -15q-26 0 -49.5 7.5t-43.5 21.5l-23 -44q-6 -11 -17 -11q-6 0 -11 4t-5 11q0 6 2 9l27 53
q-26 26 -41.5 59.5t-15.5 71.5v122q0 36 14 68.5t38 57.5t56.5 39.5t68.5 14.5zM370 298q0 28 -11.5 54.5t-31.5 46.5l-178 -345q34 -25 78 -25q30 0 56 12.5t45.5 33t30.5 47t11 54.5v122zM85 176q0 -27 10 -53t28 -46l177 344q-33 22 -73 22q-30 0 -56 -12.5t-45 -32.5
t-30 -46.5t-11 -53.5v-122z" />
    <glyph glyph-name="oslashacute" unicode="&#x1ff;" 
d="M227 478q47 0 89 -25l25 48q4 8 13 8q6 0 12 -5.5t6 -13.5q0 -5 -3 -11l-25 -47q28 -25 44.5 -59.5t16.5 -74.5v-122q0 -36 -14.5 -68.5t-39 -58t-56.5 -40.5t-68 -15q-26 0 -49.5 7.5t-43.5 21.5l-23 -44q-6 -11 -17 -11q-6 0 -11 4t-5 11q0 6 2 9l27 53
q-26 26 -41.5 59.5t-15.5 71.5v122q0 36 14 68.5t38 57.5t56.5 39.5t68.5 14.5zM370 298q0 28 -11.5 54.5t-31.5 46.5l-178 -345q34 -25 78 -25q30 0 56 12.5t45.5 33t30.5 47t11 54.5v122zM85 176q0 -27 10 -53t28 -46l177 344q-33 22 -73 22q-30 0 -56 -12.5t-45 -32.5
t-30 -46.5t-11 -53.5v-122zM189 604q-5 -3 -9 -3q-8 0 -13.5 5t-5.5 13q0 9 8 13l102 60q4 2 7 2q8 0 12 -5.5t4 -12.5q0 -12 -10 -18z" />
    <glyph glyph-name="otilde" unicode="&#xf5;" 
d="M227 478q36 0 68 -14t56.5 -38.5t39 -57.5t14.5 -70v-122q0 -36 -14.5 -68.5t-39 -58t-56.5 -40.5t-68 -15t-68 15t-56 40t-38.5 58t-14.5 69v122q0 36 14 68.5t38 57.5t56.5 39.5t68.5 14.5zM370 298q0 27 -11 53.5t-30.5 46.5t-45.5 32.5t-56 12.5t-56 -12.5t-45 -32.5
t-30 -46.5t-11 -53.5v-122q0 -28 11 -54.5t30.5 -47t45 -33t55.5 -12.5t56 12.5t45.5 33t30.5 47t11 54.5v122zM296 653q17 0 27 5t16.5 11t11 11t10.5 5q5 0 9.5 -4t4.5 -11q0 -12 -8.5 -21t-21.5 -16t-27.5 -10.5t-26.5 -3.5q-18 0 -32.5 6t-29 12.5t-30.5 12.5t-37 6
q-16 0 -27 -5.5t-18.5 -12t-13 -12t-10.5 -5.5q-13 0 -13 17q0 10 9 19t22 16.5t28.5 12t29.5 4.5q18 0 33 -6t29.5 -12.5t30 -12.5t34.5 -6z" />
    <glyph glyph-name="p" unicode="p" horiz-adv-x="468" 
d="M86 472q8 0 13 -4.5t5 -12.5v-53q17 29 50 52.5t84 23.5q37 0 69.5 -14t57 -38.5t39 -57.5t14.5 -70v-122q0 -36 -14.5 -68.5t-39 -58t-56.5 -40.5t-68 -15q-46 0 -82.5 22.5t-53.5 53.5v-289q0 -7 -5 -12.5t-13 -5.5t-12.5 5.5t-4.5 12.5v674q0 17 17 17zM383 298
q0 27 -11 53.5t-30.5 46.5t-45.5 32.5t-55 12.5q-26 0 -50.5 -10t-43.5 -28.5t-31 -45.5t-12 -61v-159q0 -13 10.5 -31.5t29 -36t43.5 -30t55 -12.5q28 0 54 12.5t45 33t30.5 47t11.5 54.5v122z" />
    <glyph glyph-name="paragraph" unicode="&#xb6;" horiz-adv-x="512" 
d="M411 731q7 0 12.5 -4.5t5.5 -13.5v-696q0 -9 -5.5 -13t-12.5 -4t-12.5 4t-5.5 13v678h-75v-677q0 -9 -5.5 -13.5t-12.5 -4.5t-12.5 4.5t-5.5 13.5v288h-48q-41 0 -77 11t-62.5 36t-41.5 64.5t-15 95.5v12q0 56 15 95.5t41.5 64t62.5 35.5t77 11h177z" />
    <glyph glyph-name="parenleft" unicode="(" horiz-adv-x="278" 
d="M241 -20q-79 0 -126.5 43t-47.5 120v448q0 34 12.5 66t35.5 57t55 39.5t71 14.5q7 0 12 -5t5 -12q0 -8 -5 -13t-12 -5q-33 0 -58.5 -12.5t-43.5 -32.5t-27 -45.5t-9 -51.5v-448q0 -39 13 -64t33 -39.5t44.5 -19.5t47.5 -5q10 0 13.5 -6t3.5 -11q0 -8 -5.5 -13t-11.5 -5z
" />
    <glyph glyph-name="parenright" unicode=")" horiz-adv-x="278" 
d="M37 -20q-6 0 -11.5 5t-5.5 13q0 5 3.5 11t13.5 6q23 0 47.5 5t44.5 19.5t33 39.5t13 64v448q0 26 -9 51.5t-27 45.5t-43.5 32.5t-58.5 12.5q-7 0 -12 5t-5 13q0 7 5 12t12 5q39 0 71 -14.5t55 -39.5t35.5 -57t12.5 -66v-448q0 -77 -47.5 -120t-126.5 -43z" />
    <glyph glyph-name="partialdiff" unicode="&#x2202;" horiz-adv-x="477" 
d="M201 741q112 0 160.5 -94.5t48.5 -271.5v-199q0 -36 -14.5 -68.5t-39 -58t-56.5 -40.5t-68 -15t-68 15t-56 40t-38.5 58t-14.5 69v132q0 36 14 68.5t38 57.5t56 39.5t68 14.5q22 0 44.5 -5.5t42.5 -16.5t35.5 -27t21.5 -37q0 64 -8.5 119.5t-28.5 96.5t-54.5 64.5
t-85.5 23.5q-23 0 -40.5 -4t-30 -9.5t-21 -9.5t-13.5 -4q-7 0 -12 7.5t-5 12.5q0 7 10.5 14.5t28 13.5t40 10t46.5 4zM375 313q0 27 -11.5 52t-31 44.5t-45.5 31.5t-55 12q-30 0 -56 -12.5t-45 -32.5t-30 -46.5t-11 -53.5v-132q0 -28 11 -54.5t30.5 -47t45 -33t55.5 -12.5
t56 12.5t45.5 33t30.5 47t11 54.5v137z" />
    <glyph glyph-name="percent" unicode="%" horiz-adv-x="741" 
d="M161 362q-24 0 -45 5.5t-36.5 18.5t-24.5 33.5t-9 49.5v155q0 58 33 82.5t82 24.5t82 -24.5t33 -82.5v-155q0 -29 -9 -49.5t-24.5 -33.5t-36.5 -18.5t-45 -5.5zM243 624q0 39 -22 57.5t-60 18.5t-59.5 -18.5t-21.5 -57.5v-155q0 -39 21.5 -57.5t59.5 -18.5t60 18.5
t22 57.5v155zM580 -3q-24 0 -45 5.5t-36.5 18.5t-24.5 33.5t-9 49.5v155q0 58 33 82.5t82 24.5t82 -24.5t33 -82.5v-155q0 -29 -9 -49.5t-24.5 -33.5t-36.5 -18.5t-45 -5.5zM662 259q0 39 -22 57.5t-60 18.5t-59.5 -18.5t-21.5 -57.5v-155q0 -39 21.5 -57.5t59.5 -18.5
t60 18.5t22 57.5v155zM196 -9q-6 -11 -17 -11q-6 0 -11 4t-5 11q0 6 2 9l391 756q4 8 13 8q6 0 12 -5.5t6 -13.5q0 -5 -3 -11z" />
    <glyph glyph-name="period" unicode="." horiz-adv-x="161" 
d="M81 66q14 0 24.5 -10.5t10.5 -25.5q0 -14 -10.5 -25t-24.5 -11q-16 0 -26 11t-10 25q0 15 10 25.5t26 10.5z" />
    <glyph glyph-name="periodcentered" unicode="&#xb7;" horiz-adv-x="176" 
d="M89 336q14 0 24.5 -10.5t10.5 -25.5q0 -14 -10.5 -25t-24.5 -11q-16 0 -26 11t-10 25q0 15 10 25.5t26 10.5z" />
    <glyph glyph-name="perthousand" unicode="&#x2030;" horiz-adv-x="1037" 
d="M161 362q-24 0 -45 5.5t-36.5 18.5t-24.5 33.5t-9 49.5v155q0 58 33 82.5t82 24.5t82 -24.5t33 -82.5v-155q0 -29 -9 -49.5t-24.5 -33.5t-36.5 -18.5t-45 -5.5zM243 624q0 39 -22 57.5t-60 18.5t-59.5 -18.5t-21.5 -57.5v-155q0 -39 21.5 -57.5t59.5 -18.5t60 18.5
t22 57.5v155zM580 -3q-24 0 -45 5.5t-36.5 18.5t-24.5 33.5t-9 49.5v155q0 58 33 82.5t82 24.5t82 -24.5t33 -82.5v-155q0 -29 -9 -49.5t-24.5 -33.5t-36.5 -18.5t-45 -5.5zM662 259q0 39 -22 57.5t-60 18.5t-59.5 -18.5t-21.5 -57.5v-155q0 -39 21.5 -57.5t59.5 -18.5
t60 18.5t22 57.5v155zM196 -9q-6 -11 -17 -11q-6 0 -11 4t-5 11q0 6 2 9l391 756q4 8 13 8q6 0 12 -5.5t6 -13.5q0 -5 -3 -11zM879 -3q-24 0 -45 5.5t-36.5 18.5t-24.5 33.5t-9 49.5v155q0 58 33 82.5t82 24.5t82 -24.5t33 -82.5v-155q0 -29 -9 -49.5t-24.5 -33.5
t-36.5 -18.5t-45 -5.5zM961 259q0 39 -22 57.5t-60 18.5t-59.5 -18.5t-21.5 -57.5v-155q0 -39 21.5 -57.5t59.5 -18.5t60 18.5t22 57.5v155z" />
    <glyph glyph-name="pi" unicode="&#x3c0;" horiz-adv-x="467" 
d="M381 472q7 0 12.5 -4.5t5.5 -13.5v-437q0 -9 -5.5 -13t-12.5 -4t-12.5 4t-5.5 13v419h-259v-419q0 -9 -5.5 -13t-12.5 -4t-12.5 4t-5.5 13v437q0 9 5.5 13.5t12.5 4.5h295z" />
    <glyph glyph-name="plus" unicode="+" horiz-adv-x="427" 
d="M214 63q-8 0 -13 4.5t-5 12.5v143h-143q-17 0 -17 17q0 8 4.5 13t12.5 5h143v142q0 7 5 12.5t13 5.5t12.5 -5.5t4.5 -12.5v-142h142q7 0 12.5 -5t5.5 -13t-5.5 -12.5t-12.5 -4.5h-142v-143q0 -17 -17 -17z" />
    <glyph glyph-name="plusminus" unicode="&#xb1;" horiz-adv-x="477" 
d="M239 168q-8 0 -13 4.5t-5 12.5v143h-143q-17 0 -17 17q0 8 4.5 13t12.5 5h143v142q0 7 5 12.5t13 5.5t12.5 -5.5t4.5 -12.5v-142h142q7 0 12.5 -5t5.5 -13t-5.5 -12.5t-12.5 -4.5h-142v-143q0 -17 -17 -17zM61 85q0 8 4.5 13t12.5 5h320q7 0 12.5 -5t5.5 -13t-5.5 -12.5
t-12.5 -4.5h-320q-17 0 -17 17z" />
    <glyph glyph-name="product" unicode="&#x220f;" horiz-adv-x="557" 
d="M456 731q7 0 12.5 -4.5t5.5 -13.5v-696q0 -9 -5.5 -13t-12.5 -4t-12.5 4t-5.5 13v678h-319v-678q0 -9 -5.5 -13t-12.5 -4t-12.5 4t-5.5 13v696q0 9 5.5 13.5t12.5 4.5h355z" />
    <glyph glyph-name="q" unicode="q" horiz-adv-x="468" 
d="M382 472q17 0 17 -17v-674q0 -7 -4.5 -12.5t-12.5 -5.5t-13 5.5t-5 12.5v289q-17 -31 -53.5 -53.5t-82.5 -22.5q-36 0 -68 15t-56.5 40.5t-39 58t-14.5 68.5v122q0 37 14.5 70t39 57.5t57 38.5t69.5 14q51 0 84 -23.5t50 -52.5v53q0 8 5 12.5t13 4.5zM85 176
q0 -28 11.5 -54.5t30.5 -47t44.5 -33t54.5 -12.5q30 0 55 12.5t43.5 30t29 36t10.5 31.5v159q0 34 -12 61t-31 45.5t-44 28.5t-50 10q-29 0 -55 -12.5t-45.5 -32.5t-30.5 -46.5t-11 -53.5v-122z" />
    <glyph glyph-name="q.ss02" horiz-adv-x="465" 
d="M383 -237q-8 0 -13 4.5t-5 12.5v290q-17 -29 -50 -52.5t-84 -23.5q-37 0 -69.5 14t-57 38.5t-39 57.5t-14.5 70v122q0 29 9 61t29.5 59t54.5 44.5t84 17.5q30 0 61 -8.5t55.5 -30t40 -58t15.5 -92.5v-510q0 -16 -17 -16zM86 174q0 -27 11.5 -53.5t30.5 -46.5t44 -32.5
t53 -12.5q27 0 52 11t44.5 27.5t31.5 36t12 35.5v141q0 46 -11.5 77t-30.5 50t-44.5 27.5t-53.5 8.5q-43 0 -70 -15.5t-42.5 -38t-21 -48t-5.5 -45.5v-122z" />
    <glyph glyph-name="question" unicode="?" horiz-adv-x="383" 
d="M345 566q0 -51 -16.5 -87.5t-39 -64t-46.5 -49t-39 -40.5q-10 -12 -15.5 -27t-8 -34.5t-3 -44t-0.5 -55.5q0 -9 -5.5 -13t-11.5 -4t-11.5 4t-5.5 13q0 45 2 75t6.5 50t11 32.5t15.5 23.5q16 19 39 39t43.5 45t35 58t14.5 78q0 69 -37.5 108.5t-112.5 39.5
q-32 0 -52.5 -6.5t-33.5 -14t-21 -13.5t-14 -6q-5 0 -9.5 4.5t-4.5 12.5q0 9 11.5 19.5t31 19t44.5 14t52 5.5q46 0 80.5 -14t56.5 -39t33 -58t11 -71zM160 66q14 0 24.5 -10.5t10.5 -25.5q0 -14 -10 -25t-25 -11q-16 0 -26 11t-10 25q0 15 10.5 25.5t25.5 10.5z" />
    <glyph glyph-name="questiondown" unicode="&#xbf;" horiz-adv-x="383" 
d="M38 176q0 51 16.5 87.5t39 64t46.5 48.5t39 41q19 25 23 62t4 99q0 9 5.5 13t11.5 4t11.5 -4t5.5 -13q0 -45 -2 -75t-6.5 -50t-11 -33t-15.5 -23q-17 -20 -39.5 -39.5t-43 -45t-35 -58t-14.5 -77.5q0 -69 37.5 -108.5t112.5 -39.5q31 0 52 6t34 13.5t21 14t14 6.5
q5 0 9.5 -4.5t4.5 -12.5q0 -9 -11.5 -19.5t-31 -19t-44.5 -14t-52 -5.5q-47 0 -81 14t-56 39t-33 58t-11 71zM223 676q-14 0 -24.5 10.5t-10.5 25.5q0 14 10 25t25 11q16 0 26 -11t10 -25q0 -15 -10.5 -25.5t-25.5 -10.5z" />
    <glyph glyph-name="quotedbl" unicode="&#x22;" horiz-adv-x="255" 
d="M67 768q8 0 16.5 -4.5t8.5 -12.5l-10 -152q0 -7 -3.5 -12.5t-11.5 -5.5t-11 5.5t-3 12.5l-10 152q0 8 8 12.5t16 4.5zM187 768q8 0 16.5 -4.5t8.5 -12.5l-10 -152q0 -7 -3.5 -12.5t-11.5 -5.5t-11 5.5t-3 12.5l-10 152q0 8 8 12.5t16 4.5z" />
    <glyph glyph-name="quotedblbase" unicode="&#x201e;" horiz-adv-x="296" 
d="M81 66q14 0 24.5 -10.5t10.5 -25.5q0 -6 -3 -17.5t-7.5 -25t-10.5 -28t-12 -26.5q-5 -10 -14 -10q-6 0 -11 4t-5 11q0 4 1 6l18 51q-12 3 -19.5 13t-7.5 22q0 15 10 25.5t26 10.5zM215 66q14 0 24.5 -10.5t10.5 -25.5q0 -6 -3 -17.5t-7.5 -25t-10.5 -28t-12 -26.5
q-5 -10 -14 -10q-6 0 -11 4t-5 11q0 4 1 6l18 51q-12 3 -19.5 13t-7.5 22q0 15 10 25.5t26 10.5z" />
    <glyph glyph-name="quotedblleft" unicode="&#x201c;" horiz-adv-x="284" 
d="M208 598q-14 0 -24.5 10.5t-10.5 25.5q0 6 3 17.5t7.5 25t10.5 28t12 26.5q5 10 14 10q6 0 11 -4t5 -11q0 -4 -1 -6l-18 -51q12 -3 19.5 -13t7.5 -22q0 -15 -10 -25.5t-26 -10.5zM74 598q-14 0 -24.5 10.5t-10.5 25.5q0 6 3 17.5t7.5 25t10.5 28t12 26.5q5 10 14 10
q6 0 11 -4t5 -11q0 -4 -1 -6l-18 -51q12 -3 19.5 -13t7.5 -22q0 -15 -10 -25.5t-26 -10.5z" />
    <glyph glyph-name="quotedblright" unicode="&#x201d;" horiz-adv-x="282" 
d="M77 741q14 0 24.5 -10.5t10.5 -25.5q0 -6 -3 -17.5t-7.5 -25t-10.5 -28t-12 -26.5q-5 -10 -14 -10q-6 0 -11 4t-5 11q0 4 1 6l18 51q-12 3 -19.5 13t-7.5 22q0 15 10 25.5t26 10.5zM211 741q14 0 24.5 -10.5t10.5 -25.5q0 -6 -3 -17.5t-7.5 -25t-10.5 -28t-12 -26.5
q-5 -10 -14 -10q-6 0 -11 4t-5 11q0 4 1 6l18 51q-12 3 -19.5 13t-7.5 22q0 15 10 25.5t26 10.5z" />
    <glyph glyph-name="quoteleft" unicode="&#x2018;" horiz-adv-x="150" 
d="M74 598q-14 0 -24.5 10.5t-10.5 25.5q0 6 3 17.5t7.5 25t10.5 28t12 26.5q5 10 14 10q6 0 11 -4t5 -11q0 -4 -1 -6l-18 -51q12 -3 19.5 -13t7.5 -22q0 -15 -10 -25.5t-26 -10.5z" />
    <glyph glyph-name="quoteright" unicode="&#x2019;" horiz-adv-x="148" 
d="M77 741q14 0 24.5 -10.5t10.5 -25.5q0 -6 -3 -17.5t-7.5 -25t-10.5 -28t-12 -26.5q-5 -10 -14 -10q-6 0 -11 4t-5 11q0 4 1 6l18 51q-12 3 -19.5 13t-7.5 22q0 15 10 25.5t26 10.5z" />
    <glyph glyph-name="quotesinglbase" unicode="&#x201a;" horiz-adv-x="162" 
d="M81 66q14 0 24.5 -10.5t10.5 -25.5q0 -6 -3 -17.5t-7.5 -25t-10.5 -28t-12 -26.5q-5 -10 -14 -10q-6 0 -11 4t-5 11q0 4 1 6l18 51q-12 3 -19.5 13t-7.5 22q0 15 10 25.5t26 10.5z" />
    <glyph glyph-name="quotesingle" unicode="'" horiz-adv-x="135" 
d="M67 768q8 0 16.5 -4.5t8.5 -12.5l-10 -152q0 -7 -3.5 -12.5t-11.5 -5.5t-11 5.5t-3 12.5l-10 152q0 8 8 12.5t16 4.5z" />
    <glyph glyph-name="r" unicode="r" horiz-adv-x="308" 
d="M242 443q-26 0 -51 -10t-44.5 -28.5t-31.5 -45.5t-12 -61v-280q0 -7 -5 -12.5t-13 -5.5t-12.5 5.5t-4.5 12.5v437q0 17 17 17q8 0 13 -4.5t5 -12.5v-53q17 29 51.5 52.5t87.5 23.5h37q7 0 12 -5t5 -13q0 -7 -5 -12t-12 -5h-37z" />
    <glyph glyph-name="r.ss04" horiz-adv-x="303" 
d="M275 478q16 0 16 -17q0 -8 -4.5 -13t-11.5 -5h-50q-30 0 -53.5 -15t-40 -39t-25 -55t-8.5 -62v-255q0 -7 -5 -12t-13 -5q-7 0 -12 5t-5 12v255q0 40 12 77.5t33.5 66t51.5 45.5t65 17h50z" />
    <glyph glyph-name="racute" unicode="&#x155;" horiz-adv-x="308" 
d="M242 443q-26 0 -51 -10t-44.5 -28.5t-31.5 -45.5t-12 -61v-280q0 -7 -5 -12.5t-13 -5.5t-12.5 5.5t-4.5 12.5v437q0 17 17 17q8 0 13 -4.5t5 -12.5v-53q17 29 51.5 52.5t87.5 23.5h37q7 0 12 -5t5 -13q0 -7 -5 -12t-12 -5h-37zM105 604q-5 -3 -9 -3q-8 0 -13.5 5t-5.5 13
q0 9 8 13l102 60q4 2 7 2q8 0 12 -5.5t4 -12.5q0 -12 -10 -18z" />
    <glyph glyph-name="radical" unicode="&#x221a;" horiz-adv-x="584" 
d="M17 426q0 8 4.5 13t12.5 5h50q14 0 18 -14l130 -392l219 716q5 14 18 14h90q8 0 12.5 -5t4.5 -13q0 -17 -17 -17h-77l-231 -753q-5 -15 -18 -15q-6 0 -11.5 3.5t-7.5 11.5l-142 429h-38q-17 0 -17 17z" />
    <glyph glyph-name="rcaron" unicode="&#x159;" horiz-adv-x="308" 
d="M242 443q-26 0 -51 -10t-44.5 -28.5t-31.5 -45.5t-12 -61v-280q0 -7 -5 -12.5t-13 -5.5t-12.5 5.5t-4.5 12.5v437q0 17 17 17q8 0 13 -4.5t5 -12.5v-53q17 29 51.5 52.5t87.5 23.5h37q7 0 12 -5t5 -13q0 -7 -5 -12t-12 -5h-37zM165 599q-11 -11 -21 -11q-12 0 -21 11
l-100 101q-8 10 -8 16q0 5 4 10t11 5q9 0 16 -8l98 -103l98 103q7 8 16 8q7 0 11 -5t4 -10q0 -6 -8 -16z" />
    <glyph glyph-name="rcommaaccent" unicode="&#x157;" horiz-adv-x="308" 
d="M242 443q-26 0 -51 -10t-44.5 -28.5t-31.5 -45.5t-12 -61v-280q0 -7 -5 -12.5t-13 -5.5t-12.5 5.5t-4.5 12.5v437q0 17 17 17q8 0 13 -4.5t5 -12.5v-53q17 29 51.5 52.5t87.5 23.5h37q7 0 12 -5t5 -13q0 -7 -5 -12t-12 -5h-37zM21 -138q-5 -3 -9 -3q-8 0 -13.5 5t-5.5 13
q0 9 8 13l102 60q4 2 7 2q8 0 12 -5.5t4 -12.5q0 -12 -10 -18z" />
    <glyph glyph-name="registered" unicode="&#xae;" horiz-adv-x="728" 
d="M57 358q0 84 29 145.5t74 102t100 60t107 19.5q53 0 107 -20t98 -60t71.5 -101t27.5 -142q0 -84 -29 -145.5t-74 -102t-100 -60t-107 -19.5q-53 0 -107 20t-98 60t-71.5 101t-27.5 142zM636 362q0 63 -19.5 115.5t-54.5 91t-85 60t-110 21.5t-110 -21.5t-87 -60
t-57.5 -92t-20.5 -118.5q0 -63 19.5 -115.5t54.5 -91t85 -60t110 -21.5t110 21.5t87 60t57.5 92t20.5 118.5zM275 550q0 12 13 14h84q21 0 39 -5.5t32 -18t22 -33t8 -50.5q0 -51 -20 -74.5t-50 -29.5l69 -159q2 -6 2 -7q0 -8 -6.5 -13.5t-14.5 -5.5q-6 0 -10 6t-7 13
l-73 162h-52v-166q0 -7 -5.5 -10.5t-12.5 -3.5t-12.5 3.5t-5.5 10.5v367zM311 530v-150h61q29 0 47 17t18 58t-18 58t-47 17h-61z" />
    <glyph glyph-name="ring" unicode="&#x2da;" horiz-adv-x="180" 
d="M90 768q18 0 34 -7.5t28.5 -20t20 -29t7.5 -34.5t-7.5 -35t-20 -30t-28.5 -20.5t-34 -7.5q-19 0 -35.5 7.5t-28.5 20.5t-19 30t-7 35t7 34t19 29t28.5 20.5t35.5 7.5zM155 677q0 12 -5 23.5t-14 20.5t-21 15t-25 6q-14 0 -26 -6t-21 -15t-14 -20.5t-5 -23.5
q0 -13 5 -25.5t14 -22.5t21 -16t26 -6q13 0 25 6t21 16t14 22.5t5 25.5z" />
    <glyph glyph-name="s" unicode="s" horiz-adv-x="373" 
d="M183 29q63 0 90 24.5t27 58.5q0 39 -18.5 60t-46.5 33.5t-61 21t-61 21.5t-46.5 36t-18.5 64q0 22 8.5 45.5t26.5 42t46 30.5t67 12q22 0 44 -4t39 -10t28 -13.5t11 -14.5q0 -5 -5 -12.5t-12 -7.5q-5 0 -13.5 4t-21 9.5t-30 9.5t-39.5 4q-32 0 -53.5 -9t-35 -23
t-19.5 -30.5t-6 -31.5q0 -33 18.5 -50.5t46.5 -28.5t61 -19t61 -23t46.5 -41.5t18.5 -72.5q0 -56 -39.5 -88t-111.5 -32q-34 0 -61 7t-46 16.5t-29 21t-10 20.5q0 7 4.5 12t9.5 5q7 0 15 -7.5t22 -16t36.5 -16t57.5 -7.5z" />
    <glyph glyph-name="sacute" unicode="&#x15b;" horiz-adv-x="373" 
d="M183 29q63 0 90 24.5t27 58.5q0 39 -18.5 60t-46.5 33.5t-61 21t-61 21.5t-46.5 36t-18.5 64q0 22 8.5 45.5t26.5 42t46 30.5t67 12q22 0 44 -4t39 -10t28 -13.5t11 -14.5q0 -5 -5 -12.5t-12 -7.5q-5 0 -13.5 4t-21 9.5t-30 9.5t-39.5 4q-32 0 -53.5 -9t-35 -23
t-19.5 -30.5t-6 -31.5q0 -33 18.5 -50.5t46.5 -28.5t61 -19t61 -23t46.5 -41.5t18.5 -72.5q0 -56 -39.5 -88t-111.5 -32q-34 0 -61 7t-46 16.5t-29 21t-10 20.5q0 7 4.5 12t9.5 5q7 0 15 -7.5t22 -16t36.5 -16t57.5 -7.5zM142 604q-5 -3 -9 -3q-8 0 -13.5 5t-5.5 13
q0 9 8 13l102 60q4 2 7 2q8 0 12 -5.5t4 -12.5q0 -12 -10 -18z" />
    <glyph glyph-name="scaron" unicode="&#x161;" horiz-adv-x="373" 
d="M183 29q63 0 90 24.5t27 58.5q0 39 -18.5 60t-46.5 33.5t-61 21t-61 21.5t-46.5 36t-18.5 64q0 22 8.5 45.5t26.5 42t46 30.5t67 12q22 0 44 -4t39 -10t28 -13.5t11 -14.5q0 -5 -5 -12.5t-12 -7.5q-5 0 -13.5 4t-21 9.5t-30 9.5t-39.5 4q-32 0 -53.5 -9t-35 -23
t-19.5 -30.5t-6 -31.5q0 -33 18.5 -50.5t46.5 -28.5t61 -19t61 -23t46.5 -41.5t18.5 -72.5q0 -56 -39.5 -88t-111.5 -32q-34 0 -61 7t-46 16.5t-29 21t-10 20.5q0 7 4.5 12t9.5 5q7 0 15 -7.5t22 -16t36.5 -16t57.5 -7.5zM201 599q-11 -11 -21 -11q-12 0 -21 11l-100 101
q-8 10 -8 16q0 5 4 10t11 5q9 0 16 -8l98 -103l98 103q7 8 16 8q7 0 11 -5t4 -10q0 -6 -8 -16z" />
    <glyph glyph-name="scedilla" unicode="&#x15f;" horiz-adv-x="373" 
d="M183 29q63 0 90 24.5t27 58.5q0 39 -18.5 60t-46.5 33.5t-61 21t-61 21.5t-46.5 36t-18.5 64q0 22 8.5 45.5t26.5 42t46 30.5t67 12q22 0 44 -4t39 -10t28 -13.5t11 -14.5q0 -5 -5 -12.5t-12 -7.5q-5 0 -13.5 4t-21 9.5t-30 9.5t-39.5 4q-32 0 -53.5 -9t-35 -23
t-19.5 -30.5t-6 -31.5q0 -33 18.5 -50.5t46.5 -28.5t61 -19t61 -23t46.5 -41.5t18.5 -72.5q0 -51 -32 -81.5t-91 -36.5l-14 -61q51 -2 72.5 -23t21.5 -47q0 -28 -21.5 -50t-60.5 -22q-9 0 -21.5 1.5t-24 4.5t-20 7.5t-8.5 10.5q0 5 3.5 11.5t8.5 6.5t18 -6.5t38 -6.5
q32 0 43.5 12.5t11.5 28.5q0 23 -19 33t-51 12l-29 2l20 84q-33 0 -59.5 7t-44.5 17t-28 21t-10 20q0 7 4.5 12t9.5 5q7 0 15 -7.5t22 -16t36.5 -16t57.5 -7.5z" />
    <glyph glyph-name="schwa" unicode="&#x259;" horiz-adv-x="445" 
d="M216 -6q-35 0 -67 13.5t-56.5 37.5t-39 57t-14.5 72q0 27 7 42.5t18.5 22.5t26.5 8.5t31 1.5h237v47q0 34 -12.5 61.5t-35 46.5t-53.5 29t-68 10q-32 0 -51.5 -6.5t-32 -14t-20 -14t-14.5 -6.5t-12.5 6t-5.5 12q0 7 9.5 17t27.5 19t43.5 15.5t57.5 6.5q44 0 81 -13
t64 -37t42 -57.5t15 -74.5v-125q0 -36 -14 -68t-38.5 -56.5t-57 -38.5t-68.5 -14zM134 214q-37 0 -48.5 -7t-11.5 -30q0 -27 10 -53.5t28.5 -47.5t45 -34t58.5 -13q30 0 56.5 11.5t45.5 31t30 45.5t11 54v43h-225z" />
    <glyph glyph-name="scircumflex" unicode="&#x15d;" horiz-adv-x="373" 
d="M183 29q63 0 90 24.5t27 58.5q0 39 -18.5 60t-46.5 33.5t-61 21t-61 21.5t-46.5 36t-18.5 64q0 22 8.5 45.5t26.5 42t46 30.5t67 12q22 0 44 -4t39 -10t28 -13.5t11 -14.5q0 -5 -5 -12.5t-12 -7.5q-5 0 -13.5 4t-21 9.5t-30 9.5t-39.5 4q-32 0 -53.5 -9t-35 -23
t-19.5 -30.5t-6 -31.5q0 -33 18.5 -50.5t46.5 -28.5t61 -19t61 -23t46.5 -41.5t18.5 -72.5q0 -56 -39.5 -88t-111.5 -32q-34 0 -61 7t-46 16.5t-29 21t-10 20.5q0 7 4.5 12t9.5 5q7 0 15 -7.5t22 -16t36.5 -16t57.5 -7.5zM77 603l-4 -2t-4 -1q-7 0 -12.5 5.5t-5.5 13.5
q0 9 9 14l104 56q8 5 17 5t17 -5l104 -55q9 -5 9 -17q0 -7 -5 -11.5t-12 -4.5q-2 0 -4.5 1t-4.5 2l-104 55z" />
    <glyph glyph-name="scommaaccent" unicode="&#x219;" horiz-adv-x="373" 
d="M183 29q63 0 90 24.5t27 58.5q0 39 -18.5 60t-46.5 33.5t-61 21t-61 21.5t-46.5 36t-18.5 64q0 22 8.5 45.5t26.5 42t46 30.5t67 12q22 0 44 -4t39 -10t28 -13.5t11 -14.5q0 -5 -5 -12.5t-12 -7.5q-5 0 -13.5 4t-21 9.5t-30 9.5t-39.5 4q-32 0 -53.5 -9t-35 -23
t-19.5 -30.5t-6 -31.5q0 -33 18.5 -50.5t46.5 -28.5t61 -19t61 -23t46.5 -41.5t18.5 -72.5q0 -56 -39.5 -88t-111.5 -32q-34 0 -61 7t-46 16.5t-29 21t-10 20.5q0 7 4.5 12t9.5 5q7 0 15 -7.5t22 -16t36.5 -16t57.5 -7.5zM149 -138q-5 -3 -9 -3q-8 0 -13.5 5t-5.5 13
q0 9 8 13l102 60q4 2 7 2q8 0 12 -5.5t4 -12.5q0 -12 -10 -18z" />
    <glyph glyph-name="section" unicode="&#xa7;" horiz-adv-x="461" 
d="M367 113q0 47 -22 71.5t-55 39t-71.5 25t-71.5 28.5t-55 49.5t-22 88.5v132q0 56 16 91.5t40 56t52.5 28.5t54.5 8q75 0 113.5 -43.5t38.5 -114.5q0 -13 -6 -17.5t-13 -4.5q-8 0 -13.5 5t-5.5 20q0 16 -4.5 36.5t-17 39t-34.5 31t-56 12.5q-22 0 -45 -7t-41.5 -24
t-30.5 -45.5t-12 -71.5q0 -47 22 -71.5t55 -39t71.5 -25.5t71.5 -29t55 -49.5t22 -87.5v-130q0 -47 -13.5 -81.5t-36.5 -56.5t-55 -32.5t-68 -10.5q-40 0 -73 13t-56 35t-36 52t-13 65q0 11 5.5 15.5t13.5 4.5q9 0 13 -5.5t4 -12.5q0 -17 5.5 -39.5t20.5 -42.5t41.5 -34.5
t68.5 -14.5q68 0 105.5 36.5t37.5 106.5zM367 243q0 39 -14 64t-37 40.5t-51.5 25t-57.5 19t-55.5 22.5t-45.5 35v-32q0 -40 14 -64.5t37 -40t51.5 -25.5t57.5 -19.5t55.5 -22.5t45.5 -35v33z" />
    <glyph glyph-name="semicolon" unicode=";" horiz-adv-x="195" 
d="M98 422q14 0 24.5 -10.5t10.5 -25.5q0 -14 -10.5 -25t-24.5 -11q-16 0 -26 11t-10 25q0 15 10 25.5t26 10.5zM96 66q13 0 24.5 -9t11.5 -28q0 -2 -0.5 -6.5t-3.5 -14.5t-9.5 -27.5t-17.5 -46.5q-5 -11 -16 -11q-6 0 -11 3.5t-5 9.5q0 5 1 8l18 51q-12 3 -19.5 13t-7.5 22
q0 15 10 25.5t25 10.5z" />
    <glyph glyph-name="seven" unicode="7" horiz-adv-x="442" 
d="M424 641q0 -5 -2 -8l-318 -623q-5 -10 -15 -10q-8 0 -14 3.5t-6 11.5q0 5 3 11l316 620v49h-319v-131q0 -8 -5.5 -13t-12.5 -5q-8 0 -13 5t-5 13v149q0 7 5.5 12.5t12.5 5.5h355q6 0 12 -5.5t6 -12.5v-72z" />
    <glyph glyph-name="seveneighths" unicode="&#x215e;" horiz-adv-x="732" 
d="M267 675q0 -7 -4 -15l-169 -289q-4 -7 -12 -7t-14 4t-6 12q0 1 2 7l170 286v27h-163v-58q0 -5 -5.5 -9t-11.5 -4q-17 0 -17 13v76q0 5 5 9t11 4h198q5 0 10.5 -4t5.5 -9v-43zM579 366q45 0 74.5 -19t29.5 -69q0 -32 -13 -51.5t-36 -27.5q27 -10 43.5 -32t16.5 -61v-6
q0 -28 -9 -47.5t-24.5 -32t-36.5 -18t-45 -5.5t-45 5.5t-36.5 18t-24.5 32t-9 47.5v6q0 39 16.5 61t43.5 32q-22 8 -35.5 27.5t-13.5 51.5q0 49 30 68.5t74 19.5zM661 110q0 38 -22 56t-60 18t-59.5 -18t-21.5 -56v-8q0 -38 22 -57t60 -19t59.5 19t21.5 57v8zM579 336
q-33 0 -52 -14t-19 -47q0 -32 19 -46.5t52 -14.5q34 0 52.5 14.5t18.5 46.5q0 33 -18.5 47t-52.5 14zM155 -9q-6 -11 -17 -11q-6 0 -11 4t-5 11q0 6 2 9l391 756q4 8 13 8q6 0 12 -5.5t6 -13.5q0 -5 -3 -11z" />
    <glyph glyph-name="seveninferior" unicode="&#x2087;" horiz-adv-x="283" 
d="M261 310q0 -7 -4 -15l-169 -289q-4 -7 -12 -7t-14 4t-6 12q0 1 2 7l170 286v27h-163v-58q0 -5 -5.5 -9t-11.5 -4q-17 0 -17 13v76q0 5 5 9t11 4h198q5 0 10.5 -4t5.5 -9v-43z" />
    <glyph glyph-name="sevensuperior" unicode="&#x2077;" horiz-adv-x="282" 
d="M261 675q0 -7 -4 -15l-169 -289q-4 -7 -12 -7t-14 4t-6 12q0 1 2 7l170 286v27h-163v-58q0 -5 -5.5 -9t-11.5 -4q-17 0 -17 13v76q0 5 5 9t11 4h198q5 0 10.5 -4t5.5 -9v-43z" />
    <glyph glyph-name="six" unicode="6" horiz-adv-x="504" 
d="M261 425q41 0 76.5 -9.5t62 -32t41.5 -60.5t15 -94v-29q0 -56 -15 -95.5t-41.5 -64t-62 -35.5t-76.5 -11t-77 11t-62.5 35.5t-41.5 64t-15 95.5v325q0 56 15 95.5t41 64t62 35.5t77 11q46 0 82.5 -13.5t61.5 -36t38.5 -52.5t13.5 -63q0 -11 -5 -15.5t-12 -4.5t-13 4.5
t-6 13.5q0 30 -12.5 54t-34.5 41t-51 26.5t-62 9.5q-75 0 -117 -41t-42 -129v-174q26 38 67.5 56t92.5 18zM101 200q0 -88 42.5 -129t117.5 -41t117 41t42 129v29q0 87 -42 123.5t-117 36.5q-73 0 -116.5 -34.5t-43.5 -116.5v-38z" />
    <glyph glyph-name="sixinferior" unicode="&#x2086;" horiz-adv-x="322" 
d="M169 216q23 0 43.5 -5t35.5 -16.5t23.5 -31t8.5 -47.5v-12q0 -29 -9 -49.5t-24.5 -33.5t-36.5 -18.5t-45 -5.5q-59 0 -87 29.5t-28 101.5v131q0 29 9 49.5t24.5 33t37 18.5t45.5 6q28 0 49 -7.5t35.5 -19.5t22 -27.5t7.5 -31.5t-16 -16q-6 0 -11.5 3.5t-5.5 11.5
q0 26 -24 41t-58 15q-38 0 -59.5 -18.5t-21.5 -57.5v-77q14 18 36.5 26t48.5 8zM84 102q0 -38 21.5 -56.5t59.5 -18.5t60 18.5t22 56.5v12q0 40 -22 56.5t-60 16.5q-37 0 -59 -15.5t-22 -52.5v-17z" />
    <glyph glyph-name="sixsuperior" unicode="&#x2076;" horiz-adv-x="322" 
d="M169 581q23 0 43.5 -5t35.5 -16.5t23.5 -31t8.5 -47.5v-12q0 -29 -9 -49.5t-24.5 -33.5t-36.5 -18.5t-45 -5.5q-59 0 -87 29.5t-28 101.5v131q0 29 9 49.5t24.5 33t37 18.5t45.5 6q28 0 49 -7.5t35.5 -19.5t22 -27.5t7.5 -31.5t-16 -16q-6 0 -11.5 3.5t-5.5 11.5
q0 26 -24 41t-58 15q-38 0 -59.5 -18.5t-21.5 -57.5v-77q14 18 36.5 26t48.5 8zM84 467q0 -38 21.5 -56.5t59.5 -18.5t60 18.5t22 56.5v12q0 40 -22 56.5t-60 16.5q-37 0 -59 -15.5t-22 -52.5v-17z" />
    <glyph glyph-name="slash" unicode="/" horiz-adv-x="468" 
d="M55 -9q-6 -11 -17 -11q-6 0 -11 4t-5 11q0 6 2 9l391 756q4 8 13 8q6 0 12 -5.5t6 -13.5q0 -5 -3 -11z" />
    <glyph glyph-name="space" unicode=" " horiz-adv-x="200" 
 />
    <glyph glyph-name="sterling" unicode="&#xa3;" horiz-adv-x="461" 
d="M49 384q0 8 4.5 13t12.5 5h91l27 188q5 36 23.5 68.5t46 56.5t62 38.5t71.5 14.5h12q10 0 15 -5.5t5 -12.5q0 -6 -5 -11.5t-15 -5.5h-17q-30 0 -58 -12t-50 -32t-36.5 -45.5t-18.5 -53.5l-27 -188h163q8 0 12 -5.5t4 -12.5q0 -6 -4 -11.5t-12 -5.5h-168l-47 -331h263
q8 0 12 -5.5t4 -12.5t-4 -12.5t-12 -5.5h-360q-9 0 -13.5 5.5t-4.5 12.5t4.5 12.5t13.5 5.5h63l46 331h-86q-17 0 -17 17z" />
    <glyph glyph-name="summation" unicode="&#x2211;" horiz-adv-x="447" 
d="M402 731q9 0 13.5 -5.5t4.5 -12.5t-4.5 -12.5t-13.5 -5.5h-326l206 -404q8 -14 11.5 -22.5t3.5 -16.5t-3.5 -17t-11.5 -23l-206 -403h326q9 0 13.5 -5.5t4.5 -12.5t-4.5 -12.5t-13.5 -5.5h-355q-8 0 -13 5t-5 13q0 5 3 11l229 450l-229 450q-3 6 -3 11q0 8 5 13t13 5h355
z" />
    <glyph glyph-name="t" unicode="t" horiz-adv-x="272" 
d="M66 686q0 8 5.5 12.5t11.5 4.5q7 0 12.5 -4.5t5.5 -12.5v-214h135q7 0 12 -5t5 -13q0 -7 -5 -12t-12 -5h-135v-298q0 -57 24.5 -80.5t86.5 -23.5h23q7 0 12 -4.5t5 -12.5t-5 -13t-12 -5h-23q-72 0 -109 33t-37 106v547z" />
    <glyph glyph-name="tbar" unicode="&#x167;" horiz-adv-x="276" 
d="M66 686q0 8 5.5 12.5t11.5 4.5q7 0 12.5 -4.5t5.5 -12.5v-214h135q7 0 12 -5t5 -13q0 -7 -5 -12t-12 -5h-135v-115h135q7 0 12 -5t5 -13q0 -7 -5 -12t-12 -5h-135v-148q0 -57 24.5 -80.5t86.5 -23.5h23q7 0 12 -4.5t5 -12.5t-5 -13t-12 -5h-23q-72 0 -109 33t-37 106v547
z" />
    <glyph glyph-name="tcaron" unicode="&#x165;" horiz-adv-x="272" 
d="M66 686q0 8 5.5 12.5t11.5 4.5q7 0 12.5 -4.5t5.5 -12.5v-214h135q7 0 12 -5t5 -13q0 -7 -5 -12t-12 -5h-135v-298q0 -57 24.5 -80.5t86.5 -23.5h23q7 0 12 -4.5t5 -12.5t-5 -13t-12 -5h-23q-72 0 -109 33t-37 106v547zM212 741q14 0 24.5 -10.5t10.5 -25.5
q0 -6 -3 -17.5t-7.5 -25t-10.5 -28t-12 -26.5q-5 -10 -14 -10q-6 0 -11 4t-5 11q0 4 1 6l18 51q-12 3 -19.5 13t-7.5 22q0 15 10 25.5t26 10.5z" />
    <glyph glyph-name="tcommaaccent" unicode="&#x163;" horiz-adv-x="272" 
d="M66 686q0 8 5.5 12.5t11.5 4.5q7 0 12.5 -4.5t5.5 -12.5v-214h135q7 0 12 -5t5 -13q0 -7 -5 -12t-12 -5h-135v-298q0 -57 24.5 -80.5t86.5 -23.5h23q7 0 12 -4.5t5 -12.5t-5 -13t-12 -5h-23q-72 0 -109 33t-37 106v547zM90 -138q-5 -3 -9 -3q-8 0 -13.5 5t-5.5 13
q0 9 8 13l102 60q4 2 7 2q8 0 12 -5.5t4 -12.5q0 -12 -10 -18z" />
    <glyph glyph-name="thorn" unicode="&#xfe;" horiz-adv-x="468" 
d="M86 768q8 0 13 -4.5t5 -12.5v-349q17 29 50 52.5t84 23.5q37 0 69.5 -14t57 -38.5t39 -57.5t14.5 -70v-122q0 -36 -14.5 -68.5t-39 -58t-56.5 -40.5t-68 -15q-46 0 -82.5 22.5t-53.5 53.5v-289q0 -7 -5 -12.5t-13 -5.5t-12.5 5.5t-4.5 12.5v970q0 17 17 17zM383 298
q0 27 -11 53.5t-30.5 46.5t-45.5 32.5t-55 12.5q-26 0 -50.5 -10t-43.5 -28.5t-31 -45.5t-12 -61v-159q0 -13 10.5 -31.5t29 -36t43.5 -30t55 -12.5q28 0 54 12.5t45 33t30.5 47t11.5 54.5v122z" />
    <glyph glyph-name="three" unicode="3" horiz-adv-x="473" 
d="M230 369q-10 0 -14.5 5.5t-4.5 12.5t4.5 12.5t13.5 5.5q71 0 106 32t35 111q0 72 -31.5 109.5t-105.5 37.5q-47 0 -75.5 -13.5t-44 -32.5t-21 -41t-5.5 -38q0 -24 -18 -24q-8 0 -13 6.5t-5 23.5q0 18 7 44t27.5 51t56.5 42.5t94 17.5q38 0 69.5 -9.5t54 -30t34.5 -53.5
t12 -81q0 -73 -25 -113.5t-59 -57.5q45 -19 73.5 -58.5t28.5 -108.5v-19q0 -56 -15.5 -95.5t-41.5 -64t-61.5 -35.5t-75.5 -11q-50 0 -86.5 14.5t-61.5 37.5t-37 50.5t-12 54.5q0 17 4 22.5t12 5.5q11 0 15 -6.5t4 -14.5q0 -15 6.5 -37t23.5 -42.5t48 -34.5t80 -14
q77 0 119.5 41t42.5 129v19q0 75 -42.5 112.5t-115.5 37.5z" />
    <glyph glyph-name="threeeighths" unicode="&#x215c;" horiz-adv-x="734" 
d="M579 366q45 0 74.5 -19t29.5 -69q0 -32 -13 -51.5t-36 -27.5q27 -10 43.5 -32t16.5 -61v-6q0 -28 -9 -47.5t-24.5 -32t-36.5 -18t-45 -5.5t-45 5.5t-36.5 18t-24.5 32t-9 47.5v6q0 39 16.5 61t43.5 32q-22 8 -35.5 27.5t-13.5 51.5q0 49 30 68.5t74 19.5zM661 110
q0 38 -22 56t-60 18t-59.5 -18t-21.5 -56v-8q0 -38 22 -57t60 -19t59.5 19t21.5 57v8zM579 336q-33 0 -52 -14t-19 -47q0 -32 19 -46.5t52 -14.5q34 0 52.5 14.5t18.5 46.5q0 33 -18.5 47t-52.5 14zM205 -9q-6 -11 -17 -11q-6 0 -11 4t-5 11q0 6 2 9l391 756q4 8 13 8
q6 0 12 -5.5t6 -13.5q0 -5 -3 -11zM150 393q40 0 61.5 18t21.5 57v9q0 35 -22 50.5t-60 15.5q-8 0 -11 4.5t-3 9.5q0 6 3 10.5t11 4.5q35 0 53 13.5t18 50.5q0 32 -16.5 48t-52.5 16q-23 0 -37.5 -5.5t-22.5 -13.5t-11 -17t-3 -17q0 -16 -16 -16q-10 0 -13.5 4t-3.5 15
q0 10 4.5 24t16.5 26.5t33 21.5t54 9q45 0 73 -20t28 -68q0 -35 -13 -56t-33 -29q25 -9 41 -28.5t16 -52.5v-9q0 -29 -9 -49t-24.5 -33t-36.5 -18.5t-45 -5.5q-29 0 -51 7.5t-36 19.5t-21 27t-7 29q0 11 3.5 14t11.5 3q11 0 14.5 -4t3.5 -10q0 -8 3.5 -17.5t13 -18t25 -14
t39.5 -5.5z" />
    <glyph glyph-name="threeinferior" unicode="&#x2083;" horiz-adv-x="305" 
d="M148 28q40 0 61.5 18t21.5 57v9q0 35 -22 50.5t-60 15.5q-8 0 -11 4.5t-3 9.5q0 6 3 10.5t11 4.5q35 0 53 13.5t18 50.5q0 32 -16.5 48t-52.5 16q-23 0 -37.5 -5.5t-22.5 -13.5t-11 -17t-3 -17q0 -16 -16 -16q-10 0 -13.5 4t-3.5 15q0 10 4.5 24t16.5 26.5t33 21.5t54 9
q45 0 73 -20t28 -68q0 -35 -13 -56t-33 -29q25 -9 41 -28.5t16 -52.5v-9q0 -29 -9 -49t-24.5 -33t-36.5 -18.5t-45 -5.5q-29 0 -51 7.5t-36 19.5t-21 27t-7 29q0 11 3.5 14t11.5 3q11 0 14.5 -4t3.5 -10q0 -8 3.5 -17.5t13 -18t25 -14t39.5 -5.5z" />
    <glyph glyph-name="threequarters" unicode="&#xbe;" horiz-adv-x="707" 
d="M150 393q40 0 61.5 18t21.5 57v9q0 35 -22 50.5t-60 15.5q-8 0 -11 4.5t-3 9.5q0 6 3 10.5t11 4.5q35 0 53 13.5t18 50.5q0 32 -16.5 48t-52.5 16q-23 0 -37.5 -5.5t-22.5 -13.5t-11 -17t-3 -17q0 -16 -16 -16q-10 0 -13.5 4t-3.5 15q0 10 4.5 24t16.5 26.5t33 21.5t54 9
q45 0 73 -20t28 -68q0 -35 -13 -56t-33 -29q25 -9 41 -28.5t16 -52.5v-9q0 -29 -9 -49t-24.5 -33t-36.5 -18.5t-45 -5.5q-29 0 -51 7.5t-36 19.5t-21 27t-7 29q0 11 3.5 14t11.5 3q11 0 14.5 -4t3.5 -10q0 -8 3.5 -17.5t13 -18t25 -14t39.5 -5.5zM602 86h-144q-13 0 -13 14
q0 2 2 8l141 247q6 11 16 11q6 0 11.5 -4t5.5 -10q0 -3 -2 -7l-131 -227h114v96q0 6 5 9t11 3q7 0 12 -3t5 -9v-96h31q7 0 10.5 -5t3.5 -11t-4 -11t-10 -5h-31v-73q0 -7 -5 -10t-12 -3q-6 0 -11 3t-5 10v73zM225 -9q-6 -11 -17 -11q-6 0 -11 4t-5 11q0 6 2 9l391 756
q4 8 13 8q6 0 12 -5.5t6 -13.5q0 -5 -3 -11z" />
    <glyph glyph-name="threesuperior" unicode="&#xb3;" horiz-adv-x="306" 
d="M148 393q40 0 61.5 18t21.5 57v9q0 35 -22 50.5t-60 15.5q-8 0 -11 4.5t-3 9.5q0 6 3 10.5t11 4.5q35 0 53 13.5t18 50.5q0 32 -16.5 48t-52.5 16q-23 0 -37.5 -5.5t-22.5 -13.5t-11 -17t-3 -17q0 -16 -16 -16q-10 0 -13.5 4t-3.5 15q0 10 4.5 24t16.5 26.5t33 21.5t54 9
q45 0 73 -20t28 -68q0 -35 -13 -56t-33 -29q25 -9 41 -28.5t16 -52.5v-9q0 -29 -9 -49t-24.5 -33t-36.5 -18.5t-45 -5.5q-29 0 -51 7.5t-36 19.5t-21 27t-7 29q0 11 3.5 14t11.5 3q11 0 14.5 -4t3.5 -10q0 -8 3.5 -17.5t13 -18t25 -14t39.5 -5.5z" />
    <glyph glyph-name="tilde" unicode="&#x2dc;" horiz-adv-x="295" 
d="M216 653q17 0 27 5t16.5 11t11 11t10.5 5q5 0 9.5 -4t4.5 -11q0 -12 -8.5 -21t-21.5 -16t-27.5 -10.5t-26.5 -3.5q-18 0 -32.5 6t-29 12.5t-30.5 12.5t-37 6q-16 0 -27 -5.5t-18.5 -12t-13 -12t-10.5 -5.5q-13 0 -13 17q0 10 9 19t22 16.5t28.5 12t29.5 4.5q18 0 33 -6
t29.5 -12.5t30 -12.5t34.5 -6z" />
    <glyph glyph-name="trademark" unicode="&#x2122;" horiz-adv-x="606" 
d="M234 768q7 0 10 -5.5t3 -11.5q0 -7 -3 -12.5t-10 -5.5h-75v-247q0 -7 -5.5 -10.5t-12.5 -3.5q-8 0 -13.5 3.5t-5.5 10.5v247h-75q-6 0 -9.5 5.5t-3.5 12.5q0 6 3 11.5t10 5.5h187zM412 521q-5 -12 -14 -12t-13 12l-72 170v-205q0 -7 -5.5 -10.5t-12.5 -3.5t-12.5 3.5
t-5.5 10.5v264q0 10 5.5 14t12.5 4q10 0 16.5 -7.5t11.5 -18.5l75 -177l76 177q5 11 11.5 18.5t16.5 7.5q8 0 13 -4t5 -14v-264q0 -7 -5.5 -10.5t-12.5 -3.5t-12.5 3.5t-5.5 10.5v203z" />
    <glyph glyph-name="two" unicode="2" horiz-adv-x="461" 
d="M56 574q0 33 13 61.5t36 49.5t55 33.5t71 12.5q43 0 78 -15.5t59.5 -41t37.5 -59.5t13 -71q0 -54 -25.5 -96t-64 -77.5t-83 -66t-83 -60.5t-64 -61t-25.5 -68v-79h338q7 0 12 -5t5 -13q0 -7 -5 -12.5t-12 -5.5h-356q-6 0 -12 5t-6 13v97q0 42 25.5 77t64 66.5t83 62
t83 64t64 72t25.5 86.5q0 27 -9.5 54.5t-28.5 49t-48 35t-68 13.5q-59 0 -98 -33.5t-39 -98.5q0 -6 -4.5 -11.5t-14.5 -5.5q-17 0 -17 28z" />
    <glyph glyph-name="twoinferior" unicode="&#x2082;" horiz-adv-x="299" 
d="M46 282q0 37 29.5 60.5t74.5 23.5q49 0 79.5 -28t30.5 -69q0 -27 -14 -48t-35 -38.5t-45.5 -32.5t-45.5 -29t-35 -28.5t-14 -31.5v-30h181q5 0 9 -4.5t4 -10.5t-4 -11t-9 -5h-199q-5 0 -10.5 3.5t-5.5 9.5v48q0 21 14 38t35 33t46 31t46 31t35 34t14 40q0 24 -19 45
t-59 21q-30 0 -49.5 -14.5t-19.5 -44.5q0 -5 -5 -9t-13 -4q-16 0 -16 20z" />
    <glyph glyph-name="twosuperior" unicode="&#xb2;" horiz-adv-x="299" 
d="M46 647q0 37 29.5 60.5t74.5 23.5q49 0 79.5 -28t30.5 -69q0 -27 -14 -48t-35 -38.5t-45.5 -32.5t-45.5 -29t-35 -28.5t-14 -31.5v-30h181q5 0 9 -4.5t4 -10.5t-4 -11t-9 -5h-199q-5 0 -10.5 3.5t-5.5 9.5v48q0 21 14 38t35 33t46 31t46 31t35 34t14 40q0 24 -19 45
t-59 21q-30 0 -49.5 -14.5t-19.5 -44.5q0 -5 -5 -9t-13 -4q-16 0 -16 20z" />
    <glyph glyph-name="twothirds" unicode="&#x2154;" horiz-adv-x="728" 
d="M50 647q0 37 29.5 60.5t74.5 23.5q49 0 79.5 -28t30.5 -69q0 -27 -14 -48t-35 -38.5t-45.5 -32.5t-45.5 -29t-35 -28.5t-14 -31.5v-30h181q5 0 9 -4.5t4 -10.5t-4 -11t-9 -5h-199q-5 0 -10.5 3.5t-5.5 9.5v48q0 21 14 38t35 33t46 31t46 31t35 34t14 40q0 24 -19 45
t-59 21q-30 0 -49.5 -14.5t-19.5 -44.5q0 -5 -5 -9t-13 -4q-16 0 -16 20zM571 28q40 0 61.5 18t21.5 57v9q0 35 -22 50.5t-60 15.5q-8 0 -11 4.5t-3 9.5q0 6 3 10.5t11 4.5q35 0 53 13.5t18 50.5q0 32 -16.5 48t-52.5 16q-23 0 -37.5 -5.5t-22.5 -13.5t-11 -17t-3 -17
q0 -16 -16 -16q-10 0 -13.5 4t-3.5 15q0 10 4.5 24t16.5 26.5t33 21.5t54 9q45 0 73 -20t28 -68q0 -35 -13 -56t-33 -29q25 -9 41 -28.5t16 -52.5v-9q0 -29 -9 -49t-24.5 -33t-36.5 -18.5t-45 -5.5q-29 0 -51 7.5t-36 19.5t-21 27t-7 29q0 11 3.5 14t11.5 3q11 0 14.5 -4
t3.5 -10q0 -8 3.5 -17.5t13 -18t25 -14t39.5 -5.5zM207 -9q-6 -11 -17 -11q-6 0 -11 4t-5 11q0 6 2 9l391 756q4 8 13 8q6 0 12 -5.5t6 -13.5q0 -5 -3 -11z" />
    <glyph glyph-name="u" unicode="u" horiz-adv-x="483" 
d="M242 -6q-37 0 -69.5 15t-56.5 39.5t-38 57t-14 68.5v280q0 7 5 12.5t13 5.5q7 0 12 -5.5t5 -12.5v-280q0 -28 11 -54t30.5 -46.5t45.5 -32.5t56 -12t55.5 12t45 32.5t30.5 46.5t11 54v281q0 7 5 12t13 5t12.5 -5t4.5 -12v-281q0 -36 -14 -68.5t-38.5 -57.5t-56.5 -39.5
t-68 -14.5z" />
    <glyph glyph-name="u.ss04" horiz-adv-x="481" 
d="M378 454q0 7 5 12.5t13 5.5t12.5 -5.5t4.5 -12.5v-437q0 -17 -17 -17q-8 0 -13 4.5t-5 12.5v53q-17 -29 -50 -52.5t-84 -23.5q-37 0 -69.5 14t-57 38.5t-39 57.5t-14.5 70v280q0 9 5.5 13.5t12.5 4.5q6 0 11.5 -4.5t5.5 -13.5v-280q0 -27 11 -53.5t30.5 -46.5t45.5 -32.5
t55 -12.5q25 0 50 10t44 28.5t31 45.5t12 61v280z" />
    <glyph glyph-name="uacute" unicode="&#xfa;" horiz-adv-x="483" 
d="M242 -6q-37 0 -69.5 15t-56.5 39.5t-38 57t-14 68.5v280q0 7 5 12.5t13 5.5q7 0 12 -5.5t5 -12.5v-280q0 -28 11 -54t30.5 -46.5t45.5 -32.5t56 -12t55.5 12t45 32.5t30.5 46.5t11 54v281q0 7 5 12t13 5t12.5 -5t4.5 -12v-281q0 -36 -14 -68.5t-38.5 -57.5t-56.5 -39.5
t-68 -14.5zM203 604q-5 -3 -9 -3q-8 0 -13.5 5t-5.5 13q0 9 8 13l102 60q4 2 7 2q8 0 12 -5.5t4 -12.5q0 -12 -10 -18z" />
    <glyph glyph-name="ubreve" unicode="&#x16d;" horiz-adv-x="483" 
d="M242 -6q-37 0 -69.5 15t-56.5 39.5t-38 57t-14 68.5v280q0 7 5 12.5t13 5.5q7 0 12 -5.5t5 -12.5v-280q0 -28 11 -54t30.5 -46.5t45.5 -32.5t56 -12t55.5 12t45 32.5t30.5 46.5t11 54v281q0 7 5 12t13 5t12.5 -5t4.5 -12v-281q0 -36 -14 -68.5t-38.5 -57.5t-56.5 -39.5
t-68 -14.5zM350 710q0 -22 -9 -42t-24 -35t-35 -23.5t-41 -8.5q-22 0 -41.5 8.5t-34.5 23.5t-24 35t-9 42h32q0 -35 22.5 -59t54.5 -24q31 0 53.5 24t22.5 59h33z" />
    <glyph glyph-name="ucircumflex" unicode="&#xfb;" horiz-adv-x="483" 
d="M242 -6q-37 0 -69.5 15t-56.5 39.5t-38 57t-14 68.5v280q0 7 5 12.5t13 5.5q7 0 12 -5.5t5 -12.5v-280q0 -28 11 -54t30.5 -46.5t45.5 -32.5t56 -12t55.5 12t45 32.5t30.5 46.5t11 54v281q0 7 5 12t13 5t12.5 -5t4.5 -12v-281q0 -36 -14 -68.5t-38.5 -57.5t-56.5 -39.5
t-68 -14.5zM137 603l-4 -2t-4 -1q-7 0 -12.5 5.5t-5.5 13.5q0 9 9 14l104 56q8 5 17 5t17 -5l104 -55q9 -5 9 -17q0 -7 -5 -11.5t-12 -4.5q-2 0 -4.5 1t-4.5 2l-104 55z" />
    <glyph glyph-name="udieresis" unicode="&#xfc;" horiz-adv-x="483" 
d="M242 -6q-37 0 -69.5 15t-56.5 39.5t-38 57t-14 68.5v280q0 7 5 12.5t13 5.5q7 0 12 -5.5t5 -12.5v-280q0 -28 11 -54t30.5 -46.5t45.5 -32.5t56 -12t55.5 12t45 32.5t30.5 46.5t11 54v281q0 7 5 12t13 5t12.5 -5t4.5 -12v-281q0 -36 -14 -68.5t-38.5 -57.5t-56.5 -39.5
t-68 -14.5zM186 659q13 0 21 -8t8 -21t-8 -21.5t-21 -8.5q-14 0 -22 8.5t-8 21.5t8 21t22 8zM297 659q13 0 21 -8t8 -21t-8 -21.5t-21 -8.5q-14 0 -22 8.5t-8 21.5t8 21t22 8z" />
    <glyph glyph-name="ugrave" unicode="&#xf9;" horiz-adv-x="483" 
d="M242 -6q-37 0 -69.5 15t-56.5 39.5t-38 57t-14 68.5v280q0 7 5 12.5t13 5.5q7 0 12 -5.5t5 -12.5v-280q0 -28 11 -54t30.5 -46.5t45.5 -32.5t56 -12t55.5 12t45 32.5t30.5 46.5t11 54v281q0 7 5 12t13 5t12.5 -5t4.5 -12v-281q0 -36 -14 -68.5t-38.5 -57.5t-56.5 -39.5
t-68 -14.5zM185 658q-10 6 -10 18q0 7 4 12.5t12 5.5q3 0 7 -2l102 -60q8 -4 8 -13q0 -8 -5.5 -13t-13.5 -5q-5 0 -9 3z" />
    <glyph glyph-name="uhungarumlaut" unicode="&#x171;" horiz-adv-x="483" 
d="M242 -6q-37 0 -69.5 15t-56.5 39.5t-38 57t-14 68.5v280q0 7 5 12.5t13 5.5q7 0 12 -5.5t5 -12.5v-280q0 -28 11 -54t30.5 -46.5t45.5 -32.5t56 -12t55.5 12t45 32.5t30.5 46.5t11 54v281q0 7 5 12t13 5t12.5 -5t4.5 -12v-281q0 -36 -14 -68.5t-38.5 -57.5t-56.5 -39.5
t-68 -14.5zM168 604q-5 -3 -9 -3q-8 0 -13.5 5t-5.5 13q0 9 8 13l102 60q4 2 7 2q8 0 12 -5.5t4 -12.5q0 -12 -10 -18zM315 604q-5 -3 -9 -3q-8 0 -13.5 5t-5.5 13q0 9 8 13l102 60q4 2 7 2q8 0 12 -5.5t4 -12.5q0 -12 -10 -18z" />
    <glyph glyph-name="umacron" unicode="&#x16b;" horiz-adv-x="483" 
d="M242 -6q-37 0 -69.5 15t-56.5 39.5t-38 57t-14 68.5v280q0 7 5 12.5t13 5.5q7 0 12 -5.5t5 -12.5v-280q0 -28 11 -54t30.5 -46.5t45.5 -32.5t56 -12t55.5 12t45 32.5t30.5 46.5t11 54v281q0 7 5 12t13 5t12.5 -5t4.5 -12v-281q0 -36 -14 -68.5t-38.5 -57.5t-56.5 -39.5
t-68 -14.5zM114 664q0 8 4.5 13t12.5 5h220q7 0 12.5 -5t5.5 -13t-5.5 -12.5t-12.5 -4.5h-220q-17 0 -17 17z" />
    <glyph glyph-name="underscore" unicode="_" horiz-adv-x="345" 
d="M-4 -18q0 8 4.5 13t12.5 5h320q7 0 12.5 -5t5.5 -13t-5.5 -12.5t-12.5 -4.5h-320q-17 0 -17 17z" />
    <glyph glyph-name="uni00A0" unicode="&#xa0;" horiz-adv-x="200" 
 />
    <glyph glyph-name="uni00AD" unicode="&#xad;" 
d="M50 240q0 8 4.5 13t12.5 5h320q7 0 12.5 -5t5.5 -13t-5.5 -12.5t-12.5 -4.5h-320q-17 0 -17 17z" />
    <glyph glyph-name="uogonek" unicode="&#x173;" horiz-adv-x="483" 
d="M242 -6q-37 0 -69.5 15t-56.5 39.5t-38 57t-14 68.5v280q0 7 5 12.5t13 5.5q7 0 12 -5.5t5 -12.5v-280q0 -28 11 -54t30.5 -46.5t45.5 -32.5t56 -12t55.5 12t45 32.5t30.5 46.5t11 54v281q0 7 5 12t13 5t12.5 -5t4.5 -12v-281q0 -30 -9.5 -57t-27 -50t-40.5 -39.5
t-50 -25.5q-30 -29 -51 -59t-21 -69q0 -25 17 -34t46 -9q8 0 13 -2.5t5 -10.5q0 -13 -23 -13q-14 0 -29 3t-28 10.5t-21.5 20.5t-8.5 33q0 35 14 65.5t37 56.5z" />
    <glyph glyph-name="uring" unicode="&#x16f;" horiz-adv-x="483" 
d="M242 -6q-37 0 -69.5 15t-56.5 39.5t-38 57t-14 68.5v280q0 7 5 12.5t13 5.5q7 0 12 -5.5t5 -12.5v-280q0 -28 11 -54t30.5 -46.5t45.5 -32.5t56 -12t55.5 12t45 32.5t30.5 46.5t11 54v281q0 7 5 12t13 5t12.5 -5t4.5 -12v-281q0 -36 -14 -68.5t-38.5 -57.5t-56.5 -39.5
t-68 -14.5zM241 768q18 0 34 -7.5t28.5 -20t20 -29t7.5 -34.5t-7.5 -35t-20 -30t-28.5 -20.5t-34 -7.5q-19 0 -35.5 7.5t-28.5 20.5t-19 30t-7 35t7 34t19 29t28.5 20.5t35.5 7.5zM306 677q0 12 -5 23.5t-14 20.5t-21 15t-25 6q-14 0 -26 -6t-21 -15t-14 -20.5t-5 -23.5
q0 -13 5 -25.5t14 -22.5t21 -16t26 -6q13 0 25 6t21 16t14 22.5t5 25.5z" />
    <glyph glyph-name="utilde" unicode="&#x169;" horiz-adv-x="483" 
d="M242 -6q-37 0 -69.5 15t-56.5 39.5t-38 57t-14 68.5v280q0 7 5 12.5t13 5.5q7 0 12 -5.5t5 -12.5v-280q0 -28 11 -54t30.5 -46.5t45.5 -32.5t56 -12t55.5 12t45 32.5t30.5 46.5t11 54v281q0 7 5 12t13 5t12.5 -5t4.5 -12v-281q0 -36 -14 -68.5t-38.5 -57.5t-56.5 -39.5
t-68 -14.5zM310 653q17 0 27 5t16.5 11t11 11t10.5 5q5 0 9.5 -4t4.5 -11q0 -12 -8.5 -21t-21.5 -16t-27.5 -10.5t-26.5 -3.5q-18 0 -32.5 6t-29 12.5t-30.5 12.5t-37 6q-16 0 -27 -5.5t-18.5 -12t-13 -12t-10.5 -5.5q-13 0 -13 17q0 10 9 19t22 16.5t28.5 12t29.5 4.5
q18 0 33 -6t29.5 -12.5t30 -12.5t34.5 -6z" />
    <glyph glyph-name="v" unicode="v" horiz-adv-x="392" 
d="M354 472q7 0 13 -4.5t6 -12.5q0 -4 -1.5 -8.5t-2.5 -6.5l-156 -434q-5 -12 -17 -12q-13 0 -17 12l-156 434q-1 2 -2.5 6.5t-1.5 7.5q0 8 5 13t13 5q12 0 17 -11l142 -393l141 387q2 6 4.5 11.5t12.5 5.5z" />
    <glyph glyph-name="w" unicode="w" horiz-adv-x="654" 
d="M617 472q8 0 13 -4.5t5 -12.5q0 -3 -1.5 -7.5t-2.5 -6.5l-157 -435q-4 -12 -15 -12q-6 0 -8.5 2.5t-5.5 8.5l-117 375l-115 -369q-6 -17 -17 -17q-7 0 -10 3t-7 14l-156 430q-1 2 -2.5 6.5t-1.5 6.5q0 8 5 13t13 5q12 0 17 -11l141 -391l115 362q5 13 18 13t18 -13
l111 -367l144 396q3 11 16 11z" />
    <glyph glyph-name="wacute" unicode="&#x1e83;" horiz-adv-x="654" 
d="M617 472q8 0 13 -4.5t5 -12.5q0 -3 -1.5 -7.5t-2.5 -6.5l-157 -435q-4 -12 -15 -12q-6 0 -8.5 2.5t-5.5 8.5l-117 375l-115 -369q-6 -17 -17 -17q-7 0 -10 3t-7 14l-156 430q-1 2 -2.5 6.5t-1.5 6.5q0 8 5 13t13 5q12 0 17 -11l141 -391l115 362q5 13 18 13t18 -13
l111 -367l144 396q3 11 16 11zM288 604q-5 -3 -9 -3q-8 0 -13.5 5t-5.5 13q0 9 8 13l102 60q4 2 7 2q8 0 12 -5.5t4 -12.5q0 -12 -10 -18z" />
    <glyph glyph-name="wcircumflex" unicode="&#x175;" horiz-adv-x="654" 
d="M617 472q8 0 13 -4.5t5 -12.5q0 -3 -1.5 -7.5t-2.5 -6.5l-157 -435q-4 -12 -15 -12q-6 0 -8.5 2.5t-5.5 8.5l-117 375l-115 -369q-6 -17 -17 -17q-7 0 -10 3t-7 14l-156 430q-1 2 -2.5 6.5t-1.5 6.5q0 8 5 13t13 5q12 0 17 -11l141 -391l115 362q5 13 18 13t18 -13
l111 -367l144 396q3 11 16 11zM223 603l-4 -2t-4 -1q-7 0 -12.5 5.5t-5.5 13.5q0 9 9 14l104 56q8 5 17 5t17 -5l104 -55q9 -5 9 -17q0 -7 -5 -11.5t-12 -4.5q-2 0 -4.5 1t-4.5 2l-104 55z" />
    <glyph glyph-name="wdieresis" unicode="&#x1e85;" horiz-adv-x="654" 
d="M617 472q8 0 13 -4.5t5 -12.5q0 -3 -1.5 -7.5t-2.5 -6.5l-157 -435q-4 -12 -15 -12q-6 0 -8.5 2.5t-5.5 8.5l-117 375l-115 -369q-6 -17 -17 -17q-7 0 -10 3t-7 14l-156 430q-1 2 -2.5 6.5t-1.5 6.5q0 8 5 13t13 5q12 0 17 -11l141 -391l115 362q5 13 18 13t18 -13
l111 -367l144 396q3 11 16 11zM272 659q13 0 21 -8t8 -21t-8 -21.5t-21 -8.5q-14 0 -22 8.5t-8 21.5t8 21t22 8zM383 659q13 0 21 -8t8 -21t-8 -21.5t-21 -8.5q-14 0 -22 8.5t-8 21.5t8 21t22 8z" />
    <glyph glyph-name="wgrave" unicode="&#x1e81;" horiz-adv-x="654" 
d="M617 472q8 0 13 -4.5t5 -12.5q0 -3 -1.5 -7.5t-2.5 -6.5l-157 -435q-4 -12 -15 -12q-6 0 -8.5 2.5t-5.5 8.5l-117 375l-115 -369q-6 -17 -17 -17q-7 0 -10 3t-7 14l-156 430q-1 2 -2.5 6.5t-1.5 6.5q0 8 5 13t13 5q12 0 17 -11l141 -391l115 362q5 13 18 13t18 -13
l111 -367l144 396q3 11 16 11zM270 658q-10 6 -10 18q0 7 4 12.5t12 5.5q3 0 7 -2l102 -60q8 -4 8 -13q0 -8 -5.5 -13t-13.5 -5q-5 0 -9 3z" />
    <glyph glyph-name="x" unicode="x" horiz-adv-x="381" 
d="M337 478q7 0 12.5 -5t5.5 -13q0 -5 -3 -9l-140 -213l140 -217q3 -5 3 -10q0 -7 -5 -12t-13 -5q-9 0 -14 8l-132 203l-131 -203q-6 -8 -15 -8q-8 0 -13 5t-5 12q0 5 3 10l139 217l-139 213q-3 4 -3 9q0 8 5 13t13 5q10 0 15 -8l131 -200l132 200q5 8 14 8z" />
    <glyph glyph-name="y" unicode="y" horiz-adv-x="395" 
d="M358 478q7 0 12.5 -4.5t5.5 -12.5q0 -4 -1 -6l-160 -442q-14 -38 -30.5 -81.5t-38.5 -81t-49 -62.5t-61 -25q-7 0 -12 4.5t-5 12.5q0 7 3.5 12.5t11.5 5.5q27 0 48.5 20t39 51.5t31.5 69.5t27 74l-160 442q-2 4 -2 6q0 7 5.5 12t13.5 5q13 0 16 -11l145 -400l144 400
q5 11 16 11z" />
    <glyph glyph-name="yacute" unicode="&#xfd;" horiz-adv-x="395" 
d="M358 478q7 0 12.5 -4.5t5.5 -12.5q0 -4 -1 -6l-160 -442q-14 -38 -30.5 -81.5t-38.5 -81t-49 -62.5t-61 -25q-7 0 -12 4.5t-5 12.5q0 7 3.5 12.5t11.5 5.5q27 0 48.5 20t39 51.5t31.5 69.5t27 74l-160 442q-2 4 -2 6q0 7 5.5 12t13.5 5q13 0 16 -11l145 -400l144 400
q5 11 16 11zM158 604q-5 -3 -9 -3q-8 0 -13.5 5t-5.5 13q0 9 8 13l102 60q4 2 7 2q8 0 12 -5.5t4 -12.5q0 -12 -10 -18z" />
    <glyph glyph-name="ycircumflex" unicode="&#x177;" horiz-adv-x="395" 
d="M358 478q7 0 12.5 -4.5t5.5 -12.5q0 -4 -1 -6l-160 -442q-14 -38 -30.5 -81.5t-38.5 -81t-49 -62.5t-61 -25q-7 0 -12 4.5t-5 12.5q0 7 3.5 12.5t11.5 5.5q27 0 48.5 20t39 51.5t31.5 69.5t27 74l-160 442q-2 4 -2 6q0 7 5.5 12t13.5 5q13 0 16 -11l145 -400l144 400
q5 11 16 11zM93 603l-4 -2t-4 -1q-7 0 -12.5 5.5t-5.5 13.5q0 9 9 14l104 56q8 5 17 5t17 -5l104 -55q9 -5 9 -17q0 -7 -5 -11.5t-12 -4.5q-2 0 -4.5 1t-4.5 2l-104 55z" />
    <glyph glyph-name="ydieresis" unicode="&#xff;" horiz-adv-x="395" 
d="M358 478q7 0 12.5 -4.5t5.5 -12.5q0 -4 -1 -6l-160 -442q-14 -38 -30.5 -81.5t-38.5 -81t-49 -62.5t-61 -25q-7 0 -12 4.5t-5 12.5q0 7 3.5 12.5t11.5 5.5q27 0 48.5 20t39 51.5t31.5 69.5t27 74l-160 442q-2 4 -2 6q0 7 5.5 12t13.5 5q13 0 16 -11l145 -400l144 400
q5 11 16 11zM142 659q13 0 21 -8t8 -21t-8 -21.5t-21 -8.5q-14 0 -22 8.5t-8 21.5t8 21t22 8zM253 659q13 0 21 -8t8 -21t-8 -21.5t-21 -8.5q-14 0 -22 8.5t-8 21.5t8 21t22 8z" />
    <glyph glyph-name="yen" unicode="&#xa5;" horiz-adv-x="479" 
d="M253 310v-78h131q7 0 12.5 -5t5.5 -13t-5.5 -12.5t-12.5 -4.5h-131v-180q0 -7 -4.5 -12t-12.5 -5t-13 5t-5 12v180h-124q-17 0 -17 17q0 8 4.5 13t12.5 5h124v78h-124q-17 0 -17 17q0 8 4.5 13t12.5 5h115l-180 362q-2 4 -2 7q0 6 5 11.5t13 5.5q11 0 17 -10l174 -346
l184 346q6 10 17 10q16 0 16 -17q0 -5 -1 -7l-190 -362h122q7 0 12.5 -5t5.5 -13t-5.5 -12.5t-12.5 -4.5h-131z" />
    <glyph glyph-name="ygrave" unicode="&#x1ef3;" horiz-adv-x="395" 
d="M358 478q7 0 12.5 -4.5t5.5 -12.5q0 -4 -1 -6l-160 -442q-14 -38 -30.5 -81.5t-38.5 -81t-49 -62.5t-61 -25q-7 0 -12 4.5t-5 12.5q0 7 3.5 12.5t11.5 5.5q27 0 48.5 20t39 51.5t31.5 69.5t27 74l-160 442q-2 4 -2 6q0 7 5.5 12t13.5 5q13 0 16 -11l145 -400l144 400
q5 11 16 11zM140 658q-10 6 -10 18q0 7 4 12.5t12 5.5q3 0 7 -2l102 -60q8 -4 8 -13q0 -8 -5.5 -13t-13.5 -5q-5 0 -9 3z" />
    <glyph glyph-name="z" unicode="z" horiz-adv-x="385" 
d="M341 35q8 0 13 -5t5 -13q0 -7 -5 -12t-13 -5h-297q-8 0 -13 4.5t-5 11.5q0 2 1 6t3 6l267 409h-243q-8 0 -13 5t-5 12q0 8 5 13t13 5h277q8 0 13 -5t5 -13q0 -6 -3 -10l-268 -409h263z" />
    <glyph glyph-name="zacute" unicode="&#x17a;" horiz-adv-x="385" 
d="M341 35q8 0 13 -5t5 -13q0 -7 -5 -12t-13 -5h-297q-8 0 -13 4.5t-5 11.5q0 2 1 6t3 6l267 409h-243q-8 0 -13 5t-5 12q0 8 5 13t13 5h277q8 0 13 -5t5 -13q0 -6 -3 -10l-268 -409h263zM149 604q-5 -3 -9 -3q-8 0 -13.5 5t-5.5 13q0 9 8 13l102 60q4 2 7 2q8 0 12 -5.5
t4 -12.5q0 -12 -10 -18z" />
    <glyph glyph-name="zcaron" unicode="&#x17e;" horiz-adv-x="385" 
d="M341 35q8 0 13 -5t5 -13q0 -7 -5 -12t-13 -5h-297q-8 0 -13 4.5t-5 11.5q0 2 1 6t3 6l267 409h-243q-8 0 -13 5t-5 12q0 8 5 13t13 5h277q8 0 13 -5t5 -13q0 -6 -3 -10l-268 -409h263zM207 599q-11 -11 -21 -11q-12 0 -21 11l-100 101q-8 10 -8 16q0 5 4 10t11 5
q9 0 16 -8l98 -103l98 103q7 8 16 8q7 0 11 -5t4 -10q0 -6 -8 -16z" />
    <glyph glyph-name="zdotaccent" unicode="&#x17c;" horiz-adv-x="385" 
d="M341 35q8 0 13 -5t5 -13q0 -7 -5 -12t-13 -5h-297q-8 0 -13 4.5t-5 11.5q0 2 1 6t3 6l267 409h-243q-8 0 -13 5t-5 12q0 8 5 13t13 5h277q8 0 13 -5t5 -13q0 -6 -3 -10l-268 -409h263zM188 659q13 0 21 -8t8 -21t-8 -21.5t-21 -8.5q-14 0 -22 8.5t-8 21.5t8 21t22 8z" />
    <glyph glyph-name="zero" unicode="0" horiz-adv-x="521" 
d="M260 -6q-41 0 -77 11t-62 35.5t-41 64t-15 95.5v325q0 56 15 95.5t41 64t62 35.5t77 11t77 -11t62.5 -35.5t41.5 -64t15 -95.5v-325q0 -56 -15 -95.5t-41.5 -64t-62.5 -35.5t-77 -11zM420 525q0 88 -42.5 129t-117.5 41t-117 -41t-42 -129v-325q0 -88 42 -129t117 -41
t117.5 41t42.5 129v325zM261 393q13 0 22 -9t9 -22t-9 -22.5t-22 -9.5q-14 0 -23 9.5t-9 22.5t9 22t23 9z" />
    <glyph glyph-name="zeroinferior" unicode="&#x2080;" horiz-adv-x="332" 
d="M166 -3q-24 0 -45 5.5t-36.5 18.5t-24.5 33.5t-9 49.5v155q0 58 33 82.5t82 24.5t82 -24.5t33 -82.5v-155q0 -29 -9 -49.5t-24.5 -33.5t-36.5 -18.5t-45 -5.5zM248 259q0 39 -22 57.5t-60 18.5t-59.5 -18.5t-21.5 -57.5v-155q0 -39 21.5 -57.5t59.5 -18.5t60 18.5
t22 57.5v155z" />
    <glyph glyph-name="zerosuperior" unicode="&#x2070;" horiz-adv-x="332" 
d="M166 362q-24 0 -45 5.5t-36.5 18.5t-24.5 33.5t-9 49.5v155q0 58 33 82.5t82 24.5t82 -24.5t33 -82.5v-155q0 -29 -9 -49.5t-24.5 -33.5t-36.5 -18.5t-45 -5.5zM248 624q0 39 -22 57.5t-60 18.5t-59.5 -18.5t-21.5 -57.5v-155q0 -39 21.5 -57.5t59.5 -18.5t60 18.5
t22 57.5v155z" />
    </font>
</defs>
</svg>
